<svg xmlns="http://www.w3.org/2000/svg" viewBox="0 0 2048 2048"><defs><style>
g[data-name="Layer 8"] {
    animation: lvlE 20s ease-in-out infinite;
}

g[data-name="Layer 9"] .cls-12 {
    animation: lvlN 5s ease-in-out infinite;
}


@keyframes lvlE {
    0% {
        -webkit-transform: translatey(0) rotate(-6deg);
        transform: translatey(0) rotate(-6deg);
    }
    50% {
        -webkit-transform: translatey(-20px) rotate(2deg);
        transform: translatey(-20px) rotate(2deg);
    }
    100% {
        -webkit-transform: translatey(0) rotate(-6deg);
        transform: translatey(0) rotate(-6deg);
    }
}

@keyframes lvlN {
    0% {
        -webkit-transform: translatey(0);
        transform: translatey(0);
    }
    40% {        
        fill: #cc1400;
    }
    50% {
        -webkit-transform: translatey(-20px);
        transform: translatey(-20px);
    }
    60% {        
        fill: #cc1400;
    }
    100% {
        -webkit-transform: translatey(0);
        transform: translatey(0);
    }
}.cls-1{fill:#606074;}.cls-2{fill:#525264;}.cls-3{fill:#c7c8c9;}.cls-4{fill:#adadad;}.cls-5{fill:#dadada;}.cls-6{fill:silver;}.cls-7{fill:#ff7fff;}.cls-8{fill:#2e6fd6;}.cls-9{fill:#2963b7;}.cls-10{fill:#00ff85;}.cls-11{fill:#cc0;}.cls-12{fill:#790c9e;}</style></defs><g id="Layer_8" data-name="Layer 8"><path class="cls-1" d="M1691.06,1389.07l-126.79,35.49a9.69,9.69,0,0,1-12-6.72l-45.38-162.09a9.71,9.71,0,0,1,6.73-12l126.78-35.49a9.71,9.71,0,0,1,12,6.73l45.37,162.08A9.69,9.69,0,0,1,1691.06,1389.07Z"/><path class="cls-2" d="M840.07,1627.3l-126.79,35.49a9.7,9.7,0,0,1-11.95-6.73L656,1494a9.7,9.7,0,0,1,6.73-12l126.78-35.49a9.7,9.7,0,0,1,12,6.72l45.37,162.09A9.7,9.7,0,0,1,840.07,1627.3Z"/><path class="cls-3" d="M1442,1044.86l11.16-154.34a9.7,9.7,0,0,0-12.29-10L1052,989.36,1101.69,1167Z"/><path class="cls-4" d="M747.42,1239.31,657.74,1113.2a9.71,9.71,0,0,1,5.29-15L1052,989.36,1101.69,1167Z"/><path class="cls-5" d="M1294.44,1855.52c243.69-68.22,385.93-321.07,317.72-564.76A456.27,456.27,0,0,0,1442,1044.86l-347.3,97.23Z"/><path class="cls-6" d="M1294.44,1855.52l-199.72-713.43-347.3,97.22a456.15,456.15,0,0,0-17.74,298.49c68.21,243.69,321.06,385.94,564.76,317.72Z"/><circle class="cls-7" cx="1384.29" cy="978.68" r="25.51"/><path class="cls-1" d="M1439.42,1107.33l111.43,398.05L1540.33,1516c-79.79,80.89-181.08,140.19-292.92,171.5l-136.66-488.2Z"/><path class="cls-2" d="M1110.75,1199.34l136.66,488.2c-111.84,31.31-229.2,33.22-339.39,5.51l-14.51-3.65L782.08,1291.35Z"/><path class="cls-8" d="M1240.57,1663.08c110.82-31,206.27-89,280.28-164.09l-100.74-359.87-302.52,84.69,56.54,201.93Z"/><path class="cls-9" d="M1117.59,1223.8l-302.51,84.69,100.74,359.87c102.22,25.7,213.92,25.75,324.74-5.28Z"/><path class="cls-10" d="M1288.37,1390q4.86,5.35,11.46,11.56t14.13,12.67q7.51,6.46,15.45,12.63t15.47,11.46q3.58-8.74,7.64-18.26t7.59-19.08q3.54-9.56,6.43-18.42t4.66-15.75l26.47-7.41a342.94,342.94,0,0,1-14.31,45.48q-9.24,23.91-18.61,45.67l71.18,54-29,8.11-53-39.55-21.69,60.47-27.4,7.67,28.9-80.29q-19.15-14.45-38.91-30.41a340.49,340.49,0,0,1-35.11-32.48Z"/><path class="cls-10" d="M977,1477.18q4.86,5.35,11.47,11.57t14.12,12.66q7.53,6.46,15.46,12.63t15.46,11.46q3.6-8.74,7.65-18.26t7.59-19.08q3.54-9.56,6.43-18.42t4.65-15.75l26.47-7.41a342.82,342.82,0,0,1-14.3,45.48q-9.26,23.91-18.61,45.67l71.18,54-29,8.11-53-39.55-21.69,60.47-27.41,7.67,28.91-80.29q-19.17-14.44-38.91-30.41a339.38,339.38,0,0,1-35.11-32.48Z"/><rect class="cls-5" x="1308.17" y="1845.36" width="19.4" height="115.76" transform="translate(3100.01 3380.76) rotate(164.36)"/><rect class="cls-6" x="1289.48" y="1850.59" width="19.4" height="115.76" transform="translate(3064.75 3396.06) rotate(164.36)"/><circle class="cls-6" cx="1321.5" cy="1955.22" r="52.75"/><path class="cls-5" d="M1307.83,1904.27a52.75,52.75,0,1,1,28.44,101.59"/></g><g id="Layer_10" data-name="Layer 10"><polygon class="cls-11" points="441 188 476.36 177.65 466 213 476.36 248.35 441 238 405.64 248.35 416 213 405.64 177.65 441 188"/><polygon class="cls-11" points="266.68 1298.32 299 1316 266.68 1333.68 249 1366 231.32 1333.68 199 1316 231.32 1298.32 249 1266 266.68 1298.32"/><polygon class="cls-11" points="1802 836 1837.36 825.64 1827 861 1837.36 896.36 1802 886 1766.64 896.36 1777 861 1766.64 825.64 1802 836"/></g><g id="Layer_9" data-name="Layer 9"><path class="cls-12" d="M379.58,803.17,368,731.6,207.6,757.52l-14.44-89.34,101.54-221,68.12-11L255,674.4l3.11,19.25L359.24,677.3l-13.16-81.44,61.7-10,33.5,207.31Z"/><path class="cls-12" d="M1785.21,474.57l31.13-65.48-146.75-69.78,38.87-81.73,209.11-124.23L1979.89,163,1755.77,297.8l-8.37,17.61,92.56,44,35.43-74.5,56.44,26.84-90.18,189.65Z"/><path class="cls-12" d="M1134.29,529.89q-20.77,28.8-46.93,42A97.4,97.4,0,0,1,1033,582.28q-28.2-2.78-55-22.09L850.7,468.34q-26.78-19.3-38.3-45.2a97.43,97.43,0,0,1-7.27-54.87q4.26-29,25-57.78t46.93-42a97.59,97.59,0,0,1,54.37-10.41q28.2,2.79,55,22.09L1113.75,372q26.77,19.31,38.3,45.2a97.36,97.36,0,0,1,7.27,54.87Q1155.06,501.11,1134.29,529.89Zm-43.8-31.6q15.21-21.07,12.12-42.43t-23.37-36L951.91,328q-20.28-14.62-41.36-11T874,342.09q-15.51,21.5-12.26,42.63t23.51,35.77l127.33,91.85q20.28,14.64,41.51,10.84T1090.49,498.29Zm-81.91-59.09q-8.77,12.17-21.74,13.91t-25.14-7q-12.16-8.77-14.2-21.34T954.24,400q8.79-12.17,21.35-14.2t24.72,6.74q12.16,8.77,14.61,21.63T1008.58,439.2Z"/></g></svg>