<svg id="Layer_11" data-name="Layer 11" xmlns="http://www.w3.org/2000/svg" viewBox="0 0 2048 2048"><defs><style>.cls-1{fill:#606074;}.cls-2{fill:#525264;}.cls-3{fill:#c7c8c9;}.cls-4{fill:#adadad;}.cls-5{fill:#dadada;}.cls-6{fill:silver;}.cls-7{fill:#ff7fff;}.cls-8{fill:#2e6fd6;}.cls-9{fill:#2963b7;}.cls-10{fill:#00ff85;}</style></defs><path class="cls-1" d="M239,978.47H442.57a15,15,0,0,1,15,15v260.26a15,15,0,0,1-15,15H239a15,15,0,0,1-15-15V993.47A15,15,0,0,1,239,978.47Z"/><path class="cls-2" d="M1605.43,978.47H1809a15,15,0,0,1,15,15v260.26a15,15,0,0,1-15,15H1605.43a15,15,0,0,1-15-15V993.47A15,15,0,0,1,1605.43,978.47Z"/><path class="cls-3" d="M466.34,1594.8l-81,225.16A15,15,0,0,0,399.5,1840H1024l104.9-122.66L1024,1554.8Z"/><path class="cls-4" d="M1581.66,1594.8l81,225.16A15,15,0,0,1,1648.5,1840H1024V1554.8Z"/><path class="cls-5" d="M1024,449.25c-391.29,0-708.5,317.21-708.5,708.5A705.43,705.43,0,0,0,466.34,1594.8H1024l222.9-566.42Z"/><path class="cls-6" d="M1024,449.25V1594.8h557.66a705.43,705.43,0,0,0,150.84-437c0-391.29-317.21-708.5-708.5-708.5Z"/><circle class="cls-7" cx="524.71" cy="1717.42" r="39.45" transform="translate(-617.29 331.53) rotate(-22.5)"/><path class="cls-1" d="M496.26,1502.87V863.72l20.09-11.48C668.88,765.05,844.42,719,1024,719l149.9,392.41L1024,1502.87Z"/><path class="cls-2" d="M1024,1502.87V719c179.58,0,355.12,46.08,507.65,133.27l20.09,11.48v639.15Z"/><path class="cls-8" d="M1024,758.24c-178,0-344.26,46.63-485.75,127.51v577.84H1024l149.9-325.21Z"/><path class="cls-9" d="M1024,1463.59h485.75V885.75C1368.26,804.88,1202,758.25,1024,758.25Z"/><path class="cls-10" d="M673.5,952.43l11.5-34.5,193,82v35.5l-193,82-11.5-34.5,158.5-65.5Z"/><path class="cls-10" d="M1219.5,1017.43l158.5,65.5-11.5,34.5-193-82v-35.5l193-82,11.5,34.5Z"/><polygon class="cls-5" points="1024 457.93 994 457.93 994 278.93 1024 278.93 1032.9 371.38 1024 457.93"/><rect class="cls-6" x="1024" y="278.93" width="30" height="179"/><circle class="cls-6" cx="1025.25" cy="289.52" r="81.56"/><path class="cls-5" d="M1024.37,371.08a81.56,81.56,0,1,1,0-163.12"/></svg>