<svg id="Layer_7" data-name="Layer 7" xmlns="http://www.w3.org/2000/svg" viewBox="0 0 2048 2048"><defs><style>.cls-1{fill:silver;}.cls-2{fill:#111;}.cls-3{fill:#606074;}.cls-4{fill:#525264;}.cls-5{fill:#c7c8c9;}.cls-6{fill:#adadad;}.cls-7{fill:#dadada;}.cls-8{fill:#ff7fff;}.cls-9{fill:#2e6fd6;}.cls-10{fill:#2963b7;}.cls-11{fill:#00ff85;}.cls-12{fill:#cc0;}</style></defs><circle class="cls-1" cx="719.25" cy="873.25" r="458.2"/><rect class="cls-1" x="146.5" y="758.7" width="229.1" height="229.1" rx="15"/><rect class="cls-1" x="603.39" y="300.5" width="229.1" height="229.1" rx="15"/><rect class="cls-1" x="1062.9" y="758.7" width="229.1" height="229.1" rx="15"/><rect class="cls-1" x="603.39" y="1216.9" width="229.1" height="229.1" rx="15"/><rect class="cls-1" x="276.11" y="431.58" width="229.1" height="229.1" rx="15" transform="translate(-271.75 436.19) rotate(-45)"/><rect class="cls-1" x="930.68" y="431.58" width="229.1" height="229.1" rx="15" transform="translate(-80.03 899.04) rotate(-45)"/><rect class="cls-1" x="930.68" y="1086.15" width="229.1" height="229.1" rx="15" transform="translate(-542.88 1090.76) rotate(-45)"/><rect class="cls-1" x="276.11" y="1086.15" width="229.1" height="229.1" rx="15" transform="translate(-734.6 627.91) rotate(-45)"/><circle class="cls-2" cx="719.25" cy="873.25" r="278.19"/><path class="cls-3" d="M910.59,826.31l-41,23.47a3.48,3.48,0,0,1-4.75-1.29l-30-52.39a3.48,3.48,0,0,1,1.29-4.75l41-23.48a3.49,3.49,0,0,1,4.75,1.29l30,52.4A3.48,3.48,0,0,1,910.59,826.31Z"/><path class="cls-4" d="M635.52,983.88l-41,23.47a3.48,3.48,0,0,1-4.75-1.29l-30-52.39a3.49,3.49,0,0,1,1.29-4.75l41-23.47a3.48,3.48,0,0,1,4.75,1.29l30,52.39A3.48,3.48,0,0,1,635.52,983.88Z"/><path class="cls-5" d="M793.75,728.45l-9.66-54.66a3.49,3.49,0,0,0-5.16-2.42l-125.72,72L642.69,785.9l43.42,14.91Z"/><path class="cls-6" d="M569.23,857.07l-42.26-36a3.48,3.48,0,0,1,.53-5.67l125.71-72,32.9,57.42Z"/><path class="cls-7" d="M813.6,1023.36a164.37,164.37,0,0,0-19.85-294.91L681.49,792.76l19.65,145.6Z"/><path class="cls-1" d="M813.6,1023.36,681.49,792.76,569.23,857.07A164.38,164.38,0,0,0,813.6,1023.36Z"/><circle class="cls-8" cx="767.86" cy="710.5" r="9.15"/><path class="cls-3" d="M798.33,750.41,872,879.07l-2.72,4.63a237.57,237.57,0,0,1-86.83,85.37L699,921.63l-6.87-110.36Z"/><path class="cls-4" d="M692.09,811.27l90.4,157.8a237.54,237.54,0,0,1-117.56,31.71h-5.37l-73.7-128.67Z"/><path class="cls-9" d="M778,961.16A226.5,226.5,0,0,0,861,879.48L794.41,763.16l-97.78,56L685.48,924Z"/><path class="cls-10" d="M696.62,819.17l-97.78,56,66.64,116.32A226.67,226.67,0,0,0,778,961.16Z"/><path class="cls-11" d="M826.13,881.65l1.66,8.27-48.31,5.75-4.09-7.14,29.4-38.77,6.29,5.62-24.35,31.47Z"/><circle class="cls-1" cx="831.32" cy="1054.67" r="18.92"/><path class="cls-7" d="M822.09,1038.15A18.92,18.92,0,1,1,840.9,1071"/><polygon class="cls-7" points="812.6 1021.62 818.63 1018.16 839.28 1054.19 833.24 1057.65 820.21 1042.32 812.6 1021.62"/><rect class="cls-1" x="816.42" y="1020.6" width="6.96" height="41.53" transform="translate(2048.96 1537.42) rotate(150.19)"/><circle class="cls-1" cx="1243.73" cy="1675.52" r="282.78"/><rect class="cls-1" x="890.25" y="1604.83" width="141.39" height="141.39" rx="15"/><rect class="cls-1" x="1172.22" y="1322.04" width="141.39" height="141.39" rx="15"/><rect class="cls-1" x="1455.82" y="1604.83" width="141.39" height="141.39" rx="15"/><rect class="cls-1" x="1172.22" y="1887.61" width="141.39" height="141.39" rx="15"/><rect class="cls-1" x="970.24" y="1402.94" width="141.39" height="141.39" rx="15" transform="translate(-737.14 1167.67) rotate(-45)"/><rect class="cls-1" x="1374.21" y="1402.94" width="141.39" height="141.39" rx="15" transform="translate(-618.81 1453.32) rotate(-45)"/><rect class="cls-1" x="1374.21" y="1806.91" width="141.39" height="141.39" rx="15" transform="translate(-904.47 1571.64) rotate(-45)"/><rect class="cls-1" x="970.24" y="1806.91" width="141.39" height="141.39" rx="15" transform="translate(-1022.79 1285.99) rotate(-45)"/><circle class="cls-2" cx="1243.73" cy="1675.52" r="171.69"/><circle class="cls-1" cx="1549" cy="410.1" r="282.78"/><rect class="cls-1" x="1195.52" y="339.41" width="141.39" height="141.39" rx="15"/><rect class="cls-1" x="1477.5" y="56.63" width="141.39" height="141.39" rx="15"/><rect class="cls-1" x="1761.09" y="339.41" width="141.39" height="141.39" rx="15"/><rect class="cls-1" x="1477.5" y="622.19" width="141.39" height="141.39" rx="15"/><rect class="cls-1" x="1275.51" y="137.52" width="141.39" height="141.39" rx="15" transform="translate(247.06 1012.9) rotate(-45)"/><rect class="cls-1" x="1679.48" y="137.52" width="141.39" height="141.39" rx="15" transform="translate(365.38 1298.55) rotate(-45)"/><rect class="cls-1" x="1679.48" y="541.5" width="141.39" height="141.39" rx="15" transform="translate(79.73 1416.87) rotate(-45)"/><rect class="cls-1" x="1275.51" y="541.5" width="141.39" height="141.39" rx="15" transform="translate(-38.59 1131.22) rotate(-45)"/><circle class="cls-2" cx="1549" cy="410.1" r="171.69"/><polygon class="cls-12" points="279.5 218.5 314.86 208.15 304.5 243.5 314.86 278.86 279.5 268.5 244.15 278.86 254.5 243.5 244.15 208.15 279.5 218.5"/><polygon class="cls-12" points="1567.32 890.39 1585 858.07 1602.68 890.39 1635 908.07 1602.68 925.75 1585 958.07 1567.32 925.75 1535 908.07 1567.32 890.39"/><polygon class="cls-12" points="887 1593.07 922.36 1582.71 912 1618.07 922.36 1653.42 887 1643.07 851.64 1653.42 862 1618.07 851.64 1582.71 887 1593.07"/></svg>