<svg id="Layer_6" data-name="Layer 6" xmlns="http://www.w3.org/2000/svg" viewBox="0 0 2048 2048"><defs><style>
#star1 {animation: sparkle 10s ease-in-out infinite}
#star2 {animation: sparkle 15s reverse ease-in-out infinite}
#star3 {animation: sparkle 30s ease-in-out infinite}

@keyframes sparkle {
    0% {
        opacity: 1;
    }

    5% {
        opacity: 0;
    }

    10% {
        opacity: 1;
    }
}

.cls-1{fill:#222;}.cls-2{fill:#2f3136;}.cls-18,.cls-3{fill:#b28dff;}.cls-4{fill:#606074;}.cls-5{fill:#525264;}.cls-6{fill:#c7c8c9;}.cls-7{fill:#adadad;}.cls-8{fill:#dadada;}.cls-9{fill:silver;}.cls-10{fill:#ff7fff;}.cls-11{fill:#2e6fd6;}.cls-12{fill:#2963b7;}.cls-13{fill:#00ff85;}.cls-14{fill:#404049;}.cls-15{fill:#fff;}.cls-16{fill:#555;}.cls-17{fill:#5865f2;opacity:0.3;}.cls-18{font-size:70px;font-family:SegoePrint-Bold, Segoe Print;font-weight:700;}.cls-19{letter-spacing:-0.04em;}.cls-20{fill:#bc9bff;}.cls-21{fill:#43b581;}.cls-22{fill:#cc0;}</style></defs><rect class="cls-1" x="562" y="688" width="1110" height="86" rx="15"/><rect class="cls-1" x="325" y="344" width="750" height="100" rx="15"/><rect class="cls-1" x="303" y="1012" width="401" height="85" rx="15"/><rect class="cls-1" x="303" y="891" width="1161" height="85" rx="15"/><rect class="cls-1" x="504" y="394" width="1000" height="1300" rx="15"/><rect class="cls-2" x="524" y="374" width="1000" height="1300" rx="15"/><path class="cls-3" d="M539,374h0a0,0,0,0,1,0,0V1674a0,0,0,0,1,0,0h0a15,15,0,0,1-15-15V389a15,15,0,0,1,15-15Z"/><path class="cls-4" d="M1240.14,322.39l45.58,12.38a3.48,3.48,0,0,1,2.44,4.27l-15.82,58.27a3.49,3.49,0,0,1-4.27,2.45l-45.58-12.38a3.49,3.49,0,0,1-2.45-4.27l15.83-58.27A3.48,3.48,0,0,1,1240.14,322.39Z"/><path class="cls-5" d="M1546.06,405.48l45.58,12.37a3.49,3.49,0,0,1,2.45,4.27l-15.83,58.27a3.48,3.48,0,0,1-4.27,2.45l-45.57-12.38a3.48,3.48,0,0,1-2.45-4.27l15.82-58.27A3.48,3.48,0,0,1,1546.06,405.48Z"/><path class="cls-6" d="M1253.56,474.21l-31.81,45.48a3.48,3.48,0,0,0,1.94,5.36l139.81,38L1401,540.4l-20.15-41.24Z"/><path class="cls-7" d="M1503.27,542l4.43,55.33a3.48,3.48,0,0,1-4.38,3.64L1363.5,563l17.35-63.86Z"/><path class="cls-8" d="M1448.07,251.64a164.38,164.38,0,0,0-194.51,222.57l124.86,33.9,89.06-116.84Z"/><path class="cls-9" d="M1448.07,251.64l-69.65,256.47L1503.27,542a164.38,164.38,0,0,0-55.2-290.38Z"/><circle class="cls-10" cx="1259.18" cy="505.21" r="9.15"/><path class="cls-4" d="M1265.85,455.44l38.86-143.09,5.2-1.35a237.6,237.6,0,0,1,121.76,1l25.52,92.61L1384,487.53Z"/><path class="cls-5" d="M1384,487.53,1431.67,312a237.49,237.49,0,0,1,105.55,60.71l3.8,3.79-38.86,143.1Z"/><path class="cls-11" d="M1429.28,320.82a226.67,226.67,0,0,0-116.5-1L1277.64,449.2l108.75,29.54,82-66.27Z"/><path class="cls-12" d="M1386.39,478.74l108.76,29.53,35.13-129.37a226.65,226.65,0,0,0-101-58.08Z"/><path class="cls-13" d="M1339,343l4.67-7,38.23,30.09-2.16,7.95-48.2,6.62-.47-8.42,39.47-5Z"/><circle class="cls-9" cx="1457.67" cy="216.97" r="18.92"/><path class="cls-8" d="M1452.52,235.17a18.92,18.92,0,0,1,9.92-36.52"/><polygon class="cls-8" points="1447.54 253.58 1440.82 251.76 1451.71 211.68 1458.42 213.51 1456.79 233.56 1447.54 253.58"/><rect class="cls-9" x="1452.86" y="213.69" width="6.96" height="41.53" transform="translate(112.35 -373.49) rotate(15.19)"/><rect class="cls-14" x="345" y="324" width="750" height="100" rx="15"/><path class="cls-15" d="M436.35,380.22c-.32-8.17-.62-17.89-.59-27.77h-.27c-2.15,8.63-5,18.21-7.52,26.16l-8.26,26.29H407.87l-7.26-26c-2.18-7.94-4.41-17.51-6.08-26.4h-.22c-.33,9.17-.7,19.57-1.11,28L391.94,406h-14.1l4.32-67.4h20.31l6.58,22.52c2.13,7.73,4.21,16.2,5.71,24.1h.33c1.84-7.8,4.12-16.69,6.41-24.2l7.16-22.42h19.93l3.62,67.4H437.4Z"/><path class="cls-15" d="M475.46,386.42c.45,6.31,6.69,9.31,13.79,9.31a40.84,40.84,0,0,0,13.47-2.07l2.06,10.3A47.63,47.63,0,0,1,487,407.05c-16.58,0-26.1-9.66-26.1-24.91,0-12.44,7.76-26.19,24.67-26.19,15.87,0,21.86,12.33,21.86,24.44a29.09,29.09,0,0,1-.55,6ZM493.32,376c0-3.66-1.61-9.92-8.53-9.92-6.43,0-9,5.87-9.46,9.92Z"/><path class="cls-15" d="M516.53,372.69c0-6.1-.19-11.25-.4-15.64H529l.64,6.63H530A17,17,0,0,1,544.73,356c6.36,0,11.29,3.25,13.4,8.39h.2a20.59,20.59,0,0,1,6.36-6A17.46,17.46,0,0,1,574,356c9.34,0,16.47,6.61,16.47,21.24V406h-14.8V379.42c0-7.09-2.28-11.21-7.2-11.21a7.43,7.43,0,0,0-7,5.3,13,13,0,0,0-.55,3.87V406H546.09V378.56c0-6.16-2.2-10.35-7.05-10.35-3.91,0-6.22,3-7.13,5.46a11.16,11.16,0,0,0-.57,3.86V406H516.53Z"/><path class="cls-15" d="M602.13,406c.21-3.24.4-9.06.4-14.62V335h15.22v27.89h.2c2.9-4.21,8-6.94,14.77-6.94,11.76,0,20.31,9.72,20.19,24.72,0,17.62-11.17,26.43-22.38,26.43-5.72,0-11.23-2.12-14.64-7.92h-.21L615,406Zm15.62-20.77a12.86,12.86,0,0,0,.26,2.67,9.32,9.32,0,0,0,9,7.25c6.46,0,10.5-5,10.5-13.84,0-7.62-3.41-13.62-10.47-13.62a9.32,9.32,0,0,0-8.94,7.51,13.22,13.22,0,0,0-.31,2.81Z"/><path class="cls-15" d="M674.36,386.42c.45,6.31,6.69,9.31,13.79,9.31a40.84,40.84,0,0,0,13.47-2.07l2,10.3a47.54,47.54,0,0,1-17.73,3.09c-16.58,0-26.1-9.66-26.1-24.91,0-12.44,7.75-26.19,24.67-26.19,15.86,0,21.85,12.33,21.85,24.44a29.26,29.26,0,0,1-.54,6ZM692.22,376c0-3.66-1.61-9.92-8.53-9.92-6.43,0-9,5.87-9.46,9.92Z"/><path class="cls-15" d="M715.42,373.19c0-7.19-.13-11.92-.4-16.14H728.1l.55,9.06H729C731.54,359,737.5,356,742.24,356a13.53,13.53,0,0,1,3.25.28v14.31a19.34,19.34,0,0,0-4.11-.42c-5.59,0-9.41,3-10.43,7.73a17.24,17.24,0,0,0-.29,3.38V406H715.42Z"/><path class="cls-15" d="M787.33,338.6h15.24v42.63c0,19.13-9.2,25.87-24,25.87a38.15,38.15,0,0,1-11.16-1.61l1.71-12.26a27.12,27.12,0,0,0,7.78,1.17c6.39,0,10.42-2.87,10.42-13.35Z"/><path class="cls-15" d="M862.81,381c0,17.88-12.67,26.06-25.8,26.06-14.24,0-25.27-9.41-25.27-25.22S822.16,356,837.89,356C852.85,356,862.81,366.26,862.81,381Zm-35.39.5c0,8.35,3.53,14.69,10,14.69,5.94,0,9.69-5.94,9.69-14.77,0-7.22-2.78-14.64-9.67-14.64C830.19,366.82,827.42,374.28,827.42,381.54Z"/><path class="cls-15" d="M887.9,343.46c0,4.24-3.11,7.6-8.18,7.6-4.82,0-7.94-3.36-7.92-7.6s3.17-7.62,8.05-7.62S887.84,339.1,887.9,343.46ZM872.23,406V357.05h15.24V406Z"/><path class="cls-15" d="M899.63,372.69c0-6.1-.19-11.25-.4-15.64h13.19l.71,6.78h.32A17.71,17.71,0,0,1,928.57,356c10,0,17.52,6.67,17.52,21.08v29H930.85V378.87c0-6.31-2.25-10.62-7.74-10.62-4.18,0-6.66,2.93-7.71,5.74a11,11,0,0,0-.53,3.77V406H899.63Z"/><path class="cls-15" d="M970,386.42c.46,6.31,6.7,9.31,13.8,9.31a40.88,40.88,0,0,0,13.47-2.07l2,10.3a47.54,47.54,0,0,1-17.73,3.09c-16.58,0-26.11-9.66-26.11-24.91,0-12.44,7.76-26.19,24.68-26.19C996,356,1002,368.28,1002,380.39a29.26,29.26,0,0,1-.54,6ZM987.82,376c0-3.66-1.61-9.92-8.54-9.92-6.43,0-9,5.87-9.45,9.92Z"/><path class="cls-15" d="M1058.43,335v56.38c0,5.56.19,11.34.4,14.62H1045.3l-.64-7.17h-.21c-3.08,5.49-9,8.27-15.32,8.27-11.55,0-20.9-9.92-20.9-25.13-.07-16.44,10.25-26,21.91-26,6,0,10.68,2.15,12.87,5.53h.2V335Zm-15.22,42.83a16.1,16.1,0,0,0-.2-2.76,9,9,0,0,0-8.82-7.44c-7,0-10.51,6.18-10.51,13.9,0,8.23,4.06,13.44,10.4,13.44a9,9,0,0,0,8.8-7.29,14.6,14.6,0,0,0,.33-3.45Z"/><rect class="cls-16" x="582" y="668" width="1110" height="86" rx="15"/><path class="cls-15" d="M634.07,712.14H616.29V726h19.88v7.09H607.66V685.88h27.47V693H616.29v12.14h17.78Z"/><path class="cls-15" d="M643.56,683.36h8.63v49.71h-8.63Z"/><path class="cls-15" d="M680.72,733.07l-.59-3.8h-.21a12.44,12.44,0,0,1-10,4.57c-6.91,0-10.74-4.94-10.74-10.14,0-8.6,7.66-13,20.21-12.9v-.57c0-2.24-.89-6-6.92-5.94a18.21,18.21,0,0,0-9.16,2.54l-1.71-5.59a24.72,24.72,0,0,1,12.35-3c10.94,0,14.06,6.89,14.06,14.37v12.27a50.62,50.62,0,0,0,.53,8.21Zm-1.14-16.69c-6.08-.08-11.9,1.2-11.9,6.39a4.56,4.56,0,0,0,4.92,4.91,7,7,0,0,0,6.74-4.72,6.32,6.32,0,0,0,.24-1.87Z"/><path class="cls-15" d="M697.1,709.94c0-4.56-.09-7.92-.28-11h7.47l.31,6.47h.25c1.68-4.8,5.65-7.24,9.33-7.24a8.43,8.43,0,0,1,2,.18v8.12a12.07,12.07,0,0,0-2.53-.24A7.59,7.59,0,0,0,706,712.8a13.82,13.82,0,0,0-.22,2.59v17.68H697.1Z"/><path class="cls-15" d="M740.57,733.07l-.59-3.8h-.21a12.44,12.44,0,0,1-10,4.57c-6.91,0-10.74-4.94-10.74-10.14,0-8.6,7.66-13,20.21-12.9v-.57c0-2.24-.89-6-6.92-5.94a18.21,18.21,0,0,0-9.16,2.54l-1.71-5.59a24.72,24.72,0,0,1,12.35-3c10.93,0,14,6.89,14,14.37v12.27a50.5,50.5,0,0,0,.54,8.21Zm-1.14-16.69c-6.08-.08-11.9,1.2-11.9,6.39a4.56,4.56,0,0,0,4.92,4.91,7,7,0,0,0,6.74-4.72,6.32,6.32,0,0,0,.24-1.87Z"/><path class="cls-15" d="M758.81,733.07,760.62,720h-5.73v-5.43h6.62l1.23-8.88h-6V700.3h6.78l1.79-12.74h5.26l-1.77,12.74h6.82l1.79-12.74h5.28l-1.77,12.74h5.67v5.41h-6.49l-1.19,8.88h5.89V720H778l-1.77,13.07H770.9L772.71,720h-6.77l-1.77,13.07Zm14.79-18.48,1.19-8.88H768l-1.18,8.88Z"/><path class="cls-15" d="M805.64,695.35h-.14l-8.31,4.18-1.5-6.5,11.11-5.47H814v45.51h-8.34Z"/><path class="cls-15" d="M843.16,695.35H843l-8.31,4.18-1.5-6.5,11.11-5.47h7.18v45.51h-8.34Z"/><path class="cls-15" d="M894.88,693.68a27,27,0,0,0-4.38.22c-9.55,1.11-14.14,6.94-15.26,13.26h.19a13.16,13.16,0,0,1,10.25-4.37c7.84,0,13.94,5.59,13.94,14.79,0,8.72-6.37,16.26-16,16.26-11,0-17.16-8.38-17.16-19.64,0-8.75,3.16-15.86,7.9-20.39,4.18-3.95,9.7-6.21,16.19-6.72a27.6,27.6,0,0,1,4.36-.18Zm-4,24.38c0-5.26-2.9-9-7.92-9a8.35,8.35,0,0,0-7.45,4.73,5.83,5.83,0,0,0-.55,2.7c.15,6,3,10.93,8.56,10.93C888,727.41,890.87,723.53,890.87,718.06Z"/><path class="cls-15" d="M904.72,733.07v-5.23l5.4-5c10.7-9.9,15.75-15.36,15.81-21.37,0-4.12-2.19-7.66-8.13-7.66-4,0-7.45,2-9.72,3.79l-2.52-6.12a22.7,22.7,0,0,1,14-4.67c10.08,0,15,6.35,15,13.79,0,8-5.75,14.43-13.7,21.78l-3.94,3.45V726h18.64v7.12Z"/><path class="cls-15" d="M972.78,684.58c-4.47,6.66-7.85,15.88-7.85,28.49,0,12.4,3.47,21.54,7.85,28.28h-6.24c-4-5.6-8.51-14.74-8.51-28.31s4.46-22.82,8.51-28.46Z"/><path class="cls-15" d="M996.74,733.07V721.5h-20.6v-5.61l18.58-28.33h10.16V715h5.86v6.53h-5.86v11.57Zm0-18.1V702.59c0-2.57.12-5.19.27-7.88l-.24,0c-1.44,2.86-2.62,5.18-4,7.69l-8.33,12.45,0,.14Z"/><path class="cls-15" d="M1044.24,694.71h-17.51l-1.32,9.09a25.68,25.68,0,0,1,3.28-.19,20.32,20.32,0,0,1,11,2.91c3.47,2.18,6,6.05,6,11.56,0,8.67-7.17,15.76-18.36,15.76a26,26,0,0,1-12.08-2.68l1.77-6.52a23,23,0,0,0,10,2.4c5,0,9.86-2.88,9.84-8.29,0-5.2-3.84-8.67-12.92-8.67a43.71,43.71,0,0,0-6.22.44l2.95-23h23.58Z"/><path class="cls-15" d="M1081.76,694.71h-17.51l-1.32,9.09a25.68,25.68,0,0,1,3.28-.19,20.32,20.32,0,0,1,11,2.91c3.47,2.18,6,6.05,6,11.56,0,8.67-7.17,15.76-18.36,15.76a26,26,0,0,1-12.08-2.68l1.77-6.52a23,23,0,0,0,10,2.4c5,0,9.86-2.88,9.84-8.29,0-5.2-3.84-8.67-12.92-8.67a43.71,43.71,0,0,0-6.22.44l3-23h23.58Z"/><path class="cls-15" d="M1103.84,695.35h-.14l-8.32,4.18-1.5-6.5,11.11-5.47h7.18v45.51h-8.33Z"/><path class="cls-15" d="M1155.56,693.68a27,27,0,0,0-4.38.22c-9.56,1.11-14.14,6.94-15.27,13.26h.19a13.18,13.18,0,0,1,10.26-4.37c7.84,0,13.94,5.59,13.94,14.79,0,8.72-6.37,16.26-16,16.26-11,0-17.17-8.38-17.17-19.64,0-8.75,3.16-15.86,7.91-20.39,4.18-3.95,9.69-6.21,16.19-6.72a27.56,27.56,0,0,1,4.36-.18Zm-4,24.38c0-5.26-2.9-9-7.93-9a8.37,8.37,0,0,0-7.45,4.73,5.83,5.83,0,0,0-.55,2.7c.16,6,3,10.93,8.57,10.93C1148.64,727.41,1151.55,723.53,1151.55,718.06Z"/><path class="cls-15" d="M1193.08,693.68a27,27,0,0,0-4.38.22c-9.56,1.11-14.15,6.94-15.27,13.26h.19a13.18,13.18,0,0,1,10.26-4.37c7.84,0,13.94,5.59,13.94,14.79,0,8.72-6.37,16.26-16,16.26-11,0-17.17-8.38-17.17-19.64,0-8.75,3.16-15.86,7.91-20.39,4.17-3.95,9.69-6.21,16.19-6.72a27.56,27.56,0,0,1,4.36-.18Zm-4,24.38c0-5.26-2.9-9-7.93-9a8.37,8.37,0,0,0-7.45,4.73,5.83,5.83,0,0,0-.55,2.7c.16,6,3,10.93,8.57,10.93C1186.16,727.41,1189.07,723.53,1189.07,718.06Z"/><path class="cls-15" d="M1202.92,733.07v-5.23l5.39-5c10.71-9.9,15.76-15.36,15.81-21.37,0-4.12-2.18-7.66-8.13-7.66-4,0-7.44,2-9.71,3.79l-2.53-6.12a22.73,22.73,0,0,1,14-4.67c10.09,0,15,6.35,15,13.79,0,8-5.75,14.43-13.71,21.78l-3.93,3.45V726h18.64v7.12Z"/><path class="cls-15" d="M1271.69,687.56v5.51l-19.24,40h-9.06l19.18-38.25v-.14h-21.48v-7.12Z"/><path class="cls-15" d="M1278,733.07v-5.23l5.39-5c10.71-9.9,15.76-15.36,15.82-21.37,0-4.12-2.19-7.66-8.14-7.66-4,0-7.44,2-9.71,3.79l-2.53-6.12a22.73,22.73,0,0,1,14-4.67c10.09,0,15,6.35,15,13.79,0,8-5.75,14.43-13.71,21.78l-3.93,3.45V726h18.64v7.12Z"/><path class="cls-15" d="M1317.19,724.17a22.92,22.92,0,0,0,10.36,2.79c6.58,0,9.23-3.7,9.21-7.29,0-5.36-5.09-7.69-10.34-7.7h-3.94v-6.29h3.84c4,0,9-1.8,9-6.33,0-3.14-2.26-5.7-7.28-5.7a18.48,18.48,0,0,0-9.31,2.85l-2-6.23c2.59-1.76,7.66-3.48,13.1-3.48,9.41,0,14.2,5.2,14.2,11.14,0,4.75-2.81,8.64-8.36,10.63v.14c5.52,1,10,5.19,10,11.35,0,7.68-6.47,13.79-17.71,13.79-5.55,0-10.28-1.55-12.73-3.15Z"/><path class="cls-15" d="M1354.71,724.17a22.92,22.92,0,0,0,10.36,2.79c6.58,0,9.23-3.7,9.21-7.29,0-5.36-5.09-7.69-10.34-7.7H1360v-6.29h3.84c4,0,9-1.8,9-6.33,0-3.14-2.26-5.7-7.28-5.7a18.48,18.48,0,0,0-9.31,2.85l-2-6.23c2.59-1.76,7.66-3.48,13.1-3.48,9.41,0,14.19,5.2,14.19,11.14,0,4.75-2.8,8.64-8.35,10.63v.14c5.52,1,10,5.19,10,11.35,0,7.68-6.47,13.79-17.71,13.79-5.55,0-10.28-1.55-12.73-3.15Z"/><path class="cls-15" d="M1394,726.89a24.09,24.09,0,0,0,4.77-.12,17.11,17.11,0,0,0,9.23-3.5,16.38,16.38,0,0,0,5.84-10.09l-.17,0c-2.27,2.54-5.53,4-9.88,4-7.91,0-13.82-5.71-13.82-14.08a16.12,16.12,0,0,1,16.43-16.28c10.61,0,16.23,8.33,16.23,19.42,0,9.72-3.17,16.65-7.92,21.14a24.9,24.9,0,0,1-15.52,6.21,30.81,30.81,0,0,1-5.19.16Zm4.54-24.34c0,4.7,2.73,8.35,7.49,8.35a8.32,8.32,0,0,0,7.3-3.79,4.93,4.93,0,0,0,.52-2.48c0-6.17-2.29-11.43-7.86-11.43C1401.61,693.2,1398.49,697.05,1398.51,702.55Z"/><path class="cls-15" d="M1441.52,695.35h-.14l-8.32,4.18-1.5-6.5,11.11-5.47h7.18v45.51h-8.33Z"/><path class="cls-15" d="M1464.93,721.35c0-5.62,3.28-9.5,8.51-11.8v-.19c-4.72-2.31-6.89-6.11-6.89-10.09,0-7.47,6.56-12.48,15.17-12.48,9.83,0,14.25,5.87,14.25,11.46,0,3.9-2,7.89-7,10.31v.19c5,2,8.72,5.82,8.72,11.52,0,8.12-6.86,13.57-16.6,13.57C1470.44,733.84,1464.93,727.73,1464.93,721.35Zm24-.37c0-4.64-3.38-7.15-8.45-8.55-4.3,1.21-6.72,4.19-6.72,7.94s2.83,7.41,7.65,7.41C1485.93,727.78,1488.9,724.88,1488.9,721Zm-14.19-22.1c0,3.75,3,6,7.42,7.2,3.1-1,5.66-3.48,5.66-6.91,0-3.17-1.87-6.44-6.52-6.44C1477,692.73,1474.71,695.59,1474.71,698.88Z"/><path class="cls-15" d="M1516.56,695.35h-.14l-8.32,4.18-1.5-6.5,11.11-5.47h7.18v45.51h-8.33Z"/><path class="cls-15" d="M1569.51,694.71H1552l-1.33,9.09a25.79,25.79,0,0,1,3.28-.19,20.29,20.29,0,0,1,11,2.91c3.47,2.18,6,6.05,6,11.56,0,8.67-7.18,15.76-18.37,15.76a26.05,26.05,0,0,1-12.08-2.68l1.77-6.52a23,23,0,0,0,10,2.4c5,0,9.87-2.88,9.84-8.29,0-5.2-3.84-8.67-12.91-8.67a43.59,43.59,0,0,0-6.22.44l3-23h23.57Z"/><path class="cls-15" d="M1577.49,721.35c0-5.62,3.28-9.5,8.51-11.8v-.19c-4.72-2.31-6.9-6.11-6.9-10.09,0-7.47,6.57-12.48,15.18-12.48,9.83,0,14.25,5.87,14.25,11.46,0,3.9-2,7.89-7,10.31v.19c5,2,8.72,5.82,8.72,11.52,0,8.12-6.86,13.57-16.6,13.57C1583,733.84,1577.49,727.73,1577.49,721.35Zm24-.37c0-4.64-3.38-7.15-8.45-8.55-4.3,1.21-6.72,4.19-6.72,7.94s2.83,7.41,7.65,7.41C1598.49,727.78,1601.46,724.88,1601.46,721Zm-14.19-22.1c0,3.75,3,6,7.42,7.2,3.1-1,5.66-3.48,5.66-6.91,0-3.17-1.87-6.44-6.52-6.44C1589.54,692.73,1587.27,695.59,1587.27,698.88Z"/><path class="cls-15" d="M1619.09,726.89a24.09,24.09,0,0,0,4.77-.12,17.11,17.11,0,0,0,9.23-3.5,16.38,16.38,0,0,0,5.84-10.09l-.17,0c-2.27,2.54-5.53,4-9.88,4-7.91,0-13.83-5.71-13.83-14.08a16.13,16.13,0,0,1,16.44-16.28c10.6,0,16.23,8.33,16.23,19.42,0,9.72-3.17,16.65-7.92,21.14a24.93,24.93,0,0,1-15.53,6.21,30.67,30.67,0,0,1-5.18.16Zm4.54-24.34c0,4.7,2.72,8.35,7.49,8.35a8.32,8.32,0,0,0,7.3-3.79,4.93,4.93,0,0,0,.52-2.48c0-6.17-2.29-11.43-7.86-11.43C1626.73,693.2,1623.61,697.05,1623.63,702.55Z"/><path class="cls-15" d="M1652.09,741.35c4.37-6.68,7.84-16,7.84-28.44s-3.42-21.61-7.84-28.33h6.23c4,5.54,8.52,14.65,8.52,28.36s-4.47,22.71-8.52,28.41Z"/><rect class="cls-17" x="589" y="495.78" width="238.76" height="88.22" rx="15"/><path class="cls-15" d="M636.83,567.79a29.82,29.82,0,0,1-14.4,3.22c-13.29,0-24.54-9.68-24.54-25.27,0-16.64,11.58-31.06,29.57-31.06,14.11,0,23.52,9.89,23.52,23.36,0,12.14-6.79,19.27-14.36,19.27-3.24,0-6.23-2.13-6-7.11h-.25c-2.87,4.78-6.59,7.11-11.47,7.11-4.69,0-8.72-3.8-8.72-10.17a19.13,19.13,0,0,1,19.16-19.21,21.42,21.42,0,0,1,8.7,1.7l-2.75,14.66c-1.2,6.16-.29,9,2.42,9.07,4.16.12,8.76-5.4,8.76-14.77,0-11.77-7.06-20.17-19.65-20.17-13.19,0-24.26,10.44-24.26,26.88,0,13.47,8.83,21.86,20.78,21.86a25.32,25.32,0,0,0,12.25-2.88Zm-4.39-34.95a12.23,12.23,0,0,0-4.06-.63c-7.14,0-12.92,6.75-12.92,14.61,0,3.58,1.82,6.14,5.37,6.14,4.68,0,9-6,9.88-11Z"/><path class="cls-15" d="M688.45,537H667.3v19.71H691v5.86H660.22V508h29.49v5.87H667.3v17.28h21.15Z"/><path class="cls-15" d="M699.75,505.13h7.08v57.46h-7.08Z"/><path class="cls-15" d="M740.55,562.59l-.63-4.94h-.21a14.54,14.54,0,0,1-12,5.83c-7.91,0-12-5.61-12-11.23,0-9.48,8.4-14.69,23.52-14.58v-.83c0-3.18-.89-9.07-8.91-9a19,19,0,0,0-10.19,2.92L718.58,526a24.53,24.53,0,0,1,12.92-3.44c12,0,14.88,8.18,14.88,16v14.65a60.93,60.93,0,0,0,.59,9.36Zm-1.11-20c-7.7-.17-16.52,1.22-16.52,8.79,0,4.67,3.08,6.81,6.65,6.81a9.81,9.81,0,0,0,9.54-6.55,7.6,7.6,0,0,0,.33-2.24Z"/><path class="cls-15" d="M757.85,535.64c0-4.62-.12-8.56-.33-12.19h6.24l.27,7.68h.26c1.82-5.25,6.14-8.57,10.9-8.57a8.2,8.2,0,0,1,2,.2v6.7a11.57,11.57,0,0,0-2.43-.21c-5,0-8.56,3.78-9.52,9.11a18.24,18.24,0,0,0-.29,3.32v20.91h-7.08Z"/><path class="cls-15" d="M805.62,562.59l-.62-4.94h-.22a14.54,14.54,0,0,1-12,5.83c-7.91,0-12-5.61-12-11.23,0-9.48,8.41-14.69,23.53-14.58v-.83c0-3.18-.9-9.07-8.92-9a19,19,0,0,0-10.19,2.92L783.65,526a24.53,24.53,0,0,1,12.92-3.44c12,0,14.88,8.18,14.88,16v14.65a60.93,60.93,0,0,0,.59,9.36Zm-1.1-20c-7.71-.17-16.53,1.22-16.53,8.79,0,4.67,3.08,6.81,6.65,6.81a9.81,9.81,0,0,0,9.54-6.55,7.31,7.31,0,0,0,.34-2.24Z"/><path class="cls-15" d="M596.62,1605h-7.7v-4.14h20.4V1605h-7.77v22.82h-4.93Z"/><path class="cls-15" d="M627.69,1617.9c0,7.16-5,10.37-10,10.37-5.49,0-9.74-3.79-9.74-10,0-6.39,4.2-10.32,10.07-10.32S627.69,1612,627.69,1617.9Zm-14.68.21c0,3.75,1.87,6.58,4.84,6.58,2.82,0,4.78-2.72,4.78-6.64,0-3.06-1.35-6.56-4.75-6.56S613,1614.87,613,1618.11Z"/><path class="cls-15" d="M649.77,1599.43v22.94c0,2,.07,4.14.16,5.46h-4.38l-.22-3.08h-.09a7,7,0,0,1-6.32,3.52c-4.65,0-8.33-4-8.33-10,0-6.53,4-10.4,8.72-10.4,2.67,0,4.59,1.1,5.46,2.54h.08v-11Zm-4.92,17a6.31,6.31,0,0,0-.11-1.29,4.33,4.33,0,0,0-4.23-3.45c-3.18,0-4.93,2.79-4.93,6.4s1.77,6.2,4.87,6.2a4.37,4.37,0,0,0,4.25-3.51,5.92,5.92,0,0,0,.15-1.43Z"/><path class="cls-15" d="M666,1627.83l-.34-2.17h-.12a7.14,7.14,0,0,1-5.74,2.61,5.76,5.76,0,0,1-6.13-5.79c0-4.92,4.37-7.4,11.54-7.38v-.32c0-1.28-.5-3.4-4-3.39a10.31,10.31,0,0,0-5.23,1.45l-1-3.19a14,14,0,0,1,7.06-1.73c6.24,0,8,3.93,8,8.21v7a28.67,28.67,0,0,0,.3,4.69Zm-.66-9.54c-3.47,0-6.79.69-6.79,3.65a2.6,2.6,0,0,0,2.8,2.81,4,4,0,0,0,3.86-2.7,3.92,3.92,0,0,0,.13-1.07Z"/><path class="cls-15" d="M678.07,1608.36l3.51,10.43c.39,1.21.81,2.7,1.1,3.78h.11c.3-1.09.67-2.56,1-3.82l3-10.39h5.25l-4.88,13.28c-2.67,7.27-4.47,10.5-6.77,12.52a10.15,10.15,0,0,1-5.16,2.49l-1.11-4.14a8.92,8.92,0,0,0,2.84-1.35,8.45,8.45,0,0,0,2.71-3.1,1.92,1.92,0,0,0,.3-.87,2.42,2.42,0,0,0-.25-1l-7.16-17.87Z"/><path class="cls-15" d="M714.23,1627.83l-.34-2.17h-.12a7.14,7.14,0,0,1-5.74,2.61,5.76,5.76,0,0,1-6.13-5.79c0-4.92,4.37-7.4,11.54-7.38v-.32c0-1.28-.5-3.4-4-3.39a10.31,10.31,0,0,0-5.23,1.45l-1-3.19a14,14,0,0,1,7.06-1.73c6.24,0,8,3.93,8,8.21v7a28.55,28.55,0,0,0,.31,4.69Zm-.66-9.54c-3.47,0-6.79.69-6.79,3.65a2.6,2.6,0,0,0,2.8,2.81,4,4,0,0,0,3.86-2.7,3.92,3.92,0,0,0,.13-1.07Z"/><path class="cls-15" d="M729,1602.78v5.58h4.68V1612H729v8.59c0,2.38.63,3.59,2.51,3.59a7.92,7.92,0,0,0,1.92-.21l.1,3.74a11,11,0,0,1-3.59.51,5.7,5.7,0,0,1-4.23-1.61c-1.06-1.12-1.54-2.91-1.54-5.46V1612h-2.78v-3.67h2.78V1604Z"/><path class="cls-15" d="M760.56,1605.33a15.18,15.18,0,0,0-2.5.12c-5.46.63-8.08,4-8.72,7.57h.11a7.53,7.53,0,0,1,5.86-2.49c4.48,0,8,3.19,8,8.45a9,9,0,0,1-9.17,9.29c-6.3,0-9.8-4.79-9.8-11.22a15.87,15.87,0,0,1,4.51-11.65,14.8,14.8,0,0,1,9.25-3.84,16.78,16.78,0,0,1,2.49-.1Zm-2.29,13.92c0-3-1.65-5.14-4.53-5.14a4.77,4.77,0,0,0-4.25,2.7,3.31,3.31,0,0,0-.32,1.54c.09,3.44,1.71,6.24,4.9,6.24C756.61,1624.59,758.27,1622.38,758.27,1619.25Z"/><path class="cls-15" d="M766.51,1611.68a3,3,0,1,1,6,0,3,3,0,1,1-6,0Zm0,13.46a3,3,0,1,1,3,3.13A3,3,0,0,1,766.51,1625.14Z"/><path class="cls-15" d="M783.33,1606.28h-.08l-4.75,2.39-.86-3.71,6.35-3.13h4.1v26h-4.76Z"/><path class="cls-15" d="M813.59,1605.91h-10l-.76,5.2a14.42,14.42,0,0,1,1.88-.11,11.51,11.51,0,0,1,6.29,1.66,7.45,7.45,0,0,1,3.4,6.6c0,5-4.09,9-10.49,9a14.91,14.91,0,0,1-6.9-1.53l1-3.73a13.14,13.14,0,0,0,5.73,1.38c2.87,0,5.63-1.65,5.62-4.74s-2.2-5-7.38-5a24.47,24.47,0,0,0-3.55.25l1.68-13.12h13.47Z"/><path class="cls-15" d="M833.28,1620.21l-2.3,7.62h-5.09l8.65-27h6.27l8.76,27h-5.28l-2.44-7.62Zm7.75-3.72-2.12-6.65c-.52-1.67-1-3.5-1.37-5.06h-.09c-.39,1.58-.8,3.44-1.28,5l-2.08,6.66Z"/><path class="cls-15" d="M876,1616.83c-.16-3.48-.34-7.67-.32-11.34h-.11c-.89,3.31-2,6.94-3.18,10.35l-4,11.67h-3.78L861,1616c-1-3.46-2-7.12-2.72-10.51h-.09c-.12,3.53-.28,7.84-.49,11.5l-.6,10.84h-4.59l1.8-27h6.47l3.51,10.83c1,3.18,1.83,6.38,2.48,9.38h.12c.72-2.94,1.65-6.23,2.69-9.4l3.74-10.81h6.39l1.55,27h-4.8Z"/><rect class="cls-16" x="323" y="871" width="1161" height="85" rx="15"/><path class="cls-15" d="M443,935.22c-2,1-6.53,2.14-12.24,2.14-15,0-24.09-9.4-24.09-23.77,0-15.52,10.84-24.89,25.26-24.89,5.68,0,9.69,1.15,11.43,2.09l-1.87,6.87a22.41,22.41,0,0,0-9.2-1.85c-9.62,0-16.54,6-16.54,17.35,0,10.4,6.06,17,16.42,17a25.27,25.27,0,0,0,9.41-1.71Z"/><path class="cls-15" d="M449.73,913.5c0-4.57-.1-7.92-.28-11h7.46l.32,6.48h.24c1.68-4.8,5.65-7.25,9.33-7.25a7.88,7.88,0,0,1,2,.19v8.11a11.9,11.9,0,0,0-2.52-.24,7.59,7.59,0,0,0-7.73,6.52,14.75,14.75,0,0,0-.22,2.6v17.67h-8.62Z"/><path class="cls-15" d="M480.09,922c.23,6.18,5,8.88,10.53,8.88a25.84,25.84,0,0,0,9.4-1.58l1.28,5.93a30.81,30.81,0,0,1-11.91,2.17c-11.07,0-17.55-6.84-17.55-17.28,0-9.41,5.71-18.31,16.67-18.31s14.68,9.11,14.68,16.57a18.39,18.39,0,0,1-.3,3.62Zm15-6c0-3.16-1.34-8.31-7.11-8.31-5.3,0-7.51,4.82-7.89,8.31Z"/><path class="cls-15" d="M529.32,936.62l-.59-3.8h-.21a12.46,12.46,0,0,1-10,4.57c-6.92,0-10.75-4.94-10.75-10.14,0-8.6,7.66-13,20.22-12.9v-.56c0-2.24-.89-6-6.92-5.95a18.18,18.18,0,0,0-9.17,2.55l-1.7-5.6a24.66,24.66,0,0,1,12.35-3c10.93,0,14,6.89,14,14.37v12.27a50.54,50.54,0,0,0,.53,8.21Zm-1.15-16.69c-6.08-.08-11.89,1.2-11.89,6.39a4.55,4.55,0,0,0,4.91,4.91,7,7,0,0,0,6.74-4.72,6.32,6.32,0,0,0,.24-1.87Z"/><path class="cls-15" d="M555.14,892.78v9.76h8.2V909h-8.2v15c0,4.17,1.12,6.29,4.41,6.29a12.88,12.88,0,0,0,3.35-.38l.17,6.56a19.12,19.12,0,0,1-6.27.89,10,10,0,0,1-7.41-2.81c-1.85-2-2.69-5.1-2.69-9.56V909h-4.86v-6.42h4.86v-7.72Z"/><path class="cls-15" d="M575.5,922c.23,6.18,5,8.88,10.53,8.88a25.84,25.84,0,0,0,9.4-1.58l1.28,5.93a30.81,30.81,0,0,1-11.91,2.17c-11.07,0-17.55-6.84-17.55-17.28,0-9.41,5.71-18.31,16.67-18.31s14.68,9.11,14.68,16.57a18.39,18.39,0,0,1-.3,3.62Zm15-6c0-3.16-1.34-8.31-7.11-8.31-5.3,0-7.51,4.82-7.89,8.31Z"/><path class="cls-15" d="M637,886.92v40.14c0,3.5.13,7.25.28,9.56h-7.67l-.39-5.39H629c-2,3.81-6.15,6.16-11.07,6.16-8.14,0-14.58-6.94-14.58-17.42,0-11.42,7.08-18.2,15.28-18.2,4.66,0,8,1.92,9.55,4.44h.14V886.92Zm-8.61,29.82a12.28,12.28,0,0,0-.19-2.25,7.58,7.58,0,0,0-7.41-6c-5.56,0-8.63,4.89-8.63,11.21s3.1,10.84,8.53,10.84a7.64,7.64,0,0,0,7.44-6.13,10.54,10.54,0,0,0,.26-2.52Z"/><path class="cls-15" d="M645.17,908.35a5.21,5.21,0,0,1,5.31-5.52c3.15,0,5.25,2.27,5.28,5.52a5.3,5.3,0,1,1-10.59,0Zm0,23.57a5.21,5.21,0,0,1,5.31-5.52c3.15,0,5.25,2.26,5.28,5.52a5.3,5.3,0,1,1-10.59,0Z"/><path class="cls-15" d="M707.74,913.56c0,14.66-5.73,23.83-16.63,23.83-10.48,0-16.05-9.55-16.14-23.39,0-14.16,6-23.65,16.65-23.65C702.62,890.35,707.74,900.17,707.74,913.56Zm-24.13.42c0,11.1,3,16.84,7.77,16.84,5.11,0,7.71-6.16,7.71-17.07,0-10.6-2.49-16.8-7.7-16.8C686.83,897,683.6,902.61,683.61,914Z"/><path class="cls-15" d="M726.62,898.9h-.14l-8.32,4.18-1.5-6.5,11.11-5.46H735v45.5h-8.33Z"/><path class="cls-15" d="M748.21,939.42l17-50.75h6l-17.09,50.75Z"/><path class="cls-15" d="M806.37,913.56c0,14.66-5.73,23.83-16.63,23.83-10.48,0-16-9.55-16.14-23.39,0-14.16,6-23.65,16.65-23.65C801.25,890.35,806.37,900.17,806.37,913.56Zm-24.13.42c0,11.1,3,16.84,7.77,16.84,5.11,0,7.71-6.16,7.71-17.07,0-10.6-2.49-16.8-7.7-16.8C785.46,897,782.23,902.61,782.24,914Z"/><path class="cls-15" d="M811.76,936.62v-5.23l5.4-5C827.86,916.47,832.91,911,833,905c0-4.11-2.18-7.66-8.13-7.66-4,0-7.44,2-9.71,3.79L812.6,895a22.72,22.72,0,0,1,14-4.66c10.09,0,15,6.34,15,13.78,0,8-5.75,14.43-13.71,21.78L824,929.36v.14H842.6v7.12Z"/><path class="cls-15" d="M846.84,939.42l17-50.75h6l-17.09,50.75Z"/><path class="cls-15" d="M872.87,936.62v-5.23l5.4-5C889,916.47,894,911,894.08,905c0-4.11-2.18-7.66-8.13-7.66-4,0-7.44,2-9.72,3.79L873.71,895a22.7,22.7,0,0,1,14-4.66c10.09,0,15,6.34,15,13.78,0,8-5.75,14.43-13.71,21.78l-3.94,3.45v.14h18.65v7.12Z"/><path class="cls-15" d="M942.52,913.56c0,14.66-5.73,23.83-16.64,23.83-10.47,0-16-9.55-16.14-23.39,0-14.16,6-23.65,16.66-23.65C937.4,890.35,942.52,900.17,942.52,913.56Zm-24.13.42c0,11.1,3,16.84,7.77,16.84,5.11,0,7.71-6.16,7.71-17.07,0-10.6-2.49-16.8-7.7-16.8C921.6,897,918.38,902.61,918.39,914Z"/><path class="cls-15" d="M947.91,936.62v-5.23l5.4-5C964,916.47,969.06,911,969.12,905c0-4.11-2.19-7.66-8.13-7.66-4,0-7.45,2-9.72,3.79L948.75,895a22.7,22.7,0,0,1,14-4.66c10.09,0,15,6.34,15,13.78,0,8-5.74,14.43-13.7,21.78l-3.94,3.45v.14h18.65v7.12Z"/><path class="cls-15" d="M1017.55,913.56c0,14.66-5.72,23.83-16.63,23.83-10.47,0-16-9.55-16.14-23.39,0-14.16,6-23.65,16.65-23.65C1012.44,890.35,1017.55,900.17,1017.55,913.56Zm-24.12.42c0,11.1,3,16.84,7.77,16.84,5.11,0,7.71-6.16,7.71-17.07,0-10.6-2.49-16.8-7.7-16.8C996.64,897,993.42,902.61,993.43,914Z"/><path class="cls-15" d="M1020.5,945.1a109.2,109.2,0,0,0,4.69-18.48l9-.7a91.79,91.79,0,0,1-7.86,18.63Z"/><path class="cls-15" d="M1085.21,891.12v5.51l-19.24,40h-9.06l19.18-38.25v-.14h-21.48v-7.11Z"/><path class="cls-15" d="M1092,908.35a5.21,5.21,0,0,1,5.31-5.52c3.15,0,5.25,2.27,5.28,5.52a5.3,5.3,0,1,1-10.59,0Zm0,23.57a5.21,5.21,0,0,1,5.31-5.52c3.15,0,5.25,2.26,5.28,5.52a5.3,5.3,0,1,1-10.59,0Z"/><path class="cls-15" d="M1136.92,898.26h-17.51l-1.32,9.1a23.82,23.82,0,0,1,3.28-.2,20.24,20.24,0,0,1,11,2.92c3.47,2.17,5.95,6,5.95,11.55,0,8.67-7.17,15.76-18.36,15.76a26,26,0,0,1-12.08-2.68l1.77-6.52a22.82,22.82,0,0,0,10,2.41c5,0,9.86-2.89,9.84-8.3,0-5.2-3.84-8.66-12.92-8.66a42.28,42.28,0,0,0-6.22.44l2.95-23h23.58Z"/><path class="cls-15" d="M1174.44,898.26h-17.51l-1.32,9.1a23.82,23.82,0,0,1,3.28-.2,20.24,20.24,0,0,1,11,2.92c3.47,2.17,5.95,6,5.95,11.55,0,8.67-7.17,15.76-18.36,15.76a26,26,0,0,1-12.08-2.68l1.77-6.52a22.82,22.82,0,0,0,10,2.41c5,0,9.86-2.89,9.84-8.3,0-5.2-3.84-8.66-12.92-8.66a42.28,42.28,0,0,0-6.22.44l2.95-23h23.58Z"/><path class="cls-15" d="M1199.44,890a77.78,77.78,0,0,1,13.19-1c6.3,0,10.89,1.32,13.9,3.86a13.28,13.28,0,0,1,4.62,10.45c0,4.46-1.4,8.15-4,10.68-3.47,3.44-8.81,5.08-14.92,5.08a20.94,20.94,0,0,1-4.22-.33v17.81h-8.55Zm8.55,22a17,17,0,0,0,4.22.4c6.44,0,10.38-3.21,10.38-8.74,0-5.2-3.64-8-9.61-8a25.05,25.05,0,0,0-5,.41Z"/><path class="cls-15" d="M1277.51,917.37c-.29-6.09-.6-13.42-.57-19.85h-.19c-1.56,5.79-3.53,12.15-5.57,18.12l-6.92,20.42h-6.64l-6.25-20.14c-1.85-6-3.54-12.46-4.77-18.4h-.16c-.2,6.18-.48,13.72-.84,20.14l-1,19h-8l3.14-47.18H1251l6.14,18.95c1.7,5.57,3.21,11.17,4.34,16.43h.21c1.27-5.16,2.89-10.92,4.72-16.47l6.54-18.91h11.18l2.71,47.18h-8.4Z"/><path class="cls-15" d="M1324.17,888.13c-4.46,6.66-7.84,15.88-7.84,28.5,0,12.39,3.47,21.53,7.84,28.27h-6.23c-4-5.6-8.52-14.74-8.52-28.31s4.47-22.82,8.52-28.46Z"/><path class="cls-15" d="M1331.1,890a78,78,0,0,1,13.2-1c6.3,0,10.89,1.32,13.9,3.86a13.28,13.28,0,0,1,4.62,10.45c0,4.46-1.4,8.15-4,10.68-3.47,3.44-8.81,5.08-14.92,5.08a20.94,20.94,0,0,1-4.22-.33v17.81h-8.56Zm8.56,22a16.92,16.92,0,0,0,4.22.4c6.44,0,10.38-3.21,10.38-8.74,0-5.2-3.64-8-9.61-8a25.05,25.05,0,0,0-5,.41Z"/><path class="cls-15" d="M1370.07,927.22a23.91,23.91,0,0,0,11.4,3c5.5,0,8.58-2.59,8.58-6.44,0-3.57-2.39-5.67-8.36-7.83-7.79-2.77-12.77-7-12.77-13.71,0-7.73,6.46-13.55,16.7-13.55a25.16,25.16,0,0,1,11.31,2.33l-2.06,7a20.38,20.38,0,0,0-9.43-2.24c-5.47,0-7.79,2.91-7.79,5.68,0,3.62,2.73,5.32,9,7.73,8.2,3.13,12.14,7.24,12.14,14,0,7.59-5.72,14.18-17.89,14.18-5,0-10.18-1.42-12.76-3Z"/><path class="cls-15" d="M1415.63,896.68h-13.47v-7.24h35.69v7.24h-13.6v39.94h-8.62Z"/><path class="cls-15" d="M1443.42,944.9c4.37-6.67,7.84-15.95,7.84-28.44s-3.42-21.61-7.84-28.33h6.24c4,5.55,8.51,14.65,8.51,28.37s-4.47,22.7-8.51,28.4Z"/><rect class="cls-9" x="346" y="896" width="36" height="36" rx="15"/><rect class="cls-16" x="323" y="992" width="401" height="85" rx="15"/><path class="cls-15" d="M448.93,1038.37c-.29-6.09-.6-13.42-.57-19.85h-.19c-1.56,5.79-3.53,12.15-5.57,18.12l-6.92,20.42h-6.63l-6.26-20.14c-1.85-6.05-3.53-12.46-4.77-18.4h-.16c-.2,6.18-.48,13.72-.84,20.14l-1,19h-8l3.14-47.18H422.4l6.14,19c1.7,5.57,3.21,11.17,4.34,16.43h.21c1.27-5.16,2.89-10.92,4.72-16.47l6.54-18.91h11.18l2.71,47.18h-8.4Z"/><path class="cls-15" d="M473.09,1043c.23,6.18,5,8.88,10.52,8.88a25.86,25.86,0,0,0,9.41-1.58l1.28,5.93a30.83,30.83,0,0,1-11.92,2.17c-11.06,0-17.54-6.84-17.54-17.28,0-9.41,5.7-18.31,16.67-18.31s14.68,9.11,14.68,16.57a18.39,18.39,0,0,1-.3,3.62Zm15-6c0-3.16-1.34-8.31-7.11-8.31-5.3,0-7.51,4.82-7.9,8.31Z"/><path class="cls-15" d="M503.14,1033.67c0-3.93-.12-7.18-.28-10.13h7.36l.4,5h.2a11.73,11.73,0,0,1,10.49-5.77,9.8,9.8,0,0,1,9.46,6.28h.14a13.89,13.89,0,0,1,4.17-4.28,11.79,11.79,0,0,1,6.92-2c5.64,0,11.38,3.86,11.38,14.79v20.06H545v-18.85c0-5.68-2-9-6.08-9a6.48,6.48,0,0,0-6,4.53,9.92,9.92,0,0,0-.44,2.88v20.45h-8.4v-19.71c0-4.8-1.92-8.15-5.88-8.15-3.23,0-5.39,2.53-6.2,4.86a8.71,8.71,0,0,0-.43,2.85v20.15h-8.41Z"/><path class="cls-15" d="M562.21,1057.62c.16-2.29.29-6.06.29-9.56v-40.14h8.61v20.31h.14c2.09-3.33,5.81-5.46,10.88-5.46,8.32,0,14.27,6.89,14.21,17.27,0,12.26-7.76,18.35-15.48,18.35-4.4,0-8.28-1.68-10.74-5.9H570l-.38,5.13Zm8.9-14.1a8.77,8.77,0,0,0,.22,2,7.84,7.84,0,0,0,7.6,6c5.4,0,8.67-4.3,8.67-11.18,0-6-2.89-10.93-8.58-10.93a8,8,0,0,0-7.63,6.3,9.51,9.51,0,0,0-.28,2.23Z"/><path class="cls-15" d="M609.66,1043c.23,6.18,5,8.88,10.52,8.88a25.9,25.9,0,0,0,9.41-1.58l1.27,5.93a30.74,30.74,0,0,1-11.91,2.17c-11.06,0-17.54-6.84-17.54-17.28,0-9.41,5.7-18.31,16.66-18.31s14.69,9.11,14.69,16.57a18.39,18.39,0,0,1-.3,3.62Zm15-6c0-3.16-1.34-8.31-7.11-8.31-5.31,0-7.51,4.82-7.9,8.31Z"/><path class="cls-15" d="M639.7,1034.5c0-4.57-.09-7.92-.28-11h7.47l.32,6.48h.24c1.68-4.81,5.65-7.25,9.33-7.25a7.93,7.93,0,0,1,2,.19v8.11a12.07,12.07,0,0,0-2.53-.24,7.59,7.59,0,0,0-7.72,6.52,13.86,13.86,0,0,0-.22,2.6v17.67H639.7Z"/><path class="cls-15" d="M664.21,1049.69a18.94,18.94,0,0,0,8.7,2.49c3.79,0,5.49-1.59,5.49-3.82s-1.41-3.48-5.6-5c-6.67-2.29-9.45-5.92-9.42-10,0-6,5-10.66,12.93-10.66a19.74,19.74,0,0,1,9,2l-1.71,6a15.48,15.48,0,0,0-7.21-2c-3.06,0-4.77,1.52-4.77,3.61s1.64,3.21,6,4.78c6.2,2.19,9.07,5.35,9.1,10.38,0,6.21-4.85,10.7-13.85,10.7a22.07,22.07,0,0,1-10.38-2.39Z"/><path class="cls-15" d="M692.77,1029.35a5.2,5.2,0,0,1,5.31-5.52c3.15,0,5.25,2.27,5.27,5.52a5.29,5.29,0,1,1-10.58,0Zm0,23.57a5.2,5.2,0,0,1,5.31-5.52c3.15,0,5.25,2.26,5.27,5.52a5.29,5.29,0,1,1-10.58,0Z"/><rect class="cls-9" x="346" y="1017" width="36" height="36" rx="15"/><rect class="cls-16" x="582" y="1114" width="390" height="85" rx="15"/><path class="cls-15" d="M677.14,1139.68H663.67v-7.24h35.69v7.24h-13.6v39.94h-8.62Z"/><path class="cls-15" d="M731.52,1162.24c0,12.53-8.79,18.15-17.51,18.15-9.61,0-17-6.64-17-17.56,0-11.18,7.36-18.06,17.63-18.06S731.52,1151.91,731.52,1162.24Zm-25.7.38c0,6.55,3.27,11.51,8.47,11.51,4.94,0,8.37-4.77,8.37-11.63,0-5.35-2.37-11.47-8.31-11.47S705.82,1156.93,705.82,1162.62Z"/><path class="cls-15" d="M748.48,1135.78v9.76h8.2V1152h-8.2v15c0,4.17,1.11,6.29,4.41,6.29a12.88,12.88,0,0,0,3.35-.38l.17,6.56a19.12,19.12,0,0,1-6.27.89,10,10,0,0,1-7.41-2.81c-1.85-2-2.69-5.1-2.69-9.56v-16h-4.87v-6.42H740v-7.72Z"/><path class="cls-15" d="M782.37,1179.62l-.59-3.8h-.21a12.46,12.46,0,0,1-10.05,4.57c-6.91,0-10.74-4.94-10.74-10.14,0-8.6,7.66-13,20.22-12.9v-.56c0-2.24-.89-6-6.93-6a18.14,18.14,0,0,0-9.16,2.55l-1.71-5.6a24.73,24.73,0,0,1,12.36-3c10.93,0,14.05,6.89,14.05,14.37v12.27a50.54,50.54,0,0,0,.53,8.21Zm-1.15-16.69c-6.08-.08-11.89,1.2-11.89,6.39a4.55,4.55,0,0,0,4.91,4.91,7,7,0,0,0,6.74-4.72,6.32,6.32,0,0,0,.24-1.87Z"/><path class="cls-15" d="M798.75,1129.92h8.63v49.7h-8.63Z"/><path class="cls-15" d="M815.69,1151.35a5.21,5.21,0,0,1,5.31-5.52c3.15,0,5.25,2.27,5.28,5.52a5.3,5.3,0,1,1-10.59,0Zm0,23.57a5.21,5.21,0,0,1,5.31-5.52c3.15,0,5.25,2.26,5.28,5.52a5.3,5.3,0,1,1-10.59,0Z"/><path class="cls-15" d="M846.14,1179.62v-5.23l5.39-5c10.71-9.9,15.75-15.36,15.81-21.37,0-4.11-2.18-7.66-8.13-7.66-4,0-7.44,2-9.71,3.79L847,1138a22.72,22.72,0,0,1,14-4.66c10.09,0,15,6.34,15,13.78,0,8-5.75,14.43-13.71,21.78l-3.94,3.45v.14H877v7.12Z"/><path class="cls-15" d="M897.14,1141.9H897l-8.32,4.18-1.5-6.5,11.11-5.46h7.18v45.5h-8.33Z"/><path class="cls-15" d="M921.17,1179.62v-5.23l5.4-5c10.7-9.9,15.75-15.36,15.81-21.37,0-4.11-2.18-7.66-8.13-7.66-4,0-7.44,2-9.71,3.79L922,1138a22.72,22.72,0,0,1,14-4.66c10.09,0,15,6.34,15,13.78,0,8-5.75,14.43-13.71,21.78l-3.94,3.45v.14H952v7.12Z"/><rect class="cls-9" x="605" y="1139" width="36" height="36" rx="15"/><rect class="cls-16" x="582" y="1230" width="491" height="85" rx="15"/><path class="cls-15" d="M676.7,1248.44v18.87h19.94v-18.87h8.62v47.18h-8.62V1274.8H676.7v20.82h-8.62v-47.18Z"/><path class="cls-15" d="M745.17,1285.41c0,4,.13,7.44.28,10.21h-7.53l-.41-5.15h-.2a12.37,12.37,0,0,1-10.92,5.92c-6.21,0-11.87-3.73-11.87-14.87v-20h8.63v18.54c0,5.66,1.79,9.29,6.35,9.29a7.15,7.15,0,0,0,6.58-4.6,7.45,7.45,0,0,0,.47-2.67v-20.56h8.62Z"/><path class="cls-15" d="M754.51,1271.67c0-3.93-.12-7.18-.28-10.13h7.36l.4,5h.2a11.73,11.73,0,0,1,10.49-5.77,9.8,9.8,0,0,1,9.46,6.28h.14a13.89,13.89,0,0,1,4.17-4.28,11.79,11.79,0,0,1,6.92-2c5.64,0,11.38,3.86,11.38,14.79v20.06h-8.41v-18.85c0-5.68-2-9-6.08-9a6.48,6.48,0,0,0-6,4.53,9.92,9.92,0,0,0-.44,2.88v20.45h-8.4v-19.71c0-4.8-1.92-8.15-5.88-8.15-3.23,0-5.39,2.53-6.2,4.86a8.71,8.71,0,0,0-.43,2.85v20.15h-8.41Z"/><path class="cls-15" d="M833,1295.62l-.59-3.8h-.2a12.46,12.46,0,0,1-10,4.57c-6.91,0-10.74-4.94-10.74-10.14,0-8.6,7.66-13,20.21-12.9v-.56c0-2.24-.88-6-6.92-6a18.14,18.14,0,0,0-9.16,2.55l-1.71-5.6a24.73,24.73,0,0,1,12.36-3c10.93,0,14,6.89,14,14.37v12.27a50.54,50.54,0,0,0,.53,8.21Zm-1.14-16.69c-6.08-.08-11.89,1.2-11.89,6.39a4.55,4.55,0,0,0,4.91,4.91,7,7,0,0,0,6.74-4.72,6.32,6.32,0,0,0,.24-1.87Z"/><path class="cls-15" d="M849.43,1271.67c0-3.93-.12-7.18-.28-10.13h7.53l.43,5.12h.2a12.4,12.4,0,0,1,10.86-5.89c5.94,0,12.11,3.83,12.11,14.61v20.24h-8.62v-19.23c0-4.89-1.8-8.61-6.5-8.61a7.16,7.16,0,0,0-6.71,5,8.62,8.62,0,0,0-.39,2.74v20h-8.63Z"/><path class="cls-15" d="M889.06,1287.69a18.86,18.86,0,0,0,8.69,2.49c3.79,0,5.49-1.59,5.49-3.82s-1.41-3.48-5.6-5c-6.67-2.29-9.45-5.92-9.42-10,0-6,5-10.66,12.93-10.66a19.74,19.74,0,0,1,9,2l-1.71,6a15.47,15.47,0,0,0-7.2-2c-3.07,0-4.78,1.52-4.78,3.61s1.65,3.21,6,4.78c6.21,2.19,9.07,5.35,9.1,10.38,0,6.21-4.84,10.7-13.84,10.7a22.09,22.09,0,0,1-10.39-2.39Z"/><path class="cls-15" d="M917.61,1267.35a5.2,5.2,0,0,1,5.31-5.52c3.15,0,5.25,2.27,5.28,5.52a5.3,5.3,0,1,1-10.59,0Zm0,23.57a5.2,5.2,0,0,1,5.31-5.52c3.15,0,5.25,2.26,5.28,5.52a5.3,5.3,0,1,1-10.59,0Z"/><path class="cls-15" d="M948.05,1295.62v-5.23l5.4-5c10.7-9.9,15.75-15.36,15.81-21.37,0-4.11-2.18-7.66-8.13-7.66-4,0-7.44,2-9.71,3.79l-2.53-6.12a22.7,22.7,0,0,1,14-4.66c10.09,0,15,6.34,15,13.78,0,8-5.75,14.43-13.71,21.78l-3.94,3.45v.14h18.65v7.12Z"/><path class="cls-15" d="M1017.7,1272.56c0,14.65-5.73,23.83-16.64,23.83-10.47,0-16-9.55-16.14-23.39,0-14.16,6-23.65,16.66-23.65C1012.58,1249.35,1017.7,1259.17,1017.7,1272.56Zm-24.13.42c0,11.1,3,16.84,7.77,16.84,5.11,0,7.71-6.16,7.71-17.07,0-10.6-2.49-16.8-7.7-16.8C996.78,1256,993.56,1261.61,993.57,1273Z"/><path class="cls-15" d="M1042,1295.62v-11.57h-20.6v-5.6l18.58-28.33h10.17v27.41H1056v6.52h-5.86v11.57Zm0-18.09v-12.39c0-2.57.12-5.19.28-7.87l-.25,0c-1.44,2.86-2.61,5.18-4,7.7l-8.32,12.45,0,.14Z"/><rect class="cls-9" x="605" y="1255" width="36" height="36" rx="15"/><rect class="cls-16" x="588" y="1347" width="300" height="85" rx="15"/><path class="cls-15" d="M674.08,1366.08a72.25,72.25,0,0,1,12.58-1c6.33,0,10.29.82,13.5,3a10.07,10.07,0,0,1,4.87,8.88c0,4.34-2.71,8.29-7.85,10.17v.18c5,1.27,9.55,5.19,9.55,11.69a12.42,12.42,0,0,1-4.52,9.74c-3.36,2.9-8.89,4.36-17.53,4.36a81,81,0,0,1-10.6-.62Zm8.55,18.64h4.42c6,0,9.3-2.82,9.3-6.81,0-4.43-3.36-6.47-8.79-6.47a23.75,23.75,0,0,0-4.93.38Zm0,21.64a27.87,27.87,0,0,0,4.56.24c5.51,0,10.47-2.07,10.47-7.89,0-5.49-4.82-7.74-10.74-7.74h-4.29Z"/><path class="cls-15" d="M746.83,1395.24c0,12.53-8.79,18.15-17.51,18.15-9.61,0-17.05-6.64-17.05-17.56,0-11.18,7.36-18.06,17.63-18.06S746.83,1384.91,746.83,1395.24Zm-25.7.38c0,6.55,3.27,11.51,8.47,11.51,4.94,0,8.37-4.77,8.37-11.63,0-5.35-2.37-11.47-8.31-11.47S721.13,1389.93,721.13,1395.62Z"/><path class="cls-15" d="M763.79,1368.78v9.76H772V1385h-8.2v15c0,4.17,1.11,6.29,4.41,6.29a12.94,12.94,0,0,0,3.35-.38l.17,6.56a19.12,19.12,0,0,1-6.27.89,10,10,0,0,1-7.41-2.81c-1.85-2-2.69-5.1-2.69-9.56v-16h-4.87v-6.42h4.87v-7.72Z"/><path class="cls-15" d="M778.09,1404.69a18.86,18.86,0,0,0,8.69,2.49c3.79,0,5.49-1.59,5.49-3.82s-1.41-3.48-5.6-5c-6.67-2.29-9.45-5.92-9.42-10,0-6,5-10.66,12.93-10.66a19.74,19.74,0,0,1,9,2l-1.7,6a15.56,15.56,0,0,0-7.21-2c-3.07,0-4.78,1.52-4.78,3.61s1.65,3.21,6,4.78c6.21,2.19,9.07,5.35,9.1,10.38,0,6.21-4.84,10.7-13.84,10.7a22.09,22.09,0,0,1-10.39-2.39Z"/><path class="cls-15" d="M806.64,1384.35a5.2,5.2,0,0,1,5.31-5.52c3.15,0,5.25,2.27,5.28,5.52a5.3,5.3,0,1,1-10.59,0Zm0,23.57a5.2,5.2,0,0,1,5.31-5.52c3.15,0,5.25,2.26,5.28,5.52a5.3,5.3,0,1,1-10.59,0Z"/><path class="cls-15" d="M836.46,1400.9c0-5.62,3.27-9.5,8.51-11.8v-.19c-4.72-2.31-6.9-6.11-6.9-10.08,0-7.47,6.57-12.48,15.18-12.48,9.83,0,14.25,5.87,14.25,11.45,0,3.9-2,7.89-7,10.31v.2c5,1.94,8.72,5.81,8.72,11.51,0,8.13-6.86,13.57-16.6,13.57C842,1413.39,836.46,1407.28,836.46,1400.9Zm24-.36c0-4.65-3.38-7.16-8.45-8.56-4.3,1.21-6.72,4.19-6.72,7.94s2.83,7.41,7.65,7.41C857.45,1407.33,860.43,1404.43,860.43,1400.54Zm-14.2-22.1c0,3.74,3.06,6,7.43,7.19,3.1-1,5.66-3.48,5.66-6.91,0-3.16-1.87-6.43-6.53-6.43C848.5,1372.29,846.23,1375.14,846.23,1378.44Z"/><rect class="cls-9" x="611" y="1372" width="36" height="36" rx="15"/><text class="cls-18" transform="matrix(0.9, -0.43, 0.43, 0.9, 79.2, 272.01)">Event <tspan class="cls-19" x="229.04" y="0">T</tspan><tspan x="273.2" y="0">ype</tspan></text><path class="cls-20" d="M184.15,271.77c-.35-.08-1.13.05-.94.34l1.34.1Z"/><path class="cls-20" d="M181.92,274.05a4.54,4.54,0,0,0,3,.25c-1.3-.23-.79-.37-2.33-.6-.19-.29.37-.58.86-.57-.35-.08.24-.5-.61-.59-1,.49-1,1-.07,1.45A1.78,1.78,0,0,1,181.92,274.05Z"/><path class="cls-20" d="M184.67,304.25l.11-.22A.28.28,0,0,0,184.67,304.25Z"/><path class="cls-20" d="M189.24,322.63a.28.28,0,0,0-.34-.1C189,322.63,189.15,322.7,189.24,322.63Z"/><path class="cls-20" d="M189,326.19a1.65,1.65,0,0,0,0-.21C189,326.09,188.91,326.19,189,326.19Z"/><path class="cls-20" d="M184.67,304.25l-.3.59C184.8,304.78,184.63,304.51,184.67,304.25Z"/><path class="cls-20" d="M185.52,277.83a.77.77,0,0,0-.38-.23,1.18,1.18,0,0,1,.17.24Z"/><path class="cls-20" d="M181.9,296.32l0-.15a4.33,4.33,0,0,0-.55,0Z"/><path class="cls-20" d="M180.6,290c0,.15,1.09,0,1.58,0-.47,0-.7-.08-.81-.19A4.72,4.72,0,0,0,180.6,290Z"/><path class="cls-20" d="M181.15,279.75l-.18-.16A1.37,1.37,0,0,0,181.15,279.75Z"/><path class="cls-20" d="M182.56,300.87a1.94,1.94,0,0,0-.38.14A1.42,1.42,0,0,0,182.56,300.87Z"/><path class="cls-20" d="M314.59,376.64l.06.19C314.65,376.72,314.64,376.64,314.59,376.64Z"/><path class="cls-20" d="M323.1,379.77l-.07.09a5.27,5.27,0,0,0,.2.6Z"/><path class="cls-20" d="M190,332.34v0C189.78,332.21,189.84,332.28,190,332.34Z"/><path class="cls-20" d="M225,375.59c0-1.19,1.58-.49,1.42-1.95C226.27,374.06,224.73,374.6,225,375.59Z"/><path class="cls-20" d="M185.39,278a1,1,0,0,1,0,.25A.27.27,0,0,0,185.39,278Z"/><path class="cls-20" d="M226.44,373.64h0l0-.15Z"/><path class="cls-20" d="M196.82,344.59a2.07,2.07,0,0,0,.36-.37A1.25,1.25,0,0,0,196.82,344.59Z"/><path class="cls-20" d="M193.48,334.65l0,.29A.43.43,0,0,0,193.48,334.65Z"/><path class="cls-20" d="M201,348.39c0,.16-.1.28.13.36a.42.42,0,0,0,.08-.12C201,348.65,200.91,348.62,201,348.39Z"/><path class="cls-20" d="M204.11,353a1.2,1.2,0,0,0,.13-.21l-.15-.11Z"/><path class="cls-20" d="M299.21,380.51a5.4,5.4,0,0,1,.4,1C299.41,380.7,300.12,380.3,299.21,380.51Z"/><path class="cls-20" d="M184.89,277.9c.29,0,.43,0,.5.11a.89.89,0,0,0-.08-.17A1,1,0,0,0,184.89,277.9Z"/><path class="cls-20" d="M208.55,343.77l.3.78A1.94,1.94,0,0,0,208.55,343.77Z"/><path class="cls-20" d="M262.05,380.67l.21-.1C262.19,380.53,262.12,380.55,262.05,380.67Z"/><path class="cls-20" d="M210.34,346.45a1.88,1.88,0,0,0-.37.82,1.55,1.55,0,0,0,.29-.09Z"/><path class="cls-20" d="M299.61,381.49v0Z"/><path class="cls-20" d="M304.53,377.9c-.78.12-.09,1.49-.09,2.36-.86.59-.64-1-1.09-1.67-.5.49-.71,1.91-1.15,1.93-.08-.23-.18-.31-.13-.62-.42,1.26-1.82.36-2.31,1.93a1.61,1.61,0,0,1-.15-.34,10.66,10.66,0,0,1,.43,2c-.35.08-.53,1-.81.09.23,0,.19-.39.24-.71l-.31.47c-.54-1.32.44-.55.28-1.56-.65.55-1.34,1.82-1.95,1.51-.31-1.32,1.23-.64.32-1.73l.94.39c-1-2,.53.07-.4-2.11-1.17-.22-1.15.87-2.32.62-.16.78.23,1.1.07,1.88-1.45,1.56-1.67-3.24-2.62-1.3-.21.93-.15,2.66-1.08,1.84l.13-1.56c-1.11-.05-.41,2.26-1.66,1.34.15-.62.81-.59.63-.75-.85-1.14-.44.91-1,1l-.23-1.34c-1.14.3-2.36,1.39-3.65,1.7,0-.41.25-.84-.07-1.24-1.6.77-3.49,0-5-.8l-.58,1.17c-.14,0-.26-.53-.12-.76-.6-.44,0,.75-.31,1.21-.35.08-.46-.67-.25-1-1.06,1-3.11,2.1-4.21.82l.24-.34c-.86-.52-1.1,2.36-1.88,1.22l.17-.2a14.66,14.66,0,0,0-2.93-.31,3,3,0,0,1-2.48-1.3c-.45,1.65-1.79-.94-2.19,1.38-.94-1.31-.58-1.69-2-2.67-.39-.15-.82,1.37-1.36,1.53l.18-1.22-.89,1.17-.11-1.52-.52.24a1.07,1.07,0,0,1,.21.95c-.84.44-1.63-1.15-1.53-1.78l-1.91.68c.14-.48.46-.59.75-.86-1.17,1.05.1-1.3-1-.34.06.3-.21.71-.28.95a1.64,1.64,0,0,0-2-.91l.33-.79c-1.19-.48-2.7-.29-4.09-.67.38.51-.13,1.9-.59,1.92l.2-1.3c-.49.7.29.61-.53,1.39-.49-.31.07-1.53.49-1.85l-.76.24a5.81,5.81,0,0,1,.47-1c-.5.69-.68-1.58-1.47-.36l.08-.38c-1.35-.42-2.09-.26-3.22-.57-.41,1-.75.66-1.41,1.38-.68-.66-1.24-1.84-2.24-2.13-.9.23-.57.79-1.14,1.27.35-1-.63-1.3.16-1.75a7.87,7.87,0,0,0-3.33-.39c0,.45.07.7-.17,1-.34,0-.41-.68-.15-1.11l.11-.06c-1.13.28-1.76-.82-2.28-1.9s-1-2-2.18-1.44l.12-.05-1.82.19c-.48-.51.75-.45.65-1.25a1.79,1.79,0,0,1-2.05-.49c-.41-.44-.75-.92-1.61-.81.44-1.54-.33-1.95-1.17-2.37s-1.83-.73-1.77-1.89l-.38.61c-.71.34-.07-.58-.17-.87-.32.46-.11.74-.51.91a7.35,7.35,0,0,1-3.29-3.15c-.42-.68-.81-1.39-1.2-2.08a21.35,21.35,0,0,0-1.14-2.07c-.63-.9-3.1,2.16-2.84-.06l1.23-.61a5.06,5.06,0,0,1-2.84-2,5.67,5.67,0,0,0-2.61-2.23c.33-.09.64-.34.77-.18.43-.94-1.05-1.35-1.66-.88-.14-.33.51-.5.69-.92.17-.71-1.68-.18-1.07-1,.1-.13.33-.08.44-.06-.56,0-.76-1.19-1.48-.3-.09-1-1.32-1-1.17-1.93-1.27.35-.32-1.51-1.85-.64,1.52-1,.39-2-.6-2,.56-.15.24-.7,1-.93a1,1,0,0,0-1.64-.2c1.25-2.07-2.7-1-.61-3a18.18,18.18,0,0,1-4.27-3.45c1.63-.79,1,1.53,2.63.55-1.37-1-3.14-1.08-3.47-2.65,0-.46.81-.15,1.14-.17-1.4-1-1.13-2.75-2.62-3.57a.83.83,0,0,1,.57.06c-.17-.22,0-.68-.76-.31l.31.15c-.89.89-2.72,0-3.32.25,2.33-.53,0-1.5,3-2a1.33,1.33,0,0,0-1.14.11c.05-.31.31-.52,1-.52-.78-.72-1.45-.05-1.78-.88a5.88,5.88,0,0,1,1.05-.15c-.89-.1-1.78-.23-1.76-1.05.24-.05.49-.25.57,0-.61-1.12-2.76-1.27-2.55-2.88,1.76-.23.36-.66,1.73-1.25l-.68-.56-.57.54c-.21-.63-1.44-.82-1.19-1.52l.76.26c-.23-.37-.48-.72-.7-1.09l-.29.86c-1-.38-1.77.71-1.67-.28.2.12-.2-.66.52-1.28h0c-.56-.16-1.14-.33-1-.92.41-.27,1.6-.42,1.88-.61-1.29.09-.83-1.37-2.23-1.36a3.22,3.22,0,0,0,1.23-.29l-1,.05c.21-.4.34-.49,1-.63-.12-.95-1.73.86-1.28-.46.11.06.24,0,.44.11.09-1.2-1.23-1.89-1-3,1.36-.71.6.75,1.72.06-.67-1.32-2.61-2.43-2.6-3.93l-.1.3c-2.1.35.75-1.3-.4-1.75a2.09,2.09,0,0,0,1-.05c.09-1-1-1.81-2-3.11l.57.05c.35-.67-.06-1.55,0-2.21-.57-.07-.56-.44-1.29-.05,1.3-1.28.7-2.08,0-2.86s-1.34-1.53-.24-2.62c.05.2.56.39.53.23l-.76-1.34c-.89.29-.52.29-1.17.73-.57-.08-1.06-.41-1.13-.77.72.54,1.46-.28,1.91-.65-.27.1-.6.06-.87.14,1.47-1.05-1.86.21-1-1l.48,0c-.31-.34-1-.58-.95-1,1-.36.56.32,1.43.2-.17-.57-2.18-.82-1.22-1.53.33.2.39.56.72.76,1.15-.79.83-.8.95-1.26l0,0,.41-1.08-.3.31c-2.87-.28-.74-1.4-2.7-2.11,1.86.7,1,0,2.22-.11.29-.3.6-.74,1-.68-1-.32.64-.88-.88-1.33.38-.08,0-.5,1-.54-.38-.56-.65.24-1.14.26-1.44-.75,1.31-2.41-.68-3.51-.89-1.07-2.23-1.12-3-2.13.57-.44,1.45.13,1.45.13a1,1,0,0,0-.17-1.59,1.53,1.53,0,0,0,1-.3c-.14-.43-1.44-.14-.93-.79a8.11,8.11,0,0,1,1.6.27c-.41-.48-1.18-.92-1.59-1.43.66-.22,1.06.22,1.52.36-.37-.57-.77-1.51-1.86-1.59l-.34.43c-.08-.22.9-.21,1.12-.07.89.44-.3.8-.68.87l-.29-.36c-2.24.64.52,1.52.47,2.32L181.8,278l1.46.65c-.42.22-1.33.45-1.61.09-.76.66.63.43-.21,1-.14.07-.22.06-.29,0l.56.5c-.36-.07-1.15.23-1-.14-.82,1.11,1.45,1.44.25,2l-.12-.07c.74,1.31,1.23,0,2.79.82l-2.9,1.09,1.23,0c0,.15-.08.44-.57.46.9.41.51-.16,1.34,0-1,.84.75,1.8-1.14,2.23,1,.11.6-.75,1.36-.12-2,.52.49.79-.36,1.55-1.1,0-.63-.71-1.48.06,1.86.1-.21,1.28.22,1.75,1.44-.21.78,1,1.4,1.84-.49,0-.52,1.8-.87,2.71l-.24,0c1.47-.11,1.36.78,1.78,1.34a2.19,2.19,0,0,1-1.68-.17l.11.58a1.19,1.19,0,0,1,1,.52l-1.1.06c.21.77,1.56,1.3,1,2.44,1-.16,2.65-1.35,3.52-.46-.54.15-1.46.38-1.73.16.08.07.51.22.32.45l-1-.23c-.31.53.81.08.8.45-.77.16-.49.38-1.12.46-.09-.08.25-.38-.08-.45a1.86,1.86,0,0,1-.95,1.3c.43-.13,1-.22,1.21.05.23.75-.87.46-1.17,1,.58.07.13.68,1.29.43,0,.23-.49.39-.78.55.6.28.56,1.82,1.68,1.09l.06-.12s0,0,.07.05h0c1.41,1,0,2.83.8,4l-.38.09c.63.65.7,1.63,1.66,1.95.05.22-.56.72-1,.75.43.5.87.45.49,1.45-.83-.39-.52.37-.66-.46-.1.85-.66,1.2.61,1.7-1.05,0-1.05.93-.66,1.2l.54-.73a1.93,1.93,0,0,1,.3,1.12l-1.33.19c-1.09,2,3.45,2,1.27,3.95,1,.12.35-1,1.51-1,.06.75-1.51,2.08-1.44,2.31-.37,1.21,2.14.28,2,1.45.41-.29,1.56-.82,2.23-.23.08.75-1.56,1.52-2.08,1.21-.1-.15,0-.29.16-.33-.24-.17-.53-.4-.92.05l.48-.07c-.34.51.08,1.45-.74,1.49.62.38.81,0,.9-.51-.31,1.13.5,1.41.42,2.49.19-.24.66-.57.71-.42-.05,1.56,1.06.27,1.6,1.1-.48.78-1.69.45-.77,1.14-.22.74-1.12.59-1.57.5,1.19.5.09,1.79.14,2.34l-.54-.3a1.06,1.06,0,0,1,.5.62l.77-.61c0,.32,0,.54-.32.69.68,0,1.37-.81,2.37-.62-.3.53.91.83-.2,1.45-.06-1.25-1.11.62-1.68-.22a.58.58,0,0,1,.25.66.32.32,0,0,1-.35,0c-.58,1.49,1.5-.08,2,1-.71.16-1.12.8-.9.91-.18-.43,1-.69,1.66-.52-.18.9.72.56.82.94l.05-.51c.71-.17.78.21,1.2.58-.48.27-.54-.27-.68,0,1.37,0-.62,1.73.47,2.09-.27.55-1.18.62-1.33,1.06,1.23.4-.42,1.31.7,1.82.72-.68.49-.61,1.63-.44l-1.32-1.08,1.7.26c-.2-.42-1-.61-1-.93.91.08.67.14,1.28-.41-1,1.2,1.32.73.8,1.82L194.9,340c-.4,1.49,1.95,1.22,2.17,2.75l.12-.61c.92-.28.56.71,1.13.93-.71.36-.82.75-1.14,1.17.49-.31.48,1,1.91.27l-.58,1.09c.23,1.25,2.63,0,3,1.06-.91.17-1.11.9-2,.58.19.32.25.69.72.4-.3.46,1.45.31,1,1,.38-.05,1.1-.46,1.27-.07a1.11,1.11,0,0,1-.33.21c.33-.21.79.26,1.33-.53-1.42,2.32,2,2.51.79,4.56a15.47,15.47,0,0,1,2,1.69c-.22.11-.32.24-.34.07,0,1.27,2.18-.88,2.23.54-.65,1.26-.92-.06-1.07.53-2,1.74,1.13.89.47,2.44l-.24-.05c-.29,1,1.71.5,2.19,1.37a1.06,1.06,0,0,0-.3.25,5.12,5.12,0,0,1,3.51.72c-.94.48-.69.05-1.33.88.4.21,1.15-1.21,1.92-.79a4.84,4.84,0,0,1-.92,2.17l-.58-.55c-.76,1.28.74.74.85,1.21l-.49.4c1,.73,2.15-.37,3,.63l.23-.43c1.59-.62-.18,1.05,1.12.71l-.93,1.3a12.45,12.45,0,0,1,3.08.33,8,8,0,0,1-3.21.42c.35.33,1.28,1,2,.58-.24,0-.68.12-.65-.19,1.26-.53,2.22-.49,2.88.15-2.13,2.22,1.37,2.12.4,4.41a3,3,0,0,1,2.15,1.4,7.09,7.09,0,0,0,1.93,2.05c.8-2.34.52.27,1.82-1.81.45.12.57.25.52.4l.31,2c-.12.78-.65.2-.92.68.73.73-.22,1.11,0,2,.35-.81,1-.86,1.29-.28l-.09-1.37c1.89-.37-.05,2.37,1.85,2l-.78.42a11,11,0,0,1,1.68.55,2.32,2.32,0,0,0,2.25-.52c0,.31-.2,1-.57,1,1.4,1.15,4.39-.06,5,1.63l-.38.48c.37,0,1-.76,1.1-.06-.12.22-.37.49-.25.58.25-.11,1.23-.59,1.47-.1l-.61.46a1.81,1.81,0,0,0,2.16.34,6.11,6.11,0,0,1,2.31-.66,2.69,2.69,0,0,0,.91,3.17l-.11.23c1.81.87,3.67-.23,5.59-.37.51,2.19,3.43,1.84,4.93,3.32-.2-.38.37-1.32.73-1.42.33.44,1.41-.92,1,.64l-.14-.07c0,1.61.91,1.42,1.57,1.59l.55-2c.55,1.67,1.77,1.64,2.87,1.51s2.1-.34,2.37,1.1c.5-.45,1-.38,1.52-.84l-.18,1.12a6,6,0,0,0,3.22.57l-.39.77c.83.16,1.4-3.14,2.15-3.13l.06,1.71c1.43.11,2.8,1.69,4.31.25,0,.25-.1.73-.34.79.67.08,2.59,1.27,2.43-1.06,0,1.52,1.48.2,2.26-.46l-.14,1.11c.68-1.41.7-1.79,1.61-2.17.21.14.18.89-.11.6.72.59.56-1.05,1.42-.46l-.32.71c.74.08.68-.3,1.07-1.13.46-.44,1.39.27,1.52,1.27.09-.62.47-1.45.9-1.17a1,1,0,0,1-.15.73c1.25.73,1.76-1.34,2.65-.3a1.41,1.41,0,0,0,.17.66,4.36,4.36,0,0,1-1.69-.09c0,1,.84,1.18.26,2.62.62-.8,1.62-2.54,2.42-2.09a2,2,0,0,1,.12.35l-.07.12c.18.09.33,0,.47-.19a1.32,1.32,0,0,0,.66.26c.15.84.95.39,1.35.4-.12-1.11.41-1-.14-1.86.06.07-.07.14-.33.2,0,0-.12.06-.15.13l0-.1-1,.15c.27-.6.56-1.1,1-.51.15-.73.31-1.49.41-1.85.65,1.54,1.75,2.29,2,3.23,1.15-.73,2.81-.69,3.31-2.87.3-.31.45.55.62.87-.17.23-.41.23-.48.54.62-.61,2-.46,1.95-1.94.93.55-.3,1.41.83,1l-.09.46c1.31,1,2.12-.07,2.94-1.05s1.67-1.92,3.19-.66a.8.8,0,0,1-.39-.46c3.14.8,5.6-2.36,8.87-1,.9.21.76-.72,1.07-1.54l.47,1.13.47-1.56c.88-1.29,2.81,2.31,3.77,0l-.42-.72c.57,0,1.52-1,1.71,0,0-.16-.08-.86.25-.52l.21.6,1-1.44c1.14.1.61,2.44,2.15,2.06.47-.42,1-2.31.61-2.63-.25.06-.7-.16-.93-.75l.37-.49c-.58-1.77-.93-3.67-2.42-4.51l-.4,1.34-.54-.77.63-.28c-.64-.67-.63.12-.74.7a1.89,1.89,0,0,0-.64-.84l-.23,1.94c-.32-.66-.09-1.48-.74-1.7-.12.9.85,1.44.4,2.15-.64-.68-.72-1.38-1-.55a1.21,1.21,0,0,1-.08-1c-.23.68-1,.56-.92,1.57-.69-.89-1.29.66-1.73-1.06a2.8,2.8,0,0,1-.7,1.71c.13-2.22-1.44.25-1.83-2,0,2-1.62,1.28-2.27,2.52,0-.16,0-.48.15-.4-.55,0-.83-.56-1.23-.83.29,1.54-.43,2.08-.66,3.11-.95-1.34,0-1.88-.53-3.26.31,1.24-.81,1.48-.37,2.47a3.35,3.35,0,0,1-1-1.58c.32,1.94-.37.42-.53,1.68-.89-.81-.54-1.76-1.19-1C304,378.72,304.53,377.9,304.53,377.9Zm-17.91,5.69v0l.38-.08Zm-1.57.09a2.61,2.61,0,0,0,.69,0c.07.39,0,.79-.13.78C285.68,384.2,285.3,384,285.05,383.68Zm3.86,7.59c-.26.18-.36,0-.41-.27a1.64,1.64,0,0,0,.45-.16l0-.14A3,3,0,0,1,288.91,391.27Z"/><path class="cls-20" d="M289.27,389.76s.06-.07.11-.09a2.5,2.5,0,0,0-.18-.24l-.06.36Z"/><path class="cls-20" d="M184.79,304v0a.33.33,0,0,1,.14-.11Z"/><polygon class="cls-20" points="263.82 380.4 263.78 380.68 263.95 380.46 263.82 380.4"/><path class="cls-20" d="M186.77,294.53a.62.62,0,0,0,.26-.17A.94.94,0,0,0,186.77,294.53Z"/><path class="cls-20" d="M186.35,290.76l.31-.6A2.44,2.44,0,0,0,186.35,290.76Z"/><path class="cls-20" d="M186.45,287.8a3.7,3.7,0,0,0-.49,0h0Z"/><path class="cls-20" d="M200.23,331.3a.24.24,0,0,0,.09.08C200.62,331.52,200.47,331.4,200.23,331.3Z"/><path class="cls-20" d="M192.74,319.63a3.56,3.56,0,0,1,.64.25C193.39,319.62,193.35,319.43,192.74,319.63Z"/><path class="cls-20" d="M208.52,343.69h0l.05.07Z"/><path class="cls-20" d="M193.56,320.49a.42.42,0,0,0-.18-.61C193.37,320.1,193.34,320.36,193.56,320.49Z"/><path class="cls-20" d="M185.36,275.24l0-.14h-.18Z"/><path class="cls-20" d="M185.21,275.1l-.15-.14C185.07,275,185.08,275.09,185.21,275.1Z"/><path class="cls-20" d="M184.74,274.66l.32.3C185.05,274.84,185.07,274.7,184.74,274.66Z"/><path class="cls-20" d="M185.24,279.13h.41A2,2,0,0,0,185.24,279.13Z"/><path class="cls-20" d="M185.51,280.27c.06-.29.77-.8.47-1.15h-.33C186.28,279.23,184.79,280.09,185.51,280.27Z"/><path class="cls-20" d="M181.15,285.82l.2-1c-.41.23-1,.54-1.12.1C179.11,286.33,181.16,284.5,181.15,285.82Z"/><path class="cls-20" d="M181,289c-.28-.5-.62.1-.87.11C180.58,289.38,180.69,289.44,181,289Z"/><path class="cls-20" d="M185.63,311l-1,.22C184.88,311.6,185,311.14,185.63,311Z"/><polygon class="cls-20" points="191.9 313.64 192.4 313.08 191.44 313.17 191.9 313.64"/><polygon class="cls-20" points="185.67 318.21 185.47 318.08 186.04 318.64 185.67 318.21"/><path class="cls-20" d="M202.73,352.77l1-.83C203.34,351.83,202.15,352.59,202.73,352.77Z"/><path class="cls-20" d="M214.53,364.71c-.32.58-.26,1.21.38,1C214.7,365.35,214.77,364.73,214.53,364.71Z"/><polygon class="cls-20" points="257.83 389.58 257.41 389.93 258.11 389.71 257.83 389.58"/><text class="cls-18" transform="translate(1569.16 245.9) rotate(8.97)">User PFP</text><path class="cls-20" d="M1717,303.57c-.43-.11-1.4-.05-1.22.26l1.65.23Z"/><path class="cls-20" d="M1713.87,305.64a6.9,6.9,0,0,0,3.72.58c-1.58-.38-.92-.46-2.8-.86-.19-.31.54-.54,1.15-.48-.42-.11.37-.48-.66-.65-1.29.39-1.36.9-.31,1.44A3.08,3.08,0,0,1,1713.87,305.64Z"/><path class="cls-20" d="M1709.49,335.36l.21-.17A.34.34,0,0,0,1709.49,335.36Z"/><path class="cls-20" d="M1705.87,353.42c0-.14-.16-.23-.31-.26C1705.64,353.3,1705.72,353.43,1705.87,353.42Z"/><path class="cls-20" d="M1703.43,356.12l.14-.16C1703.41,356,1703.31,356.05,1703.43,356.12Z"/><path class="cls-20" d="M1709.49,335.36l-.57.43C1709.45,335.88,1709.34,335.58,1709.49,335.36Z"/><path class="cls-20" d="M1717.76,309.87a1.06,1.06,0,0,0-.43-.28,1.28,1.28,0,0,1,.17.26Z"/><path class="cls-20" d="M1709,327.15V327c-.18-.06-.41-.12-.66-.18Z"/><path class="cls-20" d="M1709.14,320.93c-.07.14,1.33.27,1.94.36-.57-.11-.84-.23-.94-.36A8.25,8.25,0,0,0,1709.14,320.93Z"/><path class="cls-20" d="M1712,311.15l-.19-.18Z"/><path class="cls-20" d="M1708.27,331.55a2.66,2.66,0,0,0-.51,0A2.86,2.86,0,0,0,1708.27,331.55Z"/><path class="cls-20" d="M1622.94,478.07l-.09-.23C1622.87,478,1622.89,478.09,1622.94,478.07Z"/><path class="cls-20" d="M1613.57,473.85l.08-.1c-.06-.26-.12-.51-.17-.76Z"/><path class="cls-20" d="M1700.49,361.26h0C1700.39,361.06,1700.4,361.15,1700.49,361.26Z"/><path class="cls-20" d="M1682.79,409.5c1.38.12.92,1.64,2.57,1.58C1684.84,410.87,1683.86,409.28,1682.79,409.5Z"/><path class="cls-20" d="M1717.57,310a.62.62,0,0,1,0,.27C1717.63,310.18,1717.63,310.1,1717.57,310Z"/><path class="cls-20" d="M1685.36,411.08h0Z"/><path class="cls-20" d="M1697.9,374a3,3,0,0,0,.63.06A2.31,2.31,0,0,0,1697.9,374Z"/><path class="cls-20" d="M1702.43,365.17l-.24.19A.45.45,0,0,0,1702.43,365.17Z"/><path class="cls-20" d="M1698.24,379.43c-.14.09-.34.07-.21.3h.17C1698,379.61,1698,379.5,1698.24,379.43Z"/><path class="cls-20" d="M1696.5,384.41h.3v-.18Z"/><path class="cls-20" d="M1638.29,470.08a8,8,0,0,1-.84-1C1638,469.93,1637.46,470.64,1638.29,470.08Z"/><path class="cls-20" d="M1717,309.86c.35,0,.53.09.6.17a.67.67,0,0,0-.07-.18A1.52,1.52,0,0,0,1717,309.86Z"/><path class="cls-20" d="M1708.68,383.17l-.47.78A1.71,1.71,0,0,0,1708.68,383.17Z"/><path class="cls-20" d="M1670.06,445.34l0,.27C1670.12,445.57,1670.14,445.49,1670.06,445.34Z"/><path class="cls-20" d="M1707.55,386.52a2.55,2.55,0,0,0-1.09.14,2.13,2.13,0,0,0,.3.22Z"/><path class="cls-20" d="M1637.44,469.09h0Z"/><path class="cls-20" d="M1633.75,474.81c.79-.35-.45-1.8-.76-2.83.67-.93,1,1,1.77,1.69.36-.73,0-2.46.47-2.61a1.47,1.47,0,0,1,.38.7c-.09-1.62,1.73-1,1.52-3a1.66,1.66,0,0,1,.31.35,15,15,0,0,1-1.33-2.16c.31-.21,0-1.35.75-.37-.22.08,0,.52.09.9l.09-.65c1.16,1.34-.18.78.45,1.9.4-.87.47-2.53,1.21-2.42,1,1.41-.9,1.19.54,2.11l-1.13-.12c1.94,2-.58.11,1.4,2.29,1.33-.17.76-1.44,2.06-1.64-.25-.95-.79-1.15-1-2.1.58-2.33,3.38,2.95,3.29.36-.31-1.13-1.34-3,0-2.54l.77,1.79c1.09-.49-.93-2.69.8-2.28.23.75-.43,1-.16,1.14,1.5.83-.11-1.23.39-1.56l1,1.35c.92-.91,1.38-2.68,2.31-3.74.23.45.34,1,.9,1.27.93-1.73,3.19-2,5.13-2.24l-.38-1.57c.13-.07.62.36.67.68.86,0-.54-.75-.64-1.4.23-.31.9.36,1,.85.17-1.71.95-4.09,2.85-3.69l.1.49c1.11-.17-1.11-3,.43-2.52l0,.31a11.1,11.1,0,0,0,2.48-1.9,3.15,3.15,0,0,1,2.94-.88c-1.22-1.75,2.14-.71.22-2.94,1.85.25,2,.89,3.87.41.41-.22-.83-1.78-.67-2.39l1.1,1.08-.63-1.67,1.59,1,.08-.64a1.46,1.46,0,0,1-1.09-.51c.06-1.06,2.13-.65,2.72-.12l.38-2.26c.43.46.36.83.47,1.28-.44-1.81,1.33,1,.9-.69-.34-.15-.63-.68-.84-.9a1.62,1.62,0,0,0,1.93-1.36l.69.83c1.15-.89,1.61-2.58,2.68-3.76-.76.11-2.07-1.19-1.91-1.64l1.37.9c-.59-.88-.78,0-1.34-1.29.51-.33,1.67.88,1.86,1.49l0-.92c.4.27.49.57.94,1-.59-.87,2,.06,1-1.39l.4.28c1-1.24,1-2.16,1.77-3.22-1.09-.88-.53-1.08-1.19-2.07.94-.46,2.41-.67,3-1.66-.09-1.06-.82-.89-1.29-1.68,1.07.71,1.64-.28,2,.74a6.94,6.94,0,0,0,1-3.57c-.54-.14-.85-.1-1.14-.44,0-.37.85-.27,1.33.12l.06.14c-.25-1.34,1.11-1.75,2.4-2.19s2.47-.9,1.76-2.27l.07.15-.31-2.08c.58-.5.57.87,1.54.83-.88-2.56,1.65-2.2,1.16-4.15,3.82.93,1.71-3.51,4.56-3.64l-.83-.35c-.59-.76.66-.17,1-.33-.63-.29-.89,0-1.21-.45a7.89,7.89,0,0,1,2.57-4.3,36.92,36.92,0,0,0,3.8-3.81c.71-1-3.91-2.55-1.36-3.07l1.33,1.07a5.06,5.06,0,0,1,.68-3.8,5,5,0,0,0,.78-3.67c.3.28.76.46.67.68,1.29,0,.72-1.74-.19-2.1.24-.31.86.24,1.4.21.85-.23-1-1.75.24-1.58.2,0,.31.28.37.4-.43-.52.69-1.4-.72-1.59.94-.61,0-1.82,1.06-2.21-1.3-1,1.25-1.2-.77-2.07,2.11.82,2.21-.9,1.37-1.78.59.4.83-.24,1.65.27.17-.63,0-1.33-1.18-1.59,2.94-.3-1.34-2.94,2.17-2.53a29.54,29.54,0,0,1-.89-5.93c2.15.67-.28,1.89,2,2.49-.46-1.86-2.08-3.29-1.14-4.7.4-.33.88.49,1.21.72-.47-1.82,1-3,.2-4.72a1.11,1.11,0,0,1,.51.45c0-.29.5-.56-.51-.78l.2.34c-1.56.07-2.72-1.84-3.48-2.07,2.74,1.16,1.09-1.2,4.5.41a1.85,1.85,0,0,0-1.24-.69c.25-.22.66-.22,1.36.24-.33-1.13-1.46-1-1.25-1.92.49.11.63.34,1.18.56-.84-.68-1.69-1.35-1.12-2,.29.11.68.11.63.34.13-1.36-2-2.78-.83-4,2,.87.8-.34,2.65,0l-.38-.89-1,.13c.18-.67-1-1.53-.3-2l.64.65-.07-1.34-.85.58c-.8-.86-2.34-.37-1.64-1.16.16.21.17-.67,1.3-.82h0c-.53-.44-1.09-.9-.55-1.31.61,0,2,.47,2.42.45-1.48-.6-.17-1.67-1.74-2.37a4.67,4.67,0,0,0,1.53.37l-1.2-.49c.45-.25.65-.26,1.41-.08.39-.91-2.38-.1-1.19-1.05.08.11.28.1.44.31.71-1-.44-2.3.34-3.24,1.91,0,.31,1,1.93.87-.1-1.57-1.69-3.43-1.07-4.82l-.24.24c-2.61-.56,1.42-.9.27-1.81a2.73,2.73,0,0,0,1.14.34c.54-.94-.41-2.13-1.07-3.73l.66.27c.67-.52.52-1.51.9-2.11-.65-.26-.5-.61-1.51-.5,2-.77,1.63-1.77,1.14-2.73s-1.08-1.89.58-2.62c0,.21.56.55.57.38l-.52-1.54c-1.16,0-.71.14-1.63.37-.67-.24-1.17-.7-1.15-1.07.72.73,1.85.15,2.52-.09-.36,0-.74-.11-1.1-.11,2.1-.61-2.31-.31-.86-1.25l.6.1c-.28-.42-1.06-.84-.85-1.25,1.34-.08.59.46,1.68.57,0-.61-2.44-1.36-1.08-1.8.36.28.34.64.69.92,1.61-.48,1.21-.58,1.49-1l0,0,.78-1-.44.23c-3.43-1-.53-1.57-2.74-2.7,2.09,1.09,1.24.23,2.74.39.44-.24.94-.61,1.35-.47-1.18-.54,1-.75-.72-1.52.49,0,.08-.51,1.3-.35-.34-.64-.86.11-1.47,0-1.59-1,2.09-2.18-.15-3.65-.91-1.22-2.55-1.49-3.34-2.61a2.1,2.1,0,0,1,1.77.36c.73-.58.61-1,.06-1.62a2.23,2.23,0,0,0,1.34-.14c-.12-.46-1.77-.34-1-.93a12.41,12.41,0,0,1,1.95.5c-.43-.55-1.33-1.09-1.76-1.65.85-.14,1.28.35,1.83.56-.37-.63-.73-1.63-2.07-1.84l-.49.39c-.06-.23,1.16-.1,1.4.07,1,.55-.48.76-1,.79l-.31-.4c-2.87.35.42,1.58.24,2.37l-2.07-.37,1.7.85c-.54.16-1.71.24-2-.15-1,.54.73.52-.43,1a.41.41,0,0,1-.36,0l.61.57c-.43-.12-1.47,0-1.16-.28-1.22.94,1.52,1.63-.06,1.95l-.13-.08c.67,1.39,1.52.18,3.29,1.28l-3.78.54,1.52.2c-.06.14-.18.41-.79.33,1,.57.67-.06,1.65.29-1.39.62.57,1.91-1.88,1.94,1.15.3.94-.6,1.7.16-2.63.08.39.86-.85,1.42-1.34-.26-.58-.81-1.83-.26,2.25.5-.58,1.18-.18,1.72,1.81.13.68,1.18,1.23,2.09-.61-.1-1.11,1.58-1.82,2.33l-.3,0c1.82.29,1.41,1.11,1.75,1.75a3.38,3.38,0,0,1-2-.63l0,.57a1.51,1.51,0,0,1,1.06.78l-1.36-.26c0,.76,1.54,1.68.5,2.56,1.27.18,3.64-.45,4.37.68-.7,0-1.88-.1-2.13-.4.08.1.54.37.22.52l-1.11-.52c-.56.39.94.32.79.67-1-.1-.73.2-1.5.07-.09-.1.44-.27.07-.45a2.21,2.21,0,0,1-1.62.9c.56,0,1.32.13,1.41.44,0,.76-1.21.14-1.76.53.66.25-.1.66,1.36.83,0,.22-.72.18-1.13.23.61.46,0,1.84,1.59,1.58l.11-.09s0,0,.06.07h0c1.31,1.46-1.14,2.58-.65,3.94l-.49-.07c.47.84.13,1.74,1.12,2.43,0,.23-1,.41-1.54.23.27.63.81.77-.13,1.49-.76-.7-.79.09-.53-.68-.54.69-1.35.74-.15,1.74-1.2-.46-1.66.32-1.35.74l1-.39a1.49,1.49,0,0,1-.21,1.1l-1.62-.45c-2.24,1.18,3,3.32-.58,3.91,1.09.6,1-.69,2.23-.1-.34.68-2.81,1-2.85,1.2-1.06.79,2.26,1.34,1.46,2.23.61,0,2.19.15,2.58,1-.37.67-2.63.39-3-.14,0-.17.19-.22.38-.17a.81.81,0,0,0-1-.46l.56.2c-.67.23-.81,1.2-1.71.79.44.63.9.41,1.29.08-1,.73-.32,1.39-1.09,2.19.36-.08,1.07-.07,1,.07-1,1.2,1,.82,1,1.8-1,.33-2.07-.64-1.52.44-.72.43-1.57-.22-2-.54.94,1.07-1.07,1.39-1.37,1.81l-.38-.54a.77.77,0,0,1,.12.75h1.21c-.25.21-.3.43-.78.32.7.43,2,.23,2.89,1-.66.21.4,1.2-1.16,1,.75-1-1.56-.24-1.61-1.21.14.21.09.43-.17.64a.5.5,0,0,1-.38-.21c-1.59.7,1.65.89,1.33,1.94-.83-.34-1.7-.15-1.56.06.13-.42,1.49.15,2,.71-.86.51.3.86.12,1.2l.43-.33c.82.35.62.67.76,1.21-.68-.13-.34-.55-.68-.45,1.37.92-1.89.79-1.06,1.79-.68.18-1.62-.4-2.1-.2.9,1.11-1.41.56-.72,1.67,1.22.07,1-.06,1.91.86l-.43-1.64,1.43,1.37c.13-.43-.48-1.11-.22-1.31.82.69.55.57,1.56.62-1.88.12.69,1.45-.66,1.82l-2.83-.82c-1.56.65,1,2.23-.13,3.33l.63-.27c1.07.51-.1.85.22,1.41a4.58,4.58,0,0,0-2-.16c.71.19-.37.93,1.47,1.63l-1.42.19c-.85.89,2.29,2.06,1.64,3-.92-.64-1.74-.4-2.25-1.32-.12.34-.38.58.26.8-.65,0,1,1.36,0,1.37.37.29,1.33.66,1.13,1a1.55,1.55,0,0,1-.46-.16c.46.16.44.82,1.58.84-3.21.05-.83,3-3.65,3a9.26,9.26,0,0,1-.19,2.52c-.26-.15-.46-.18-.31-.27-1.21.58,2.43,1.58,1.07,2.26-1.68-.06-.59-.87-1.28-.76-3.07-1.05-.06,1.41-2.09,1.4l-.11-.24c-.61.06-.45.5-.2,1s.53,1.12.24,1.5a2.07,2.07,0,0,0-.45-.2,4.69,4.69,0,0,1,1.34,3.56c-1-.76-.45-.64-1.7-1,0,.44,1.94.72,2,1.61a6.58,6.58,0,0,1-2.82-.25l.23-.72c-1.78-.37-.33.91-.78,1.15l-.69-.37c-.23,1.16,1.55,2,.91,3.08l.59.13c1.49,1.46-1.21.06-.22,1.29l-1.87-.67a10.75,10.75,0,0,1,1,3.13,10.74,10.74,0,0,1-1.87-3.12,1.63,1.63,0,0,0,.22,2c-.09-.24-.42-.65-.07-.68,1.15,1.17,1.5,2.16,1.07,2.95-3.34-1.88-1.91,1.63-4.83.81.57,2.07-2,2.39-2.7,4.05,2.9.93-.19.5,2.52,1.93,0,.47-.17.59-.36.52l-2.21.19c-.92-.19-.39-.69-1-1-.65.68-1.3-.33-2.3-.22,1,.45,1.19,1.08.58,1.31l1.57.09c.75,2-2.74-.37-2.06,1.54l-.6-.84c.12.85-1.32,2,.39,3.88-.36-.09-1.15-.42-1.18-.78-.58.56-.5,1.65-.54,2.64a3.52,3.52,0,0,1-.21,1.32,1.07,1.07,0,0,1-1,.61l-.54-.53c0,.36.85,1.22,0,1.09-.24-.19-.54-.52-.66-.44.12.27.61,1.39,0,1.46l-.49-.76c-1.69.66.28,3.11-.08,4.49a3.42,3.42,0,0,0-3.7-.53l-.24-.21c-1.32,1.21-.45,3.48-.83,5.34-2.46-.69-3,2-5.13,2.37a2.38,2.38,0,0,1,1.22,1.54c-.59,0,.41,1.83-1,.43l.12-.08c-1.66-1.11-1.79-.17-2.24.26l1.86,1.88c-2-.72-2.45.27-2.85,1.25s-.69,1.94-2.22,1c.2.75-.15,1.1,0,1.85l-1-1a4.34,4.34,0,0,0-2.3,1.87l-.49-.92c-.61.44,2.08,3.64,1.62,4.19l-1.59-1.42c-.94.95-3.17.41-2.91,2.7-.19-.25-.55-.74-.45-.94-.51.36-2.74.45-.71,2.54-1.23-1.45-1.14.75-1.2,1.84l-.78-1.15c.64,1.75.92,2.15.55,3.06-.27,0-.83-.77-.4-.65-1-.16.4,1.36-.7,1.28l-.31-.89c-.61.34-.28.68,0,1.74,0,.72-1.26.54-2.09-.41.39.67.7,1.73.14,1.67a1.39,1.39,0,0,1-.4-.83c-1.5-.1-.46,2.31-1.91,1.67a2.12,2.12,0,0,0-.59-.6c.76-.51,1.41-.87,1.41-.75-.76-1-1.48-.8-2-2.57.1,1.11.49,3.42-.44,3.34a2.71,2.71,0,0,1-.33-.3l0-.17c-.2,0-.26.18-.25.44-.3,0-.51-.09-.7,0-.66-.82-1,0-1.35.16.81,1.15.28,1.22,1.31,1.94-.11-.05,0-.18.14-.36a.46.46,0,0,0,0-.21l0,.12.71-.6c.17.76.25,1.43-.53,1,.34.85.68,1.74.83,2.17-1.53-1.35-2.92-1.7-3.69-2.64-.51,1.27-1.91,1.88-1.15,4.48-.11.46-.72-.45-1-.75,0-.32.23-.4.12-.77-.2.9-1.49,1.2-.68,2.87-1.13-.3-.48-1.7-1.28-.87l-.16-.56c-1.67-.7-1.85.72-2.14,2.11s-.67,2.73-2.64,1.61a1.2,1.2,0,0,1,.56.44c-1.64-.11-2.71.9-3.89,1.76s-2.42,1.62-4.21.92c-.92-.18-.53.93-.63,1.95l-.73-1.33-.09,1.93c-.63,1.6-3.19-2.7-3.69,0l.53.89c-.56,0-1.37,1.14-1.67,0,0,.19.18,1.06-.18.62l-.27-.75-.79,1.69c-1.12-.25-.82-3-2.18-2.77a4.75,4.75,0,0,0-.42,3.06c.18,0,.62.34.85,1.1l-.37.52c.24,1.15.38,2.32.69,3.37a4.37,4.37,0,0,0,1.75,2.54c.2-.55.36-1.1.53-1.64l.62,1-.75.3c.74.89.76-.1.87-.81a2.59,2.59,0,0,0,.75,1.07l.19-2.41c.39.83.17,1.85.92,2.13.08-1.11-1-1.81-.58-2.67.75.86.92,1.72,1.11.69a1.64,1.64,0,0,1,.18,1.26c.2-.84,1.06-.7.85-1.95.89,1.08,1.33-.85,2.07,1.22,0-.55.13-1.91.49-2.15.25,2.74,1.52-.43,2.4,2.26-.38-2.42,1.5-1.79,1.9-3.39,0,.19.07.58-.06.51.6,0,1.05.54,1.56.79-.74-1.81-.13-2.59-.22-3.88,1.42,1.42.6,2.26,1.55,3.81-.69-1.42.43-1.94-.35-3,1,.84.65.32,1.6,1.67-1-2.25.28-.58,0-2.13,1.22.74,1.2,2,1.62.92C1634,473.69,1633.75,474.81,1633.75,474.81Zm15-13.85,0,0-.29.3A3.18,3.18,0,0,0,1648.71,461Zm1.33-1a2.92,2.92,0,0,0-.61.37c-.33-.36-.57-.8-.42-.88C1649.13,459.79,1649.6,459.79,1650,460Zm-8.32-6c.09-.3.31-.12.5.1a2.43,2.43,0,0,0-.26.38l.07.16A4.55,4.55,0,0,1,1641.72,454Z"/><path class="cls-20" d="M1642.39,455.72s0,.1,0,.14l.3.18-.18-.41Z"/><path class="cls-20" d="M1709.74,335.16l0,0a.93.93,0,0,1,.21-.05A1.11,1.11,0,0,1,1709.74,335.16Z"/><polygon class="cls-20" points="1669.25 447.16 1669 446.91 1669.12 447.24 1669.25 447.16"/><path class="cls-20" d="M1715.41,326.82a.77.77,0,0,0,.36-.09A1.25,1.25,0,0,0,1715.41,326.82Z"/><path class="cls-20" d="M1716,323l.54-.51A2.24,2.24,0,0,0,1716,323Z"/><path class="cls-20" d="M1716.88,320.08c-.24-.05-.43-.07-.6-.09h0Z"/><path class="cls-20" d="M1711.6,367.27a.22.22,0,0,0,0,.13C1711.83,367.73,1711.77,367.52,1711.6,367.27Z"/><path class="cls-20" d="M1711.43,352.78a3.93,3.93,0,0,1,.58.57C1712.16,353.12,1712.22,352.94,1711.43,352.78Z"/><path class="cls-20" d="M1708.74,383.09h0a.32.32,0,0,1,0,.09Z"/><path class="cls-20" d="M1711.86,354c.32-.2.32-.41.15-.64C1711.89,353.54,1711.69,353.74,1711.86,354Z"/><path class="cls-20" d="M1718,307.22l.06-.14-.22,0Z"/><path class="cls-20" d="M1717.79,307.06l-.16-.16C1717.63,307,1717.63,307,1717.79,307.06Z"/><path class="cls-20" d="M1717.28,306.56l.35.34C1717.63,306.78,1717.68,306.64,1717.28,306.56Z"/><path class="cls-20" d="M1717.21,311.14l.51.06A3.38,3.38,0,0,0,1717.21,311.14Z"/><path class="cls-20" d="M1717.33,312.34c.12-.28,1.1-.68.79-1.09l-.4-.05C1718.47,311.41,1716.48,312.05,1717.33,312.34Z"/><path class="cls-20" d="M1710.91,317c.16-.32.29-.64.44-1-.55.15-1.28.35-1.4-.1C1708.29,317.13,1711.17,315.76,1710.91,317Z"/><path class="cls-20" d="M1709.92,320c-.22-.54-.79,0-1.1-.09C1709.29,320.3,1709.41,320.39,1709.92,320Z"/><path class="cls-20" d="M1707.82,341.82l-1.26-.23C1706.68,342,1707.05,341.66,1707.82,341.82Z"/><polygon class="cls-20" points="1713.68 346.98 1714.53 346.71 1713.4 346.33 1713.68 346.98"/><polygon class="cls-20" points="1704.29 347.96 1704.14 347.76 1704.49 348.5 1704.29 347.96"/><path class="cls-20" d="M1695.66,383.11l1.53.42C1697,383.19,1695.37,382.53,1695.66,383.11Z"/><path class="cls-20" d="M1691.18,398.2c-.79-.17-1.41,0-.84.59C1690.6,398.52,1691.28,398.45,1691.18,398.2Z"/><polygon class="cls-20" points="1663.17 435.31 1663 434.73 1662.92 435.45 1663.17 435.31"/><path class="cls-1" d="M1420.6,1347.52l253.6,104.8-18.4,55.2L1347,1376.32v-56.8l308.8-131.2,18.4,55.2Z"/><path class="cls-21" d="M1440.6,1339.52l253.6,104.8-18.4,55.2L1367,1368.32v-56.8l308.8-131.2,18.4,55.2Z"/><polygon class="cls-22" id="star1" points="364.5 1273.5 399.86 1263.14 389.5 1298.5 399.86 1333.86 364.5 1323.5 329.14 1333.86 339.5 1298.5 329.14 1263.14 364.5 1273.5"/><polygon class="cls-22" id="star2" points="1169.68 218.32 1202 236 1169.68 253.68 1152 286 1134.32 253.68 1102 236 1134.32 218.32 1152 186 1169.68 218.32"/><path class="cls-20" d="M424,1398c.7-.43.3-1.41-1.62-1.22l-1.36,1.66Z"/><path class="cls-20" d="M411.07,1395c-2.26.8-4.86,2.21-3.4,3.73,2.24-1.59,2.78-.92,5.19-2.82,1.92-.19,3.36.53,3,1.14.68-.42,3,.37,4-.67-2.5-1.28-5.67-1.33-9-.28C410.22,1395.69,410.91,1395.26,411.07,1395Z"/><path class="cls-20" d="M223.23,1392.37l1.21.2A5,5,0,0,0,223.23,1392.37Z"/><path class="cls-20" d="M161.71,1343c0,.89.2,1.26.35,1.31C162,1343.52,161.85,1342.85,161.71,1343Z"/><path class="cls-20" d="M163.53,1323.17c-.05.43-.07.79-.11,1.17A1.77,1.77,0,0,0,163.53,1323.17Z"/><path class="cls-20" d="M223.23,1392.37l-3.11-.52C219.9,1392.39,221.71,1392.25,223.23,1392.37Z"/><path class="cls-20" d="M385.17,1398.94a6.63,6.63,0,0,0,1.69-.43c-.54.07-1.05.13-1.59.17A1.39,1.39,0,0,1,385.17,1398.94Z"/><path class="cls-20" d="M274.53,1391h1a4.53,4.53,0,0,0,.78-.68Z"/><path class="cls-20" d="M313.91,1390.78c-.89-.07-1.2,1.34-1.54,2a3,3,0,0,1,1.94-1A1.6,1.6,0,0,0,313.91,1390.78Z"/><path class="cls-20" d="M376.34,1393.25l1.11-.2C377.16,1393.11,376.68,1393.17,376.34,1393.25Z"/><path class="cls-20" d="M246.35,1390.73a1.08,1.08,0,0,0-.36-.51A.7.7,0,0,0,246.35,1390.73Z"/><path class="cls-20" d="M378.36,594.52c0,.1,0,.16,0,.25C378.59,594.62,378.66,594.52,378.36,594.52Z"/><path class="cls-20" d="M424,601.48l-.63.07a3.21,3.21,0,0,0-.14.79Z"/><path class="cls-20" d="M165.33,1286.81l0,.16C165.47,1287.92,165.44,1287.38,165.33,1286.81Z"/><path class="cls-20" d="M164.3,953c-1.26,3.78-1.61-6.15-3-.46C161.84,952,163.48,957.66,164.3,953Z"/><path class="cls-20" d="M384.15,1398.76c-.53,0-1.07,0-1.61,0A8.25,8.25,0,0,0,384.15,1398.76Z"/><path class="cls-20" d="M161.29,952.49h0l-.13.59Z"/><path class="cls-20" d="M164.49,1203a2.33,2.33,0,0,0-.62.86C164,1203.84,164.19,1203.65,164.49,1203Z"/><path class="cls-20" d="M162.49,1265.44l.19-1.55A9.25,9.25,0,0,0,162.49,1265.44Z"/><path class="cls-20" d="M162.51,1170.6a5.66,5.66,0,0,0,.11-2.27,1.63,1.63,0,0,0-.17.35A2.84,2.84,0,0,1,162.51,1170.6Z"/><path class="cls-20" d="M162.5,1136.86c-.11.18-.19.42-.29.63l.08,1.07Z"/><path class="cls-20" d="M275.83,595.19a5.11,5.11,0,0,1,1.56,1.26C276.87,595.46,281.83,595.1,275.83,595.19Z"/><path class="cls-20" d="M385.15,1398.15a1.2,1.2,0,0,1-1,.61l1.12-.08C385.37,1398.47,385.39,1398.28,385.15,1398.15Z"/><path class="cls-20" d="M151.42,1169.23l.21-5.36C151.49,1165.37,151.42,1167.32,151.42,1169.23Z"/><path class="cls-20" d="M152.76,725.79l-.17-1.23A2.49,2.49,0,0,0,152.76,725.79Z"/><path class="cls-20" d="M151.42,1148a10.67,10.67,0,0,0,1-3,2.2,2.2,0,0,0-.36-.62Z"/><path class="cls-20" d="M277.4,596.47v0Z"/><path class="cls-20" d="M312.71,593.13c-5.11,0-2.4,1.81-3.49,2.87-6.09.52-2.82-1.36-4.89-2.31-3.81.49-6.73,2.19-9.57,2.12-.21-.31-.76-.42-.11-.8-4,1.47-11.95.07-16.64,1.92a1.42,1.42,0,0,1-.61-.46,2.94,2.94,0,0,1,.72,2.53c-2.29,0-4.25,1.17-5.11,0,1.4,0,1.52-.45,2.18-.82l-2.4.52c-2.16-1.74,3.27-.6,3.27-1.88-4.67.56-10.13,2-13.71,1.51-.75-1.7,8.38-.58,3.6-2.09l5.54.65c-4.23-2.68,3.37.19-.52-2.68-7.3-.49-8.16.87-15.44.37-1.64,1,.54,1.4-1.1,2.34-10.35,1.7-8.15-4.27-15.76-2-2,1.13-2.73,3.28-8.15,2.14l1.85-1.92c-7.07-.19-4,2.76-11.44,1.47,1.32-.76,5.56-.64,4.49-.87-4.8-1.51-3.39,1.09-7.08,1.09l-.76-1.7c-7.53.27-15.81,1.5-24.15,1.81.46-.51,1.89-1-.06-1.56a128.19,128.19,0,0,1-16.42.09c-2.78-.14-5.55-.34-8.26-.57l-2-.18-3.54-.18-7.32-.38c-1.23.3-2.37.59-3.44.88l.59,3.21c0,1.46-.66,2.42-1,.48-.27,3.4,0,3.64.33,3.45s.89-.64,1.18,1a7.1,7.1,0,0,1-.44,3.38c-.28.42-.62.09-.84-1.24l.23,2.46.12,1.28c0,.37.08.54.12.82.15,1,.3,2.14.45,3.29.28,2.3.53,4.8.69,7.3a54.91,54.91,0,0,1-.5,13.75l-.44-1.44c-.6,5.72,3,6.46,1.64,11.76l-.26-1c-.64,12.41.71,26.13-1.51,35.6,2.12,1.8-.94,12.29,2,13.09-1.46,7.09-2,5.06-3,15-.14,2.66,1.84,4,2.15,7.27l-1.54.08,1.61,4.47-1.84,2.39.39,3.09c.1-1.23.7-2.62,1.14-2.43.7,4.83-1.07,11.77-1.86,11.89l1.3,11.42c-.62-.25-.83-2.16-1.23-3.67,1.57,6.09-1.62,1.1-.18,6.69.35-.75.92.41,1.23.53-.93,2.79-.94,9.13-.55,13.82l-1.06-.9c-.27,8.48.51,17.87.49,27.38.49-3.41,2.34-2.63,2.51.16l-1.63,1.12c1,1.8.62-2.92,1.85.78-.19,3.55-1.85,2.39-2.38.35l.56,4.32c-.48.25-.74-.76-1.36-1,1,1.77-1.63,7.45.12,10l-.48.24c0,9.51.55,13.82.63,21.57,1.4.15,1.09,3.18,2.23,5.49-.45,5.69-1.56,12-1.44,18.86.7,4.82,1.19,1.41,2,3.58-1.28.35-1.16,7.2-2.08,3.65.21,8.23.26,10.51,1.3,20.92.52-1.13.75-2.4,1.18-1.74.21,1.89-.53,4.3-1.15,4l-.13-.5c1.92,11.68-3.73,27-1.06,36.27l-.14-.52,1.39,9.65c-.22,4.44-1-2.66-1.75.62,2.14,10.41-.31,16.45,1.11,25-3.77,6.63.27,23.54-2.14,32.5l.89-.52c.87,2.31-.51,2.8-.72,4.51.7-.25.8-2.52,1.29-1.08,1.07,19.61-1.3,40.47-2.11,60.57-.23,7.36,4.61,4.18,2.48,13.45l-1.65-2.64c2,14.84-.07,30.34,1.61,44.87-.38-.87-.87-.89-.87-2.31-1.2,3.07-.05,11.34.92,11.4-.11,2.26-.88.52-1.38,1.91-.71,3.08,1.53,7.73.34,9.36-.19.28-.39-.86-.48-1.42.58,2-.15,9.34,1.23,7.42-.66,5.45.62,10.43-.2,14.77,1.55,2.84-.74,9.34,1.44,10.24-2.26-.39-1.82,9.55-.76,13-.68-1.15-.71,3-1.65,1.65,0,3.93.45,7.54,1.61,6.85-2.7,7.25,2.18,14.57-1.29,18.65,1.22,11.68,2,22.49,2.57,33-2.26-.37-.23-11.61-2.59-11.16.93,10,2.86,15.72,2.32,25.61-.31,2.56-1-1.46-1.37-2.32.93,10-.2,19.26,1,28.13-.21,0-.44-1-.61-1.89.07,1.75-.34,4.06.69,3.87l-.28-1.71c1.49-2.79,3.11,6.94,3.9,7.25-2.94-3-.74,8.76-4.45,4.05.19,1.15.67,2.59,1.36,2.33-.2,1.7-.6,2.24-1.38.51.56,6.26,1.65,4,1.62,9.71-.49,0-.68-1.17-1.27-1.75a22.9,22.9,0,0,1,1.52,10.54c-.3-.29-.69.27-.68-1.16.15,8.23,2.57,14,1.64,23.05-2.16-2.66-.71,3.07-2.58,3.55l.56,4.86.91-2c0,4.25,1.32,8,.71,11.66l-.77-3.16.36,8,.71-4.51c1,4.3,2.36-.46,1.84,5.2-.19-1.15,0,4.25-1.13,6.47v0a16.17,16.17,0,0,1,.76,7.41c-.6.82-2.07-.65-2.46-.12,1.56,2.07.43,10,2.09,12.58-.39-.87-1.37-.92-1.57-.63l1.27,1.74c-.41,2-.6,2.26-1.39,1.94-.23,5.92,2.37-1.88,1.35,5.15-.1-.55-.29-.29-.48-1.44-.1,1.27-.13,2.52-.13,3.76l0,1.85.07,2.12c.11,3.2.29,6.16.35,9.09,2.43-.05,4.7,0,7,.14.48.47.29.74-.34.89a15,15,0,0,1-2.66.25c-2,.08-4.05.12-3,.91,1.84,0,3.69-.11,5.53-.19l2.72-.14.68,0,.58,0,.9-.08,7.21-.71a99.54,99.54,0,0,1,14.1-.61l-1.69-.21c1.26-2.65,6.74,1.31,11.32.06-1.12.2-1.47,1.47-1.16,1.18,6.2.43,12.67-.65,22.07-1.49l-1.17.68c3.66.61,9.63.36,13.58.67,1.17-.68,3.42-.57,2.05-1.56,12.17,3.87,23.22-2.08,34,1.15-1.29,0-3.08.59-2.05.6l9.19-.63c-.72-1.16-1.2-.7-3.13-1.6a14.07,14.07,0,0,1,6-1.22c-4.14.77,0,1.86,1.82,2.5-.3-.35.31-.74.16-1.1,4.8,2,.81-2.33,7.37-.94l-.35.61c2.45-.31,4.72-1.12,7.36-.94,1.1,1.33-2.61.62-2.78,1.72,3.72-.08,7.34-2.53,10.7-1.2-1.57.37-3.85.38-5.43.75,3.67,1.57,4.09,1.17,6.82,1.42l-.27,0,6.3.71-1.61-.42c4.66-3.49,9.48-.64,15.75-2.92-6.1,2.16-1,1.25-1.48,2.76,1.6.42,4,.89,3.34,1.32,3-1.22,4.95,1,9.13-.82.19.48,3.17,0,2.5,1.27,3.86-.38-.91-.85-.58-1.46,5.93-1.67,13.95,2,22.49-.27,7.37-.94,8.73-2.58,15.57-3.4,2.3.78-1.89,1.78-1.89,1.78a26.64,26.64,0,0,0,10,0c-.72.43,0,.79,1.09,1.34,2.81-.13,1.88-1.78,5.59-1.06a9.6,9.6,0,0,1-2.81,2c3.31-.45,6.59-1.36,10-1.8.91.85-2.07,1.29-3.28,1.84,3.86-.38,10-.77,11.19-2.11l-2.48-.48c1.41-.07.73,1.15-.31,1.4-3.31,1.05-4.77-.47-5-1l2.45-.31c-2.51-2.86-9.82.46-14.74.29l2.05-2.08-5.05,1.73c-1.07-.54-1.81-1.7.62-2-3.53-1-3.12.73-6.15-.41-.34-.18-.19-.28.12-.36l-3.44.62c.67-.44-.58-1.47,1.54-1.17-6.19-1.2-10,1.56-12.31,0l.52-.12c-8.59.7-.83,1.52-7.27,3.31l-4.33-3.76-.85,1.52c-.88-.05-2.64-.17-2.31-.78-3.3,1.05.56.67-1.35,1.65-4.27-1.39-11.76.66-12.72-1.78-1.53,1.16,4.08.9-.47,1.71-1.3-2.62-5.27.44-9.16-.76,1.2-1.35,4.89-.63,1-1.84-2.35,2.29-7.59-.5-10.87-.06-.16,1.82-7.14.76-12.66,1.36.35-.61-10.37-1-15.5-1.65l.15-.31c-1,1.84-6.28,1.49-10.13,1.87.15-1.1.84-1.53,2.93-2h-3.62c-.86.59-2,.9-4.33,1.11l.91-1.38c-4.82.08-9.71,1.62-15.91.7-.35,1.28,4.93,3.57-1.62,4.42-.25-.69-.49-1.87,1.23-2.16a7.53,7.53,0,0,1-3.14.28l2.62-1.16c-2.83-.51-1.48,1-3.74.86.05-1-1.67-.7-1.34-1.49.57-.09,2,.41,2.83,0-2.55-.18-5.62-.77-6.64-1.51.22.56,0,1.32-1.86,1.45-4.82.07-1.65-1.18-4.46-1.69-1.17.68-4.25,0-4.33,1.45-1.41,0-1.67-.7-2.21-1.1-2.5.65-11.65.19-8.84,1.76l.64.1c-.12,0-.26,0-.41.07h0c-8.18,1.46-17-.84-25.09-.21v-.49c-4.84.56-10.78.33-14.24,1.39-1.43,0-3.38-.9-2.76-1.48-3.71.37-4.12.92-9.47.11,3.72-.87-1.28-.77,3.82-.63-2.41-.22-3.88-.52-5.4-.6a12.82,12.82,0,0,0-2.44.08c-.45,0-.93.13-1.47.24l-.83.18-.45.11-.29.12c.54-.63,0-1-.59-1.23a3.9,3.9,0,0,0-2.09,0,5,5,0,0,0,1.23.91,15.89,15.89,0,0,1-3,0l.09-1.26a7,7,0,0,0,1.66-.79,3.81,3.81,0,0,0,.37-2.6l0-.07v-.18l0-.42-.1-.83c-.07-.55-.14-1.09-.22-1.63-.17-1.07-.35-2.13-.52-3.16-.69-4.15-1.21-8,.49-11.74-1.17-2.61-.82,5.34-2.18,3,.22-4.52,2.61-9.24,2.61-10.66.93-6.2-2.43-5.78-1.8-12.27-.59.83-2.17,1.61-2.73-3.24.22-4.53,2.49-5.57,3-2.71,0,1.09-.14,1.61-.34,1.57.22,1.46.47,3.38,1.12,1.59l-.6-.59c.61-2.25.55-8.48,1.52-7-.57-3.42-1-1.46-1.28,1.07.86-5.81,0-9.07.6-15.06-.33,1-1,1.83-1,.89.74-8.78-1.12-3.87-1.38-9.81.9-3.38,2.16,1.21,1.4-4.78.61-3.65,1.57-.77,2.06.68-1.15-5.45.75-10.18,1-13.3l.48,2.87a25.43,25.43,0,0,1-.28-4.55l-1.18,1.64c.21-1.69.21-3.11.7-3.08-.77-1.74-2,1.33-3-2.12.6-2.25-.65-6.85.92-7.62-.53,7.07,1.59-.78,1.84,5.2a15.13,15.13,0,0,1,0-4.25c.17-.26.32.24.41.7,1.41-6.77-1.78-3.11-1.74-10.12.89.89,1.68-1.63,1.49-2.77,0,2.82-1.48,1.35-2.16-1.24.69-4.5-.51-4.89-.43-7.24l-.32,2.68c-.89-.91-.78-3.15-1.06-6.29.7-.27.48,2.85.78,1.73-1.56-3.48,1.62-7.86.57-12.71.6-2.25,1.67-.22,2.07-2.19-1.15-5.44,1.22-5.89.27-11.61-1.19,1.65-.9,1.94-2.07-2.09l.84,9.4-1.73-6c0,2.83.75,6,.55,7.68-1-2.87-.68-2.58-1.67-1.22,1.79-3.88-1-7.69.17-12.18l3,.14c1.32-6.74-1.52-12-.77-20.74l-.52,2.82c-1.17-1.18-.16-5.41-.64-8.24,1,.26,1.35-1.51,2-2.72-.73.14.07-6.41-1.9-7.21l1.3-3.91c.53-7.07-2.81-8.06-2.48-14.86,1.08,2,1.78-1,2.54,3.51,0-2.27.19-4.31-.49-4.34.62-1.33-1.33-6.3-.39-8.38-.44-1-1.47-1.27-1.39-3.82.2-.28.49,0,.49,0-.49,0-.66-4-1.76-1.76,3.08-7-.22-19.54,2.42-25.62-.33-5-.64-10.92-.72-15.42.3.29.5,0,.39.87.92-6.2-2.83-3.81-1.81-10.87,1.6-3.61.87,3.75,1.47,1.5,3.25-1-.44-8.52,1.45-13.27l.2,1.15c1.1-3.63-1.23-8.85-1-14.78,0,0,.28.28.49,0-1.66-4-2.21-11.73-2.67-17.44,1.27,1.78.68,2.59,2,1.51-.19-2.56-2.08.75-2.44-4.36.7-1.65,1.31-5.34,2.68-5.83l.08,4.82c1.78-2.47-.06-6.23.25-8.77l.78.32c-.26-7.38-2.22-7.48-2.08-15.41l-.59.82c-1.95-4.33,1.09-3.63-.35-8l2-1.31c-.47-2.86-1.91-10-2.28-15.14,1.47,2.9,2.21,8.9,3.08,12.62,0-2.84-.14-9.64-1.12-11.11.19,1.14.68,2.58.37,3.71-1.55-3.48-2.31-8.06-2.28-13.71,3.83,1,1-14.72,3.94-18.82-1.42-10,.6-19.82.38-31.47-3,4.13-.09-3.4-3.14-2.68-.2-2.71-.15-3.75.05-4l1.82-8.22c.89-1.95.68,2.58,1.36,2.33.24-5.93,1.3-2.49,2.11-6.42-1.09.81-1.56-2.06-1.15-5.45L164,939.51c-1.62-8.3,2.57-7.17,1-15.54l1,2.65c-.57-4.29,0-15.83-2.44-20,.36-.76,1.19-1.76,1.41.13.37-10.26-2.61-22.84-1.1-30.81l.75.78c-.22-1.91-1.41-3.33-.65-5.73.31.13.74.77.79-.11-.26-1-1.31-5.09-.88-7.62l.84,2.17c1-10-2-15.36-2.56-23.75,2.2,0,2.92-7.85,3.28-11.78l.31.14c.27-11.65-1.83-19.79-2.69-30.58,2.39-6.7,1-22.68,2.34-33.45-.4,1.65-1.72-.26-1.94-2.18.45-2.52-1.52-7,.5-6.58l0,.9c2-1.9,1.45-7.09,1.5-11.15l-2.64-.67c3.84-10.6-1.41-27.77,2-33.56-.66-2.56-.65-5.73-1.31-8.26l1.42.14a176.63,176.63,0,0,0,.2-19.39l1,1.78c.09-4.94-4.08-6.24-4.17-10.79l2.12-1.38c0-8.62,1.82-17.34-.1-25.86.31.14.92.39,1,1.79.05-4.06,1.43-15.7-1.47-14.23,1.89-.1.18-8.89-.65-13.55l1.39.72c-1.78-3.93-2.26-4.05-2.76-9.54.19-1.3,1.12-1.14.76.59a6.56,6.56,0,0,0-.29-4,7.77,7.77,0,0,1-.4-1.66,4.36,4.36,0,0,1,.12-1.81,9.16,9.16,0,0,0,.89,1.32,4.57,4.57,0,0,0-.28-2.2c-.23-.57-.61-1.12-1.13-2.43a2.53,2.53,0,0,1-.07-.34,9.11,9.11,0,0,1,3.65.23,4.57,4.57,0,0,1,2.52,1.45c.6-.77,3-1.8,5.67-1.43.35.47-.6.77-1.08.91,7.45.95,11.08-1.62,16.21-.25a1.15,1.15,0,0,0,.87.83c-5.93,0-10.7-.11-10.25-.21,0,1.29,4.79,1.51,1,3.29,3.84-1,10.41-3.08,15.07-2.47a2,2,0,0,1,.62.44l-.49.15a8.58,8.58,0,0,0,2.95-.21,27.58,27.58,0,0,0,3.87.39c.55,1.06,5.48.57,7.87.62-.2-1.41,2.92-1.18,0-2.34.38.1-.45.17-2,.23a6.28,6.28,0,0,0-1,.14l.17-.12-5.93.09a9.38,9.38,0,0,1,6.49-.53c1.22-.91,2.57-1.83,3.33-2.27,3.26,2,9.56,3,10.43,4.23,7.29-.79,17.16-.52,21.74-3.16,2.08-.34,2.39.75,3.16,1.17-1.2.26-2.62.22-3.26.6,4.14-.67,12.26-.26,13.25-2.1,5.22.83-2.93,1.69,4.24,1.39l-1,.57c14.11,2.94,22.94-4.71,38.59-.93-1.09-.23-1.63-.34-1.85-.65,17.83,1.67,36.75-1.56,54.35,1.08,5,.54,5.54-.64,8.59-1.54l1.09,1.51,5.22-1.74c7.4-1.27,12.81,3.71,22.19,1.29l-1.21-1c3.36.19,10.66-.6,10.1.57a2.29,2.29,0,0,1,2.41-.53l.11.79,8.26-1.35c6.41.57-1,3.13,8.35,3.29,3.48-.31,9.9-2.3,8.6-2.83-1.41,0-3.59-.5-3.69-1.29l3.18-.41c.57-2.33,3-4.71-4.79-6.34l-5.43,1.43-1.76-1.13,4.58-.07c-2.6-1.06-4.24-.12-6.09.52a3.56,3.56,0,0,0-2.27-1.24l-5.34,2.22c-.65-.91,2.39-1.81-1.19-2.31-2.5,1,2.4,2-1.74,2.72-2.61-1.06-1.85-1.92-4.9-1-.43-.6.22-1,1.43-1.24-2.72.72-7.2.3-8.6,1.54-2.71-1.31-9.18.34-8.91-1.86a22.68,22.68,0,0,1-7.28,1.82c4.56-2.64-9.35-.16-8.14-3-3.38,2.38-12.2,1.06-18.18,2.37a2.51,2.51,0,0,1,1.52-.45c-3.37-.19-4.34-.91-6.51-1.36-.43,2-5.67,2.41-8.5,3.62-4.12-1.89,2.51-2.3,1.21-4.12.21,1.59-7.16,1.59-5.76,2.91-3.16-1.17-2.72-.57-4.34-2.19-.56,2.45-2.94.42-5.56,1.92-4.56-1.21-1.17-2.3-6.19-1.55C308.24,594,312.71,593.13,312.71,593.13Zm-119.29,4.24v0l2.46-.08Zm-10,0c1.22.05,2.74.06,4.35.05.35.49,0,1-1,1C187.25,598.08,184.89,597.8,183.39,597.39Zm21.21,9.74c-1.59.2-2.12-.08-2.34-.37.75,0,1.63-.07,2.78-.16,0-.06.14-.12.18-.18A1.82,1.82,0,0,1,204.6,607.13Z"/><path class="cls-20" d="M207.45,605.29a4.86,4.86,0,0,1,.65-.11,9.37,9.37,0,0,0-.94-.31l-.56.44Z"/><path class="cls-20" d="M224.65,1392.6l-.21,0a1.28,1.28,0,0,1,.44.2C224.74,1392.7,224.74,1392.66,224.65,1392.6Z"/><polygon class="cls-20" points="152.07 714.62 152.43 714.61 152.11 713.73 152.07 714.62"/><path class="cls-20" d="M279.86,1397.42a1.33,1.33,0,0,0,.72.36C280.55,1397.69,280.24,1397.56,279.86,1397.42Z"/><path class="cls-20" d="M303.71,1397.74l3.37.5A32.12,32.12,0,0,0,303.71,1397.74Z"/><path class="cls-20" d="M322,1398.44a1.44,1.44,0,0,0,.36-.61h0Z"/><path class="cls-20" d="M153.09,1266.7a5.17,5.17,0,0,0-.07-.71C152.75,1264.33,152.86,1265.46,153.09,1266.7Z"/><path class="cls-20" d="M156.37,1353.46a23.59,23.59,0,0,1-.66-2.79C155.6,1352.22,155.57,1353.42,156.37,1353.46Z"/><path class="cls-20" d="M151.39,1169.82h0v-.6Z"/><path class="cls-20" d="M155.73,1346.64a11.36,11.36,0,0,0,0,4A18.1,18.1,0,0,0,155.73,1346.64Z"/><path class="cls-20" d="M401.52,1399.07l.88.06a.24.24,0,0,1,.11-.22Z"/><path class="cls-20" d="M402.51,1398.91l1-.17C403,1398.74,402.65,1398.75,402.51,1398.91Z"/><path class="cls-20" d="M405.55,1398.39l-2.06.35A3.4,3.4,0,0,0,405.55,1398.39Z"/><path class="cls-20" d="M377.25,1398.42l-.28.51A.68.68,0,0,0,377.25,1398.42Z"/><path class="cls-20" d="M369.87,1398.57c1.76.12,4.41,1.09,6.87.77l.23-.41C375.81,1399.69,371.54,1397.71,369.87,1398.57Z"/><path class="cls-20" d="M339.08,1392.27l6.18.41c-1.08-.54-2.5-1.27.31-1.41C337.78,1389.65,347.18,1392.49,339.08,1392.27Z"/><path class="cls-20" d="M319.91,1391.48c3.32-.25,0-.79.14-1.09C317.94,1390.88,317.43,1391,319.91,1391.48Z"/><path class="cls-20" d="M181.4,1391.48l.34-1.28C179.18,1390.38,181.71,1390.69,181.4,1391.48Z"/><path class="cls-20" d="M155.08,1393c-.26,1.32-.53,2.73-.79,4.22a5.43,5.43,0,0,0,1.05.57l.29-.12h-.18Z"/><polygon class="cls-20" points="164.19 1375.49 164.38 1376.61 163.91 1372.34 164.19 1375.49"/><path class="cls-20" d="M163.74,1142.87l-1.57.77C162.45,1145.37,164.22,1145.73,163.74,1142.87Z"/><path class="cls-20" d="M162.14,1042.44a7,7,0,0,0,.52-5.66C162.55,1039,161.93,1041.29,162.14,1042.44Z"/><polygon class="cls-20" points="164.7 741.26 165.23 743.28 164.79 739.47 164.7 741.26"/><text class="cls-18" transform="translate(122.54 1198.77) rotate(-90)">Event Info</text><text class="cls-18" transform="translate(1023.7 1904.18) rotate(8.97)">Time of log</text><path class="cls-20" d="M1024.44,1887.64c.14-.45-.1-1.4-.61-1.15l-.16,1.68Z"/><path class="cls-20" d="M1020.48,1885a4.32,4.32,0,0,0-.48,3.8c.42-1.64.65-1,1.08-3,.51-.25,1,.42,1,1,.14-.44.88.27,1-.79-.86-1.19-1.73-1.15-2.52,0C1020.33,1885.75,1020.47,1885.3,1020.48,1885Z"/><path class="cls-20" d="M968.58,1885.79l.34.19A.53.53,0,0,0,968.58,1885.79Z"/><path class="cls-20" d="M936.69,1883.57a.37.37,0,0,0,.38-.32C936.84,1883.34,936.65,1883.42,936.69,1883.57Z"/><path class="cls-20" d="M931.45,1881.26l.3.14C931.65,1881.24,931.53,1881.14,931.45,1881.26Z"/><path class="cls-20" d="M968.58,1885.79l-.85-.51C967.67,1885.82,968.17,1885.67,968.58,1885.79Z"/><path class="cls-20" d="M1013.78,1889.75a1.21,1.21,0,0,0,.42-.49,2.91,2.91,0,0,1-.42.23Z"/><path class="cls-20" d="M982.65,1884.25l.26,0a5.81,5.81,0,0,0,.19-.68Z"/><path class="cls-20" d="M993.42,1883.34c-.25,0-.24,1.36-.3,2,.1-.59.26-.87.47-1A4.37,4.37,0,0,0,993.42,1883.34Z"/><path class="cls-20" d="M1010.74,1884.35l.28-.22A2.42,2.42,0,0,0,1010.74,1884.35Z"/><path class="cls-20" d="M974.92,1884.07a2.75,2.75,0,0,0-.11-.5A1.22,1.22,0,0,0,974.92,1884.07Z"/><path class="cls-20" d="M709,1760.87c.09,0,.13-.09.21-.13C709.08,1760.76,709,1760.79,709,1760.87Z"/><path class="cls-20" d="M708.71,1746.26l.14.12a7.84,7.84,0,0,0,.72-.32Z"/><path class="cls-20" d="M921.83,1878.34l0,0C922.15,1878.25,922,1878.26,921.83,1878.34Z"/><path class="cls-20" d="M834.85,1854.61c.4,1.59-2.18.72-1.38,2.67C833.58,1856.72,835.66,1855.91,834.85,1854.61Z"/><path class="cls-20" d="M1013.48,1889.6a2.32,2.32,0,0,1-.45.06A.73.73,0,0,0,1013.48,1889.6Z"/><path class="cls-20" d="M833.47,1857.28h0l.09.19Z"/><path class="cls-20" d="M899.28,1875.4a1.89,1.89,0,0,0,.1.65A1.36,1.36,0,0,0,899.28,1875.4Z"/><path class="cls-20" d="M915.68,1880.32l-.39-.24A.77.77,0,0,0,915.68,1880.32Z"/><path class="cls-20" d="M890.22,1875.49c-.2-.16-.23-.37-.58-.26a.87.87,0,0,0,.05.19C889.85,1875.26,890,1875.21,890.22,1875.49Z"/><path class="cls-20" d="M881.28,1873.23a2.8,2.8,0,0,0,.09.31h.31Z"/><path class="cls-20" d="M726.43,1784.2a5.19,5.19,0,0,1,.71-1.12C726.45,1783.81,725.3,1782.94,726.43,1784.2Z"/><path class="cls-20" d="M1013.69,1889c0,.36-.08.54-.21.64l.3-.11A1,1,0,0,0,1013.69,1889Z"/><path class="cls-20" d="M887.3,1886.19l-1.42-.58A5.09,5.09,0,0,0,887.3,1886.19Z"/><path class="cls-20" d="M775.24,1831.88l-.38-.07A.28.28,0,0,0,775.24,1831.88Z"/><path class="cls-20" d="M881.47,1884.71a2.47,2.47,0,0,0-.59-1.15,1.6,1.6,0,0,0-.26.3Z"/><path class="cls-20" d="M727.15,1783.06v0Z"/><path class="cls-20" d="M718.4,1777.16c.85,1.18,1.87-.53,2.9-.92,1.46,1.06-.6,1.45-1,2.49,1.05.57,2.9.2,3.33.88-.21.23-.2.43-.62.51.93,0,1.46.67,2,1.32a2.87,2.87,0,0,0,2.37,1.2,1.07,1.07,0,0,1-.25.42,9.08,9.08,0,0,1,1.86-1.73c.43.48,1.66.19.86,1.13-.21-.32-.61,0-1,0l.83.19c-1,1.56-1-.33-2,.47,1.27.67,3.34.95,3.59,2-1.18,1.24-1.92-1.47-2.25.53l-.47-1.62c-1.34,2.61-.46-.86-2,1.79.92,1.93,2.12,1.27,3,3.18,1-.25,1-1,2-1.27,3.19,1.11-1.76,4.51,1.37,4.68,1.22-.32,3-1.57,3.11.33l-1.78.87c1.17,1.64,2.79-.94,3.23,1.46-.82.23-1.53-.74-1.5-.37-.23,2,1.46,0,2.16.75l-1.12,1.3c1.64,1.39,4.12,2.28,5.93,3.79-.45.25-1.11.32-1.12,1.08,2.66,1.57,4.28,4.66,5.58,7.44l1.8-.26c.17.19-.13.81-.53.81.4,1.2.69-.62,1.48-.65.53.36,0,1.18-.58,1.22,2.31.47,5.91,1.9,6.35,4.47l-.59,0c.77,1.55,3.34-1,3.52,1.06h-.39c2.21,2.78,6,4.29,6.56,7.74,1.72-1.26,2.07,2.93,4.12.8.62,2.38-.15,2.43,1.43,5,.5.58,2-.73,2.93-.39l-.93,1.22,2-.48-.61,1.88.92.23a1.26,1.26,0,0,1,.16-1.33c1.49.3,2,2.84,1.55,3.5l3.38.88c-.43.46-1,.31-1.57.37,2.33-.24-.71,1.49,1.42,1.27,0-.41.63-.67.85-.9.08,1.22,1.52,2.3,2.82,2.77l-.83.71a12.56,12.56,0,0,0,3.18,2,32.73,32.73,0,0,1,3.5,2c-.53-.95.69-2.35,1.44-2.06l-.65,1.53c1-.56-.34-1,1.22-1.41.72.71-.48,1.91-1.25,2l1.32.21c-.21.45-.59.5-1,1,1-.56.85,2.55,2.42,1.49l-.21.44c2.22,1.56,3.61,1.66,5.51,2.75.78-1.17,1.35-.46,2.5-1.09,1.13,1.22,2.08,3.09,3.8,4,1.52.11.94-.82,1.89-1.22-.57,1.15,1.15,2.06-.17,2.33a17.12,17.12,0,0,0,5.8,1.73c0-.61-.22-1,.15-1.28.57.07.8,1,.43,1.56l-.18,0c1.9,0,3.11,1.68,4.32,3.3a9.35,9.35,0,0,0,1.88,2.08,2.46,2.46,0,0,0,2.33.37l-.19.06,3.07-.06c1,.75-1.1.54-.62,1.65,3.58-.63,4.05,2.32,6.83,2.09a2.86,2.86,0,0,0,1,2.26,6.69,6.69,0,0,0,2.29,1c1.71.48,3.55.82,4.24,2.43l.22-.88c.94-.54.52.78.89,1.16.21-.67-.34-1,.22-1.3a16.84,16.84,0,0,1,4,1.43c.63.32,1.26.67,1.88,1s1.26.72,1.88,1.1c2.5,1.52,4.95,3.26,7.5,4.63,1.89,1,2.64-3.93,4.39-1l-1.23,1.31a8.46,8.46,0,0,1,1.67,0,12.22,12.22,0,0,1,1.61.21,23.56,23.56,0,0,1,3.08.89,15.06,15.06,0,0,0,6.22,1.2c-.34.3-.49.77-.87.64.48,1.41,3,1,3.33.07.58.3-.1.9.14,1.49.64,1,2.5-.82,2.63.42,0,.2-.34.31-.52.36.71-.42,2.53.8,2.36-.67,1.32,1,3,.13,4,1.23,1.16-1.31,2.37,1.37,3.15-.69-.65,2.16,2.18,2.43,3.37,1.64-.47.58.66.89.07,1.72,1.09.25,2.17.09,2.24-1.09,1.4,3.11,4.48-1.31,4.87,2.32a55.24,55.24,0,0,1,9.62-.7c-.52,2.19-3.25-.42-3.57,1.93,3-.38,4.86-1.91,7.5-.92.66.41-.57.9-.87,1.25,2.92-.51,5.34,1,8,.13,0,.2-.34.39-.62.52.5,0,1.09.5,1.18-.53l-.52.21c-.55-1.58,2.37-2.8,2.56-3.56-1.23,2.79,2.32,1.08.51,4.57a1.41,1.41,0,0,0,.83-1.26c.45.27.55.69,0,1.39,1.82-.3,1.34-1.47,2.91-1.22-.07.49-.41.63-.65,1.19.92-.84,1.84-1.69,3.12-1.08-.12.28,0,.69-.41.63,2.32.12,4.19-2.19,6.6-1-1,2.07.78.78.73,2.65l1.41-.43-.45-1c1.18.14,2.35-1.12,3.31-.41l-1,.68,2.25-.15-1.19-.82c1.27-.85.07-2.36,1.59-1.7-.33.16,1.18.13,1.7,1.28h0c.63-.54,1.27-1.11,2.11-.57.18.62-.33,2.05-.21,2.45.34-.75,1-.79,1.76-.85a2,2,0,0,0,1.88-1,2.76,2.76,0,0,0-.27,1.56l.56-1.25c.52.43.59.63.46,1.4,1.64.3-.39-2.38,1.51-1.28-.16.09-.1.29-.43.46,1.94.62,3.84-.65,5.62.05.45,1.9-1.6.4-1.06,2,2.64-.23,5.49-2,8-1.49l-.47-.22c.41-2.64,1.85,1.38,3.15.18-.31.19-.43,1.46-.34,1.17,1.73.48,3.55-.67,6.17-1.52l-.33.69c1,.59,2.69.32,3.79.62.32-.69,1-.58.56-1.57,3.46,3.84,6.41-2.15,9.5,1-.36,0-.84.6-.55.6.85-.21,1.7-.43,2.54-.71-.24-1.14-.36-.68-.93-1.54a2.14,2.14,0,0,1,1.63-1.32c-1.12.84.08,1.85.6,2.47-.09-.35.06-.75,0-1.11,1.42,2,.13-2.33,2-1.06l-.07.61c.67-.35,1.26-1.19,2-1.06.37,1.32-.69.67-.69,1.77,1-.14,1.9-2.65,2.91-1.38-.42.4-1,.44-1.47.84,1.1,1.5,1.2,1.1,2,1.3l-.07,0,1.79.6-.47-.4c1.08-3.55,2.6-.79,4.18-3.17-1.54,2.25-.19,1.26-.22,2.78.48.39,1.19.82,1,1.26.74-1.27,1.45.87,2.48-1,.09.48.89,0,.8,1.22,1.05-.44-.32-.83-.28-1.44.76-.89,1.77-.42,2.87-.09s2.28.53,3.36-.74c2-1.16,2.17-2.84,4-3.86.72.71-.34,1.83-.34,1.83a2.27,2.27,0,0,0,2.77-.28c-.15.44.09.78.45,1.29.77-.21.33-1.82,1.43-1.22a7.53,7.53,0,0,1-.56,2c.87-.54,1.68-1.55,2.57-2.09.35.82-.42,1.34-.69,1.93,1-.5,2.68-1.07,2.85-2.44l-.75-.4c.38-.11.34,1.12.08,1.4-.79,1.15-1.37-.32-1.48-.8l.64-.38c-1-2.77-2.65.75-4,.74l.34-2.13-1.2,1.86c-.36-.5-.68-1.63,0-2-1.08-.91-.78.83-1.73-.22a.26.26,0,0,1,0-.36l-.89.72c.15-.45-.3-1.44.31-1.21-1.81-1-2.58,1.86-3.37.36l.12-.14c-2.28,1-.08,1.54-1.68,3.52l-1.53-3.62-.1,1.55c-.25,0-.74-.09-.7-.71-.82,1.14.21.64-.23,1.68-1.29-1.29-3.2.85-3.65-1.55-.33,1.18,1.19.82,0,1.7-.56-2.58-1.42.54-2.58-.59.23-1.37,1.3-.72.14-1.85-.49,2.31-2.12-.38-3,.11.08,1.82-1.91.88-3.39,1.58.06-.62-2.91-.83-4.35-1.4l0-.3c-.19,1.85-1.66,1.59-2.7,2a2.34,2.34,0,0,1,.72-2.07l-1,.07a1.74,1.74,0,0,1-1.15,1.18l.2-1.39c-1.31.12-2.61,1.65-4.34.76-.07,1.28,1.46,3.55-.34,4.42-.08-.69-.18-1.87.29-2.16-.15.1-.54.58-.86.29l.69-1.17c-.79-.5-.38,1-1,.87,0-1-.47-.7-.4-1.48.16-.1.55.4.78,0a2.79,2.79,0,0,1-1.85-1.49c.07.56,0,1.33-.49,1.47-1.32.08-.47-1.19-1.25-1.69-.31.69-1.16,0-1.17,1.47-.39,0-.46-.69-.62-1.09-.67.66-3.19.22-2.41,1.78l.17.1a1.05,1.05,0,0,1-.11.07h0c-2.26,1.49-4.68-.78-6.91-.13v-.5c-1.34.51-3,.22-3.94,1.24-.4,0-.91-.94-.73-1.52-1,.33-1.16.88-2.6,0,1-.82-.32-.78,1.07-.59-1.31-.48-1.57-1.28-3,0,.53-1.24-.92-1.63-1.56-1.28l.88.94a4.37,4.37,0,0,1-2-.11l.42-1.65c-2.57-2.13-5.05,3.25-6.89-.22-.79,1.14,1.41.88.69,2.21-1.24-.24-2.35-2.8-2.74-2.82-1.61-1.08-1.75,2.27-3.47,1.48.18.61.27,2.21-1.11,2.65-1.23-.34-1.31-2.62-.49-3a.33.33,0,0,1,.39.38c.42-.18,1-.38.53-1.07l-.21.58c-.56-.66-2.26-.75-1.78-1.69-1,.48-.48.94.18,1.31-1.5-1-2.47-.26-4-1,.23.35.4,1.06.14,1-2.31-1-1.17,1-2.82,1.14-.83-1,.56-2.12-1.15-1.52-.93-.7,0-1.58.41-2-1.61,1-2.67-1-3.48-1.34l.83-.37a2,2,0,0,1-1.25.1l.29,1.24c-.43-.27-.81-.33-.74-.82-.56.7.12,2-1,2.93-.53-.69-1.94.37-1.94-1.22,1.84.81,0-1.6,1.64-1.62a1.21,1.21,0,0,1-1.14-.19c-.05-.19.11-.32.24-.39-1.63-1.66-1.07,1.65-3,1.34.37-.85-.2-1.73-.53-1.59.75.13.15,1.52-.64,2.09-1.12-.86-1.4.32-2,.14l.68.43c-.38.84-1,.64-1.87.79,0-.69.85-.36.59-.7-1.19,1.4-1.88-1.91-3.36-1.06-.51-.68.21-1.65-.26-2.13-1.65.91-1.38-1.39-3.06-.75.23,1.26.36,1-.92,1.92l1.33-.16,1.34-.23c-.64.48-1.28,1-1.92,1.45.76.17,1.75-.49,2.17-.22-.94.85-.81.57-.61,1.6-.37-1-.94-.77-1.54-.54s-1.22.51-1.72-.2l.55-2.9c-1.56-1.66-3.47.85-5.68-.35l.65.65c-.54,1.09-1.48-.12-2.33.19.26-.95-.14-1.4-.34-2.06-.11.72-1.7-.41-2.32,1.48l-.77-1.48c-1.77-.91-2.77,2.33-4.52,1.6.78-.92.11-1.77,1.5-2.27-.61-.12-1.11-.44-1.27.22-.21-.69-2,.87-2.31-.18-.35.36-.67,1.34-1.33,1.09a.9.9,0,0,1,.12-.47c-.12.47-1.22.37-.89,1.58-1.12-3.46-5.27-1.11-6.22-4.08a26.42,26.42,0,0,1-4.28-.34c.16-.27.14-.47.34-.32-1.39-1.33-1.78,2.43-3.36.88-.5-1.82,1.23-.52.81-1.28.65-3.2-2.36-.27-3-2.47l.35-.09c-.62-1.35-2.66.46-4.15-.25a1.05,1.05,0,0,0,.16-.46c-1.56,1.25-3.75,1.14-5.39,1.11.87-1.06.89-.42,1-1.74-.73,0-.46,2-1.92,2-.22-.78-1-1.73-.65-3.07.42.12.84.26,1.26.37-.06-1.9-1.61-.52-2.16-1l.33-.71c-2-.45-2.65,1.39-4.64.5v.64c-1.79,1.41-.56-1.38-2.18-.43l.35-2a19.27,19.27,0,0,1-4.71.69c1.29-1.09,3.09-1.22,4.35-1.68-.72-.28-2.52-.77-3.25,0,.36-.06.91-.38,1.09,0a4.19,4.19,0,0,1-4.35.81c1.67-3.45-3.36-2.48-3.25-5.67-3.05.24-4.71-2.67-7.7-3.69-.21,3.16-.88-.3-2,2.54-.75-.15-1-.32-1-.53l-1.24-2.63c-.1-1,.92-.31,1.15-1-1.35-.91,0-1.46-.65-2.66-.28,1.08-1.18,1.17-1.82.39l.54,1.84c-2.74.47-.62-3.16-3.36-2.7l1.07-.55c-1.29,0-3.84-1.86-6-.22,0-.42.13-1.29.68-1.24-2.25-1.65-6.67-.67-7.85-3l.55-.55c-.56-.06-1.48.79-1.68-.18.18-.25.55-.55.36-.7-.36.09-1.86.47-2.24-.24l.93-.44a3.62,3.62,0,0,0-3.28-1.08,9.12,9.12,0,0,1-3.57,0c1.14-1.88-.3-3.61-1-4.46l.2-.25a8.32,8.32,0,0,0-4.09-1.42,27,27,0,0,1-4.35-.77c-.18-3-4.56-4.26-6.18-7,.12.59-1,1.35-1.6,1.22-.29-.77-2.42.11-1.15-1.46l.17.18c.74-1.92-.69-2.32-1.54-3l-1.71,2c0-2.4-1.74-3.23-3.37-3.94s-3.1-1.37-2.65-3.2c-.95.08-1.61-.46-2.56-.38l.91-1.08a12.79,12.79,0,0,0-3.95-3.45l1-.47c-1-.89-3.92,2-4.92,1.29l1.09-1.86c-1.79-1.52-2.33-4.46-5.34-4.55.23-.2.69-.61,1-.43-.4-.39-1-1.33-1.61-1.92s-1.4-.78-2.24.42c1.26-1.41-1.63-1.79-3.13-2.06l1.1-.88c-2,.56-2.36.89-3.79.21-.14-.37.55-1,.64-.43-.35-1.34-1.59.31-2.12-1.21l1-.27c-.81-.91-1.06-.52-2.26-.25-.94-.15-1.38-1.91-.61-2.92-.66.42-1.86.67-2.11-.1a1,1,0,0,1,.86-.43c-.74-2.11-3.29-1-3.29-3a1.37,1.37,0,0,0,.44-.75,11.05,11.05,0,0,1,1.81,2.14c.92-.89.17-2,2.17-2.47-1.41-.07-4.22.14-4.62-1.23a1.67,1.67,0,0,1,.21-.43h.19a.7.7,0,0,0-.69-.45,2.46,2.46,0,0,0-.43-1c.68-.83-.58-1.48-1-2-1,1-1.41.21-1.73,1.58,0-.15.21,0,.55.25a.55.55,0,0,0,.29.11l-.12,0c.32.29.72.68,1.16,1.13-.87.11-1.68.11-1.59-.94-.89.36-1.83.71-2.29.85.84-2,.47-4,1.21-4.93-1.93-.93-3.43-3.17-6.27-2.4-.62-.21.16-1,.33-1.41.42.08.64.4,1,.28-1.25-.41-2.38-2.36-4-1.39-.26-1.64,1.81-.46.34-1.79l.6-.15c-.06-2.44-1.94-2.9-3.8-3.49s-3.67-1.34-3.45-4.2c0,.38,0,.56-.21.8-.81-2.45-2.66-4.2-4.31-6.1a20.51,20.51,0,0,1-2.3-3,8.65,8.65,0,0,1-1.18-3.62c-.32-1.43-1.38-.89-2.6-1.1l1.1-1.07-2.23-.25c-2.17-1,1.24-4.92-2.11-5.83l-.7.81c-.32-.89-2-2.2-.93-2.66-.21,0-1.06.27-.78-.31l.67-.42-2.3-1.28c-.34-1.81,2.86-1.3,1.81-3.55-.71-.67-3.23-1.23-3.55-.71a1.36,1.36,0,0,1-.71,1.46l-.76-.59c-2.15.87-4.66,1.25-5,4.1q1,.39,2,.72l-.75,1-.7-1.13c-.58,1.16.48,1.14,1.3,1.29a1.92,1.92,0,0,0-.77,1.19l2.69.23c-.69.62-1.91.3-1.83,1.44,1.25.11,1.43-1.6,2.6-.92-.54,1.17-1.39,1.42-.18,1.72a1.12,1.12,0,0,1-1.28.27c1,.32,1.32,1.61,2.59,1.32-.72,1.33,1.63,2.05-.28,3.14a4.19,4.19,0,0,1,2.66.78c-2.93.32,1.29,2.31-1.27,3.56,2.49-.47,2.81,2.31,4.84,3-.2,0-.62.09-.61-.1.37.9-.06,1.53-.08,2.3,1.67-1,2.89,0,4.34-.11-.86,2-2.29.75-3.56,2.09,1.26-1,2.48.75,3.32-.34-.43,1.4,0,.95-1.07,2.27,2.08-1.3.83.44,2.47.16-.21,1.75-1.67,1.63-.21,2.33C719.87,1777.65,718.4,1777.16,718.4,1777.16Zm24.89,23.15,0,0-.52-.46Zm2,2a7.08,7.08,0,0,0-.81-.91c.28-.4.72-.67.89-.46C745,1801.07,745.25,1801.73,745.25,1802.32Zm3.09-10.94c.43.18.33.47.16.71a4.06,4.06,0,0,0-.64-.44l-.16.08A2.75,2.75,0,0,1,748.34,1791.38Z"/><path class="cls-20" d="M746.46,1792.05c-.07,0-.14,0-.2-.06a3.39,3.39,0,0,0-.06.41l.43-.19Z"/><path class="cls-20" d="M969,1886l-.06,0a.48.48,0,0,1,.12.2A.7.7,0,0,1,969,1886Z"/><polygon class="cls-20" points="772.35 1830.46 772.57 1830.18 772.18 1830.27 772.35 1830.46"/><path class="cls-20" d="M984.37,1890.55a.79.79,0,0,0,.22.35A.74.74,0,0,0,984.37,1890.55Z"/><path class="cls-20" d="M991,1890.46l1,.44A3.6,3.6,0,0,0,991,1890.46Z"/><path class="cls-20" d="M996.18,1890.84a3.61,3.61,0,0,0,.05-.6h0Z"/><path class="cls-20" d="M914.63,1889.67a.45.45,0,0,0-.2,0C913.92,1889.91,914.25,1889.85,914.63,1889.67Z"/><path class="cls-20" d="M939.12,1889.16a4,4,0,0,1-.83.59C938.71,1889.9,939.05,1890,939.12,1889.16Z"/><path class="cls-20" d="M887.46,1886.25v0l-.17,0Z"/><path class="cls-20" d="M937.18,1889.62a1,1,0,0,0,1.11.13A1.4,1.4,0,0,0,937.18,1889.62Z"/><path class="cls-20" d="M1018.34,1889.38l.25,0a.59.59,0,0,1,0-.23Z"/><path class="cls-20" d="M1018.59,1889.18l.25-.19C1018.72,1889,1018.61,1889,1018.59,1889.18Z"/><path class="cls-20" d="M1019.37,1888.57l-.53.42C1019,1889,1019.29,1889,1019.37,1888.57Z"/><path class="cls-20" d="M1011.52,1889.47l0,.52A1.6,1.6,0,0,0,1011.52,1889.47Z"/><path class="cls-20" d="M1009.49,1889.84c.5.07,1.34,1,2,.56l0-.41C1011.26,1890.78,1009.87,1888.94,1009.49,1889.84Z"/><path class="cls-20" d="M1000.43,1884.41l1.73.3c-.34-.52-.79-1.22,0-1.4C999.86,1881.83,1002.67,1884.49,1000.43,1884.41Z"/><path class="cls-20" d="M995.11,1883.94c.89-.3-.06-.78,0-1.09C994.53,1883.38,994.4,1883.51,995.11,1883.94Z"/><path class="cls-20" d="M957.11,1884.76l.12-1.28C956.53,1883.64,957.21,1884,957.11,1884.76Z"/><polygon class="cls-20" points="949.52 1891.07 950.18 1891.89 950.57 1890.73 949.52 1891.07"/><polygon class="cls-20" points="945.71 1881.8 946.02 1881.63 944.83 1882.05 945.71 1881.8"/><path class="cls-20" d="M883.19,1872.43,883,1874C883.52,1873.85,884.06,1872.16,883.19,1872.43Z"/><path class="cls-20" d="M856.57,1865.84c0-.85-.56-1.59-1.27-1C855.84,1865.13,856.21,1865.92,856.57,1865.84Z"/><polygon class="cls-20" points="785.9 1824.92 786.66 1824.82 785.57 1824.56 785.9 1824.92"/><polygon class="cls-22" id="star3" points="1741.68 1581.32 1774 1599 1741.68 1616.68 1724 1649 1706.32 1616.68 1674 1599 1706.32 1581.32 1724 1549 1741.68 1581.32"/></svg>