<svg xmlns="http://www.w3.org/2000/svg" viewBox="0 0 2048 2048"><defs><style>.cls-1{fill:#606074;}.cls-2{fill:#525264;}.cls-3{fill:#c7c8c9;}.cls-4{fill:#adadad;}.cls-5{fill:#dadada;}.cls-6{fill:silver;}.cls-7{fill:#ff7fff;}.cls-8{fill:#2e6fd6;}.cls-9{fill:#2963b7;}.cls-10{fill:#00ff85;stroke:#00ff85;stroke-width:40px;}.cls-10,.cls-11{stroke-miterlimit:10;}.cls-11{fill:none;stroke:#b28dff;stroke-width:150px;}
#Layer_12 .cls-10:nth-child(1) {animation: loadOne 10s infinite; }
#Layer_12 .cls-10:nth-child(2) {animation: loadTwo 10s infinite; }
#Layer_12 .cls-10:nth-child(3) {animation: loadThree 10s infinite; }

#Layer_13 .cls-11:nth-child(1) {animation: loadOne 10s infinite; }
#Layer_13 .cls-11:nth-child(2) {animation: loadTwo 10s infinite; }
#Layer_13 .cls-11:nth-child(3) {animation: loadThree 10s infinite; }

@keyframes loadOne {
    0% {
        opacity: 0;
    }

    19% {
        opacity: 0;
    }

    20% {
        opacity: 1;
    }

    40% {
        opacity: 1;
    }

    60% {
        opacity: 1;
    }

    80% {
        opacity: 1;
    }

    100% {
        opacity: 1;
    }    
}

@keyframes loadTwo {
    0% {
        opacity: 0;
    }

    20% {
        opacity: 0;
    }
    
    39% {
        opacity: 0;
    }

    40% {
        opacity: 1;
    }

    60% {
        opacity: 1;
    }

    80% {
        opacity: 1;
    }

    100% {
        opacity: 1;
    }    
}

@keyframes loadThree {
    0% {
        opacity: 0;
    }

    20% {
        opacity: 0;
    }

    40% {
        opacity: 0;
    }
    
    59% {
        opacity: 0;
    }

    60% {
        opacity: 1;
    }

    80% {
        opacity: 1;
    }

    100% {
        opacity: 1;
    }    
}

</style></defs><g id="Layer_11" data-name="Layer 11"><path class="cls-1" d="M193.46,1269.4H335.38a10.45,10.45,0,0,1,10.45,10.45v181.44a10.45,10.45,0,0,1-10.45,10.46H193.46A10.46,10.46,0,0,1,183,1461.29V1279.85A10.45,10.45,0,0,1,193.46,1269.4Z"/><path class="cls-2" d="M1146.06,1269.4H1288a10.45,10.45,0,0,1,10.46,10.45v181.44a10.46,10.46,0,0,1-10.46,10.46H1146.06a10.45,10.45,0,0,1-10.45-10.46V1279.85A10.45,10.45,0,0,1,1146.06,1269.4Z"/><path class="cls-3" d="M352,1699.07l-56.44,157a10.46,10.46,0,0,0,9.84,14H740.72l73.13-85.51-73.13-113.35Z"/><path class="cls-4" d="M1129.49,1699.07l56.44,157a10.46,10.46,0,0,1-9.84,14H740.72V1671.18Z"/><path class="cls-5" d="M740.72,900.45c-272.79,0-493.93,221.14-493.93,493.93A491.81,491.81,0,0,0,352,1699.07H740.72l155.39-394.88Z"/><path class="cls-6" d="M740.72,900.45v798.62h388.77a491.75,491.75,0,0,0,105.16-304.69c0-272.79-221.14-493.93-493.93-493.93Z"/><circle class="cls-7" cx="392.64" cy="1784.56" r="27.5"/><path class="cls-1" d="M372.8,1635V1189.4l14-8c106.34-60.78,228.71-92.91,353.91-92.91l104.5,273.57L740.72,1635Z"/><path class="cls-2" d="M740.72,1635v-546.5c125.2,0,247.58,32.13,353.91,92.91l14,8V1635Z"/><path class="cls-8" d="M740.72,1115.86c-124.06,0-240,32.51-338.64,88.89V1607.6H740.72l104.5-226.72Z"/><path class="cls-9" d="M740.72,1607.6h338.64V1204.76c-98.64-56.39-214.58-88.89-338.64-88.89Z"/><polygon class="cls-5" points="740.72 906.5 719.81 906.5 719.81 781.71 740.72 781.71 746.92 846.16 740.72 906.5"/><rect class="cls-6" x="740.72" y="781.71" width="20.91" height="124.79"/><circle class="cls-6" cx="741.59" cy="789.09" r="56.86"/><path class="cls-5" d="M741,846a56.86,56.86,0,1,1,0-113.72"/></g><g id="Layer_12" data-name="Layer 12"><path class="cls-10" d="M550.21,1296.66q0,9.21-5.65,14a19.42,19.42,0,0,1-13,4.81,20.22,20.22,0,0,1-7.11-1.25,18.21,18.21,0,0,1-6-3.66,18,18,0,0,1-4.18-5.86,19.21,19.21,0,0,1-1.57-8,18.75,18.75,0,0,1,1.57-7.85,16.81,16.81,0,0,1,4.18-5.75,19,19,0,0,1,6-3.55,20,20,0,0,1,7.11-1.26,19.47,19.47,0,0,1,13,4.81Q550.2,1287.88,550.21,1296.66Z"/><path class="cls-10" d="M759.35,1296.66q0,9.21-5.64,14a19.42,19.42,0,0,1-13,4.81,20.22,20.22,0,0,1-7.11-1.25,18.21,18.21,0,0,1-6-3.66,18,18,0,0,1-4.19-5.86,19.37,19.37,0,0,1-1.57-8,18.9,18.9,0,0,1,1.57-7.85,16.83,16.83,0,0,1,4.19-5.75,19,19,0,0,1,6-3.55,20,20,0,0,1,7.11-1.26,19.47,19.47,0,0,1,13,4.81Q759.35,1287.88,759.35,1296.66Z"/><path class="cls-10" d="M968.5,1296.66q0,9.21-5.65,14a19.4,19.4,0,0,1-13,4.81,20.22,20.22,0,0,1-7.11-1.25,18.21,18.21,0,0,1-6-3.66,18,18,0,0,1-4.18-5.86,19.21,19.21,0,0,1-1.57-8,18.75,18.75,0,0,1,1.57-7.85,16.81,16.81,0,0,1,4.18-5.75,19,19,0,0,1,6-3.55,20,20,0,0,1,7.11-1.26,19.45,19.45,0,0,1,13,4.81Q968.49,1287.88,968.5,1296.66Z"/></g><g id="Layer_13" data-name="Layer 13"><path class="cls-11" d="M880.06,746.88h0c267,0,483.42,216.44,483.42,483.43h0"/><path class="cls-11" d="M880.06,490.52h0c408.57,0,739.79,331.21,739.79,739.79h0"/><path class="cls-11" d="M880.06,246.37h0c543.42,0,983.94,440.52,983.94,983.94h0"/></g></svg>