<svg id="Layer_5" data-name="Layer 5" xmlns="http://www.w3.org/2000/svg" viewBox="0 0 2048 2048"><defs><style>.cls-1{fill:#606074;}.cls-2{fill:#525264;}.cls-3{fill:#c7c8c9;}.cls-4{fill:#adadad;}.cls-5{fill:#dadada;}.cls-6{fill:silver;}.cls-7{fill:#ff7fff;}.cls-8{fill:#2e6fd6;}.cls-9{fill:#2963b7;}.cls-10{fill:#00ff85;}.cls-11{fill:#cc0;}</style></defs><path class="cls-1" d="M117.2,1344.49,286.06,1284a13.21,13.21,0,0,1,16.9,8l77.33,215.89a13.22,13.22,0,0,1-8,16.9l-168.87,60.48a13.22,13.22,0,0,1-16.9-8l-77.33-215.89A13.22,13.22,0,0,1,117.2,1344.49Z"/><path class="cls-2" d="M1250.66,938.5,1419.52,878a13.22,13.22,0,0,1,16.9,8l77.33,215.89a13.22,13.22,0,0,1-8,16.9l-168.86,60.48a13.22,13.22,0,0,1-16.9-8L1242.67,955.4A13.21,13.21,0,0,1,1250.66,938.5Z"/><path class="cls-3" d="M488.9,1788.19,488.65,1999a13.22,13.22,0,0,0,17.67,12.46l518-185.55L1092,1674l-152.4-84.68Z"/><path class="cls-4" d="M1414.06,1456.81l134.06,162.72a13.22,13.22,0,0,1-5.75,20.85l-518,185.55L939.6,1589.32Z"/><path class="cls-5" d="M611.12,672.26c-324.58,116.26-493.45,473.63-377.19,798.21a621.49,621.49,0,0,0,255,317.72L951.48,1622.5,975,1065Z"/><path class="cls-6" d="M611.12,672.26,951.48,1622.5l462.58-165.69a621.54,621.54,0,0,0-4.74-407.35C1293.07,724.88,935.7,556,611.12,672.26Z"/><circle class="cls-7" cx="573.75" cy="1872.56" r="34.76" transform="translate(-1156.05 954.16) rotate(-45)"/><path class="cls-1" d="M486.4,1703.05,296.5,1172.87l13.26-15.5c100.61-117.64,232.53-208,381.5-261.38L972,1129l-47.83,417.25Z"/><path class="cls-2" d="M924.17,1546.25,691.26,896c149-53.35,308.27-67.28,460.69-40.28l20.08,3.56,189.9,530.17Z"/><path class="cls-8" d="M702.93,928.57c-147.62,52.88-271.71,141-365,250.09L509.57,1658,912.5,1513.66,1024,1129Z"/><path class="cls-9" d="M912.5,1513.66l402.93-144.32L1143.74,890c-141.39-25-293.2-14.32-440.81,38.56Z"/><path class="cls-10" d="M469.88,1193.79l-.71-32,184.46,10.67,10.54,29.45L528.44,1327.24,508.66,1302l112-101.43Z"/><circle class="cls-6" cx="565.7" cy="543.39" r="71.86"/><path class="cls-5" d="M589.2,611.31A71.86,71.86,0,0,1,540.73,476"/><path class="cls-11" d="M1496.69,706.16q-13.7-4.78-17.89-15.51t2.78-23.13a35.36,35.36,0,0,1,19.05-17.44q12.55-4.89,26.26-.11l14.16,4.94q14.16,4.94,18.13,15.59t-2.38,22.73A38.18,38.18,0,0,1,1537,710.67a37.13,37.13,0,0,1-26.57.26ZM1531.79,604l45.15-85.4,30.69,10.71q26.91,9.39,50.1,1.33t36-31.13q11.85-23.38,3.28-42.8t-35.5-28.8l-64.67-22.57,24.66-44.88,63.26,22.07q50.51,17.63,66.84,54.3t-6.89,80.47q-14.45,26.2-37.12,42.65a117.08,117.08,0,0,1-49.7,21q-27,4.62-55.21-4.16l-23.22,43.79Z"/><polygon class="cls-11" points="296.5 166.5 331.86 156.15 321.5 191.5 331.86 226.85 296.5 216.5 261.14 226.85 271.5 191.5 261.14 156.15 296.5 166.5"/><polygon class="cls-11" points="1820.1 1776 1855.46 1765.64 1845.1 1801 1855.46 1836.36 1820.1 1826 1784.75 1836.36 1795.1 1801 1784.75 1765.64 1820.1 1776"/><polygon class="cls-11" points="939.1 320 974.46 309.64 964.1 345 974.46 380.36 939.1 370 903.75 380.36 914.1 345 903.75 309.64 939.1 320"/><polygon class="cls-5" points="613.7 679.46 588.81 688.38 535.63 539.89 560.51 530.98 599 597 613.7 679.46"/><rect class="cls-6" x="586.33" y="521.91" width="26.43" height="157.72" transform="translate(-167.47 237.36) rotate(-19.71)"/></svg>