<svg id="Layer_8" data-name="Layer 8" xmlns="http://www.w3.org/2000/svg" viewBox="0 0 2048 2048"><defs><style>.cls-1{fill:#606074;}.cls-2{fill:#525264;}.cls-3{fill:#c7c8c9;}.cls-4{fill:#adadad;}.cls-5{fill:#dadada;}.cls-6{fill:silver;}.cls-7{fill:#ff7fff;}.cls-8{fill:#2e6fd6;}.cls-9{fill:#2963b7;}.cls-10{fill:#00ff85;}</style></defs><path class="cls-1" d="M1939.43,926.13l-225.71,63.18a17.27,17.27,0,0,1-21.29-12l-80.78-288.57a17.27,17.27,0,0,1,12-21.29l225.72-63.18a17.26,17.26,0,0,1,21.28,12l80.79,288.57A17.28,17.28,0,0,1,1939.43,926.13Z"/><path class="cls-2" d="M424.38,1350.25l-225.72,63.18a17.26,17.26,0,0,1-21.28-12L96.59,1112.89a17.28,17.28,0,0,1,12-21.29l225.71-63.18a17.27,17.27,0,0,1,21.29,12L436.35,1329A17.27,17.27,0,0,1,424.38,1350.25Z"/><path class="cls-3" d="M1496.06,313.32l19.88-274.78a17.27,17.27,0,0,0-21.88-17.88L801.63,214.5l88.53,316.27Z"/><path class="cls-4" d="M259.43,659.5,99.78,435a17.27,17.27,0,0,1,9.42-26.64L801.63,214.5l88.53,316.27Z"/><path class="cls-5" d="M1233.31,1756.56C1667.16,1635.11,1920.41,1185,1799,751.1a812.25,812.25,0,0,0-302.9-437.78L877.75,486.41Z"/><path class="cls-6" d="M1233.31,1756.56,877.75,486.41,259.43,659.5a812.28,812.28,0,0,0-31.59,531.41C349.3,1624.76,799.46,1878,1233.31,1756.56Z"/><circle class="cls-7" cx="1393.29" cy="195.49" r="45.42" transform="translate(269.86 1042.46) rotate(-45)"/><path class="cls-1" d="M1491.43,424.54l198.38,708.66-18.72,19c-142,144-322.38,249.59-521.5,305.33L906.28,588.34Z"/><path class="cls-2" d="M906.28,588.34l243.31,869.17c-199.11,55.74-408,59.13-604.23,9.8l-25.84-6.5L321.13,752.15Z"/><path class="cls-8" d="M1137.4,1414c197.31-55.23,367.23-158.55,499-292.14L1457.05,481.13,918.47,631.9l100.65,359.52Z"/><path class="cls-9" d="M918.47,631.89,379.89,782.66l179.35,640.7c182,45.75,380.85,45.83,578.16-9.4Z"/><path class="cls-10" d="M1222.51,927.8q8.64,9.53,20.41,20.59t25.14,22.55q13.39,11.49,27.52,22.49t27.53,20.39q6.41-15.55,13.62-32.51t13.5-34q6.32-17,11.45-32.79t8.29-28l47.12-13.2a610.52,610.52,0,0,1-25.46,81q-16.47,42.56-33.13,81.31l126.72,96.05-51.56,14.43-94.43-70.41-38.62,107.66L1251.83,1197l51.45-142.93q-34.11-25.74-69.26-54.15a605.49,605.49,0,0,1-62.52-57.82Z"/><path class="cls-10" d="M668.12,1083q8.65,9.52,20.41,20.59t25.15,22.56q13.38,11.49,27.51,22.48T768.72,1169q6.4-15.54,13.62-32.5t13.51-34q6.3-17,11.44-32.79t8.3-28l47.12-13.19a612.35,612.35,0,0,1-25.46,81q-16.47,42.57-33.14,81.31l126.73,96-51.56,14.43-94.44-70.41-38.61,107.66-48.79,13.66,51.46-142.94q-34.11-25.74-69.26-54.15a603.36,603.36,0,0,1-62.52-57.82Z"/><rect class="cls-5" x="1257.76" y="1738.47" width="34.54" height="206.1" transform="translate(2999.28 3271.16) rotate(164.36)"/><rect class="cls-6" x="1224.49" y="1747.78" width="34.54" height="206.1" transform="translate(2936.5 3298.4) rotate(164.36)"/><circle class="cls-6" cx="1281.5" cy="1934.06" r="93.91"/><path class="cls-5" d="M1257.16,1843.35a93.91,93.91,0,1,1,50.63,180.86"/></svg>