<svg id="Layer_7" data-name="Layer 7" xmlns="http://www.w3.org/2000/svg" viewBox="0 0 2048 2048">
    <defs>
        <style>
            .cls-1 {
                fill: #606074;
            }

            .cls-2 {
                fill: #525264;
            }

            .cls-3 {
                fill: #c7c8c9;
            }

            .cls-4 {
                fill: #adadad;
            }

            .cls-5 {
                fill: #dadada;
            }

            .cls-6 {
                fill: silver;
            }

            .cls-7 {
                fill: #ff7fff;
            }

            .cls-8 {
                fill: #2e6fd6;
            }

            .cls-9 {
                fill: #2963b7;
            }

            .cls-10 {
                fill: #00ff85;
            }

            #big, #icon {
                transform-origin: 719px 873px !important;
                animation: rotate 100s infinite linear;
            }

            #top {
                transform-origin: 1549px 410px !important;
                animation: rotate 50s infinite linear reverse;
            }

            #bottom {
                transform-origin: 1244px 1676px !important;
                animation: rotate 50s infinite linear reverse;
            }

            @keyframes rotate {
                0% {
                    transform: rotate(0deg);
                }

                100% {
                    transform: rotate(360deg);
                }
            }
        </style>
    </defs>
    <g id="icon">
        <path class="cls-1"
            d="M910.56,826.86l-41,23.47a3.47,3.47,0,0,1-4.75-1.29l-30-52.39a3.5,3.5,0,0,1,1.29-4.75l41-23.47a3.47,3.47,0,0,1,4.75,1.29l30,52.39A3.49,3.49,0,0,1,910.56,826.86Z" />
        <path class="cls-2"
            d="M635.49,984.43l-41,23.48a3.48,3.48,0,0,1-4.75-1.29l-30-52.39a3.49,3.49,0,0,1,1.29-4.75L602,926a3.48,3.48,0,0,1,4.75,1.29l30,52.39A3.49,3.49,0,0,1,635.49,984.43Z" />
        <path class="cls-3" d="M793.72,729l-9.67-54.66a3.48,3.48,0,0,0-5.16-2.41L653.18,744l-10.53,42.5,43.42,14.92Z" />
        <path class="cls-4" d="M569.2,857.62l-42.27-36a3.48,3.48,0,0,1,.53-5.67l125.72-72,32.89,57.42Z" />
        <path class="cls-5" d="M813.56,1023.92A164.38,164.38,0,0,0,793.72,729L681.46,793.31l19.64,145.6Z" />
        <path class="cls-6" d="M813.56,1023.92,681.46,793.31,569.2,857.62a164.37,164.37,0,0,0,244.36,166.3Z" />
        <circle class="cls-7" cx="767.83" cy="711.05" r="9.15" />
        <path class="cls-1"
            d="M798.3,751,872,879.62l-2.72,4.63a237.55,237.55,0,0,1-86.82,85.37l-83.54-47.43-6.86-110.37Z" />
        <path class="cls-2" d="M692.06,811.82l90.4,157.8a237.61,237.61,0,0,1-117.56,31.72h-5.37L585.82,872.68Z" />
        <path class="cls-8" d="M777.93,961.72A226.68,226.68,0,0,0,861,880L794.37,763.71l-97.78,56L685.44,924.59Z" />
        <path class="cls-9" d="M696.59,819.73l-97.79,56,66.64,116.32a226.61,226.61,0,0,0,112.49-30.34Z" />
        <path class="cls-10" d="M826.09,882.21l1.66,8.27-48.3,5.75-4.1-7.15,29.4-38.76,6.29,5.62L786.69,887.4Z" />
        <circle class="cls-6" cx="831.28" cy="1055.23" r="18.92" />
        <path class="cls-5" d="M822.06,1038.71a18.92,18.92,0,0,1,18.81,32.83" />
        <polygon class="cls-5"
            points="812.56 1022.17 818.6 1018.71 839.24 1054.75 833.2 1058.21 820.18 1042.87 812.56 1022.17" />
        <rect class="cls-6" x="816.38" y="1021.15" width="6.96" height="41.53"
            transform="translate(2049.17 1538.48) rotate(150.19)" />
    </g>
    <path id="top" class="cls-6"
        d="M1887.48,339.41h-64.61A280.85,280.85,0,0,0,1792.35,266l47.2-47.2a15,15,0,0,0,0-21.21l-78.76-78.77a15,15,0,0,0-21.22,0l-47.38,47.39a280.93,280.93,0,0,0-73.3-30.2V71.62a15,15,0,0,0-15-15H1492.5a15,15,0,0,0-15,15v64.83a280.84,280.84,0,0,0-72.71,30.38l-48-48a15,15,0,0,0-21.21,0l-78.77,78.77a15,15,0,0,0,0,21.21L1305.05,267a280.6,280.6,0,0,0-29.92,72.37h-64.61a15,15,0,0,0-15,15V465.8a15,15,0,0,0,15,15h64.61a281,281,0,0,0,30,72.5l-48.29,48.29a15,15,0,0,0,0,21.21l78.77,78.76a15,15,0,0,0,21.21,0l48.11-48.1a281.31,281.31,0,0,0,72.58,30.3v64.82a15,15,0,0,0,15,15h111.39a15,15,0,0,0,15-15V684.17a280.89,280.89,0,0,0,73.18-30.11l47.5,47.5a15,15,0,0,0,21.22,0l78.76-78.76a15,15,0,0,0,0-21.21l-47.27-47.28a281,281,0,0,0,30.59-73.51h64.61a15,15,0,0,0,15-15V354.41A15,15,0,0,0,1887.48,339.41ZM1549,581.79A171.69,171.69,0,1,1,1720.69,410.1,171.69,171.69,0,0,1,1549,581.79Z" />
    <path id="bottom" class="cls-6"
        d="M1582.29,1605.51h-64.6a281.22,281.22,0,0,0-30.53-73.39l47.2-47.2a15,15,0,0,0,0-21.21l-78.76-78.77a15,15,0,0,0-21.22,0L1387,1432.33a280.93,280.93,0,0,0-73.3-30.2v-64.41a15,15,0,0,0-15-15H1187.31a15,15,0,0,0-15,15v64.83a280.84,280.84,0,0,0-72.71,30.38l-48-48a15,15,0,0,0-21.21,0l-78.77,78.77a15,15,0,0,0,0,21.21l48.22,48.22a281,281,0,0,0-29.92,72.37H905.33a15,15,0,0,0-15,15V1731.9a15,15,0,0,0,15,15h64.61a280.88,280.88,0,0,0,30,72.49l-48.29,48.29a15,15,0,0,0,0,21.22l78.77,78.76a15,15,0,0,0,21.21,0l48.11-48.1a281.31,281.31,0,0,0,72.58,30.3v64.82a15,15,0,0,0,15,15H1298.7a15,15,0,0,0,15-15v-64.41a280.89,280.89,0,0,0,73.18-30.11l47.5,47.5a15,15,0,0,0,21.22,0l78.76-78.76a15,15,0,0,0,0-21.22l-47.27-47.27a281.36,281.36,0,0,0,30.6-73.51h64.6a15,15,0,0,0,15-15V1620.51A15,15,0,0,0,1582.29,1605.51Zm-338.48,242.38A171.69,171.69,0,1,1,1415.5,1676.2,171.69,171.69,0,0,1,1243.81,1847.89Z" />
    <path id="big" class="cls-6"
        d="M1267.35,758.28H1162.69a455.18,455.18,0,0,0-49.45-118.88l76.46-76.47a24.29,24.29,0,0,0,0-34.36L1062.1,401a24.29,24.29,0,0,0-34.36,0L951,477.72a455.58,455.58,0,0,0-118.75-48.91V324.47a24.3,24.3,0,0,0-24.3-24.3H627.47a24.3,24.3,0,0,0-24.3,24.3v105A455.12,455.12,0,0,0,485.39,478.7L407.66,401a24.31,24.31,0,0,0-34.37,0l-127.6,127.6a24.29,24.29,0,0,0,0,34.36L323.8,641a455.54,455.54,0,0,0-48.47,117.24H170.67a24.3,24.3,0,0,0-24.3,24.3V963a24.3,24.3,0,0,0,24.3,24.3H275.33a455.63,455.63,0,0,0,48.59,117.44L245.69,1183a24.31,24.31,0,0,0,0,34.37L373.29,1345a24.31,24.31,0,0,0,34.37,0L485.6,1267a455.45,455.45,0,0,0,117.57,49.09v105a24.3,24.3,0,0,0,24.3,24.3H807.93a24.3,24.3,0,0,0,24.3-24.3V1316.81A455.09,455.09,0,0,0,950.77,1268l77,77a24.29,24.29,0,0,0,34.36,0l127.6-127.6a24.31,24.31,0,0,0,0-34.37l-76.58-76.58a455.36,455.36,0,0,0,49.57-119.09h104.66a24.3,24.3,0,0,0,24.3-24.3V782.58A24.3,24.3,0,0,0,1267.35,758.28ZM719,1151c-153.61,0-278.14-124.53-278.14-278.14S565.4,594.67,719,594.67,997.15,719.2,997.15,872.81,872.62,1151,719,1151Z" />
</svg>