<svg xmlns="http://www.w3.org/2000/svg" viewBox="0 0 1600 1632.08"><defs><style>.a{fill:#606074;}.b{fill:#525264;}.c{fill:#c7c8c9;}.d{fill:#adadad;}.e{fill:#dadada;}.f{fill:silver;}.g{fill:#ff7fff;}.h{fill:#2e6fd6;}.i{fill:#2963b7;}.j{fill:#00ff85;}</style></defs><path class="a" d="M239,797.54H442.57a15,15,0,0,1,15,15V1072.8a15,15,0,0,1-15,15H239a15,15,0,0,1-15-15V812.54A15,15,0,0,1,239,797.54Z" transform="translate(-224 -27.03)"/><path class="b" d="M1605.43,797.54H1809a15,15,0,0,1,15,15V1072.8a15,15,0,0,1-15,15H1605.43a15,15,0,0,1-15-15V812.54A15,15,0,0,1,1605.43,797.54Z" transform="translate(-224 -27.03)"/><path class="c" d="M466.34,1413.88l-81,225.16a15,15,0,0,0,14.12,20.07H1024V1373.87Z" transform="translate(-224 -27.03)"/><path class="d" d="M1581.66,1413.88l81,225.16a15,15,0,0,1-14.12,20.07H1024V1373.87Z" transform="translate(-224 -27.03)"/><path class="e" d="M1024,268.32c-391.29,0-708.5,317.21-708.5,708.5a705.48,705.48,0,0,0,150.84,437.06H1024Z" transform="translate(-224 -27.03)"/><path class="f" d="M1024,268.32V1413.88h557.66A705.45,705.45,0,0,0,1732.5,976.82c0-391.29-317.21-708.5-708.5-708.5Z" transform="translate(-224 -27.03)"/><circle class="g" cx="524.71" cy="1536.49" r="39.45" transform="translate(-772.05 290.72) rotate(-22.5)"/><path class="a" d="M496.26,1321.94V682.8l20.09-11.49C668.88,584.12,844.42,538,1024,538v783.9Z" transform="translate(-224 -27.03)"/><path class="b" d="M1024,1321.94V538c179.58,0,355.12,46.08,507.65,133.27l20.09,11.49v639.14Z" transform="translate(-224 -27.03)"/><path class="h" d="M1024,577.32c-178,0-344.26,46.62-485.75,127.5v577.84H1024V577.32Z" transform="translate(-224 -27.03)"/><path class="i" d="M1024,1282.66h485.75V704.82C1368.26,624,1202,577.32,1024,577.32Z" transform="translate(-224 -27.03)"/><path class="j" d="M675.5,741.5l13-38.5,216,91.5v40L688.5,926l-13-38.5,177.5-73Z" transform="translate(-224 -27.03)"/><rect class="e" x="770" y="70.97" width="30" height="179"/><rect class="f" x="800" y="70.97" width="30" height="179"/><circle class="f" cx="801.25" cy="81.56" r="81.56"/><path class="e" d="M1024.37,190.15a81.56,81.56,0,1,1,0-163.12" transform="translate(-224 -27.03)"/></svg>