<svg xmlns="http://www.w3.org/2000/svg" viewBox="0 0 2000 2000">
    <defs>
        <style>
            .cls-1 {
                fill: #222;
            }

            .cls-2 {
                fill: #2f3136;
            }

            .cls-3 {
                fill: #b28dff;
            }

            .cls-4 {
                fill: #404049;
            }

            .cls-5 {
                fill: #fff;
            }

            .cls-6 {
                fill: #636b75;
            }

            .cls-7 {
                fill: #5865f2;
                opacity: 0.3;
            }

            .cls-8 {
                fill: #606074;
            }

            .cls-9 {
                fill: #525264;
            }

            .cls-10 {
                fill: #c7c8c9;
            }

            .cls-11 {
                fill: #adadad;
            }

            .cls-12 {
                fill: #dadada;
            }

            .cls-13 {
                fill: silver;
            }

            .cls-14 {
                fill: #ff7fff;
            }

            .cls-15 {
                fill: #2e6fd6;
            }

            .cls-16 {
                fill: #2963b7;
            }

            .cls-17 {
                fill: #00ff85;
            }

            .cls-18,
            .cls-19,
            .cls-21,
            .cls-22 {
                fill: none;
                stroke: #b28dff;
                stroke-miterlimit: 10;
            }

            .cls-18 {
                stroke-width: 4px;
            }

            .cls-19,
            .cls-21,
            .cls-22 {
                stroke-width: 5px;
            }

            .cls-20 {
                fill: #43b581;
            }

            .cls-21 {
                stroke-dasharray: 12.07 12.07;
            }

            .cls-22 {
                stroke-dasharray: 12.02 12.02;
            }

            #Icon {
                animation: upDown 13s ease-in infinite;
            }

            @keyframes upDown {
                0% {
                    transform: translateY(0);
                }

                40% {
                    transform: translateY(-20px);
                }

                80% {
                    transform: translateY(10px);
                }

                100% {
                    transform: translateY(0);
                }
            }

            @keyframes downUp {
                0% {
                    transform: translateY(0);
                }

                40% {
                    transform: translateY(20px);
                }

                80% {
                    transform: translateY(-10px);
                }

                100% {
                    transform: translateY(0);
                }
            }

            @keyframes leftRight {
                0% {
                    transform: translateX(0);
                }

                40% {
                    transform: translateX(-20px);
                }

                80% {
                    transform: translateX(10px);
                }

                100% {
                    transform: translateX(0);
                }
            }

            @keyframes rightLeft {
                0% {
                    transform: translateX(0);
                }

                40% {
                    transform: translateX(20px);
                }

                80% {
                    transform: translateX(-10px);
                }

                100% {
                    transform: translateX(0);
                }
            }

            @keyframes rotate {
                0% {
                    transform: rotate(0);
                }

                40% {
                    transform: rotate(4deg);
                }

                80% {
                    transform: rotate(-3deg);
                }

                100% {
                    transform: rotate(0);
                }
            }

            #Title-2,
            #Title {
                animation: downUp 10s ease-in infinite;
            }

            #Username-2,
            #Username {
                animation: rightLeft 15s ease-in infinite;
            }

            #Created-2,
            #Created {
                animation: upDown 22s ease-in infinite;
            }

            #Field-2,
            #Field {
                animation: rightLeft 17s ease-in infinite;
            }

            #Arrow {
                animation: rotate 17s ease-in-out infinite;
            }

            .cls-19, .cls-3, .cls-18 {
                stroke-width: 10px;
            }

            .cls-22, .cls-21 {
                animation: dash 60s linear infinite;
            }

            @keyframes dash {
                0% {
                    stroke-dashoffset: 0;
                }
                50% {
                    stroke-dashoffset: 1000;
                }
                100% {
                    stroke-dashoffset: 0;
                }
            }
        </style>
    </defs>
    <g id="Shadows">
        <rect id="Title" class="cls-1" x="325" y="344" width="750" height="100" rx="15" />
        <rect id="Username" class="cls-1" x="562" y="688" width="1110" height="86" rx="15" />
        <rect id="Created" class="cls-1" x="303" y="891" width="1161" height="85" rx="15" />
        <rect id="Field" class="cls-1" x="303" y="1012" width="401" height="85" rx="15" />
    </g>
    <g id="Embed">
        <rect id="Background" class="cls-1" x="504" y="394" width="1000" height="1300" rx="15" />
        <rect id="Foreground" class="cls-2" x="524" y="374" width="1000" height="1300" rx="15" />
        <path id="Border" class="cls-3"
            d="M539,374h0a0,0,0,0,1,0,0V1674a0,0,0,0,1,0,0h0a15,15,0,0,1-15-15V389a15,15,0,0,1,15-15Z" />
    </g>
    <g id="Title-2" data-name="Title">
        <rect class="cls-4" x="345" y="324" width="750" height="100" rx="15" />
        <path class="cls-5"
            d="M436.35,380.22c-.32-8.17-.62-17.89-.59-27.77h-.27c-2.15,8.63-5,18.21-7.52,26.16l-8.26,26.29H407.87l-7.26-26c-2.18-7.94-4.41-17.51-6.08-26.4h-.22c-.33,9.17-.7,19.57-1.11,28L391.94,406h-14.1l4.32-67.4h20.31l6.58,22.52c2.13,7.73,4.21,16.2,5.71,24.1h.33c1.84-7.8,4.12-16.69,6.41-24.2l7.16-22.42h19.93l3.62,67.4H437.4Z" />
        <path class="cls-5"
            d="M475.46,386.42c.45,6.31,6.69,9.31,13.79,9.31a40.84,40.84,0,0,0,13.47-2.07l2.06,10.3A47.63,47.63,0,0,1,487,407.05c-16.58,0-26.1-9.66-26.1-24.91,0-12.44,7.76-26.19,24.67-26.19,15.87,0,21.86,12.33,21.86,24.44a29.09,29.09,0,0,1-.55,6ZM493.32,376c0-3.66-1.61-9.92-8.53-9.92-6.43,0-9,5.87-9.46,9.92Z" />
        <path class="cls-5"
            d="M516.53,372.69c0-6.1-.19-11.25-.4-15.64H529l.64,6.63H530A17,17,0,0,1,544.73,356c6.36,0,11.29,3.25,13.4,8.39h.2a20.59,20.59,0,0,1,6.36-6A17.46,17.46,0,0,1,574,356c9.34,0,16.47,6.61,16.47,21.24V406h-14.8V379.42c0-7.09-2.28-11.21-7.2-11.21a7.43,7.43,0,0,0-7,5.3,13,13,0,0,0-.55,3.87V406H546.09V378.56c0-6.16-2.2-10.35-7.05-10.35-3.91,0-6.22,3-7.13,5.46a11.16,11.16,0,0,0-.57,3.86V406H516.53Z" />
        <path class="cls-5"
            d="M602.12,406c.22-3.24.4-9.06.4-14.62V335h15.23v27.89h.19c2.91-4.21,8-6.94,14.78-6.94,11.76,0,20.31,9.72,20.19,24.72,0,17.62-11.17,26.43-22.38,26.43-5.72,0-11.23-2.12-14.64-7.92h-.21L615,406Zm15.63-20.77a12.86,12.86,0,0,0,.26,2.67,9.32,9.32,0,0,0,9,7.25c6.46,0,10.49-5,10.49-13.84,0-7.62-3.4-13.62-10.46-13.62a9.34,9.34,0,0,0-9,7.51,13.91,13.91,0,0,0-.3,2.81Z" />
        <path class="cls-5"
            d="M674.36,386.42c.45,6.31,6.69,9.31,13.79,9.31a40.84,40.84,0,0,0,13.47-2.07l2,10.3a47.54,47.54,0,0,1-17.73,3.09c-16.58,0-26.1-9.66-26.1-24.91,0-12.44,7.75-26.19,24.67-26.19,15.86,0,21.85,12.33,21.85,24.44a29.26,29.26,0,0,1-.54,6ZM692.22,376c0-3.66-1.61-9.92-8.53-9.92-6.43,0-9,5.87-9.46,9.92Z" />
        <path class="cls-5"
            d="M715.42,373.19c0-7.19-.13-11.92-.4-16.14H728.1l.55,9.06H729C731.54,359,737.5,356,742.24,356a13.53,13.53,0,0,1,3.25.28v14.31a19.34,19.34,0,0,0-4.11-.42c-5.59,0-9.41,3-10.44,7.73a18.1,18.1,0,0,0-.28,3.38V406H715.42Z" />
        <path class="cls-5"
            d="M787.33,338.6h15.24v42.63c0,19.13-9.2,25.87-24,25.87a38.15,38.15,0,0,1-11.16-1.61l1.71-12.26a27.12,27.12,0,0,0,7.78,1.17c6.39,0,10.42-2.87,10.42-13.35Z" />
        <path class="cls-5"
            d="M862.81,381c0,17.88-12.67,26.06-25.8,26.06-14.24,0-25.27-9.41-25.27-25.22S822.16,356,837.89,356C852.85,356,862.81,366.26,862.81,381Zm-35.39.5c0,8.35,3.53,14.69,10,14.69,5.94,0,9.69-5.94,9.69-14.77,0-7.22-2.78-14.64-9.67-14.64C830.19,366.82,827.42,374.28,827.42,381.54Z" />
        <path class="cls-5"
            d="M887.9,343.46c0,4.24-3.11,7.6-8.18,7.6-4.82,0-7.94-3.36-7.92-7.6s3.17-7.62,8.05-7.62S887.84,339.1,887.9,343.46ZM872.23,406V357.05h15.24V406Z" />
        <path class="cls-5"
            d="M899.63,372.69c0-6.1-.19-11.25-.4-15.64h13.2l.7,6.78h.32A17.71,17.71,0,0,1,928.57,356c10,0,17.52,6.67,17.52,21.08v29H930.85V378.87c0-6.31-2.25-10.62-7.74-10.62-4.18,0-6.66,2.93-7.71,5.74a11,11,0,0,0-.53,3.77V406H899.63Z" />
        <path class="cls-5"
            d="M970,386.42c.46,6.31,6.7,9.31,13.8,9.31a40.88,40.88,0,0,0,13.47-2.07l2,10.3a47.54,47.54,0,0,1-17.73,3.09c-16.58,0-26.11-9.66-26.11-24.91,0-12.44,7.76-26.19,24.68-26.19C996,356,1002,368.28,1002,380.39a29.26,29.26,0,0,1-.54,6ZM987.82,376c0-3.66-1.61-9.92-8.54-9.92-6.43,0-9,5.87-9.45,9.92Z" />
        <path class="cls-5"
            d="M1058.43,335v56.38c0,5.56.19,11.34.4,14.62H1045.3l-.64-7.17h-.21c-3.08,5.49-9,8.27-15.32,8.27-11.55,0-20.9-9.92-20.9-25.13-.07-16.44,10.25-26,21.91-26,6,0,10.68,2.15,12.87,5.53h.2V335Zm-15.22,42.83a16.1,16.1,0,0,0-.2-2.76,9,9,0,0,0-8.82-7.44c-7,0-10.51,6.18-10.51,13.9,0,8.23,4.06,13.44,10.4,13.44a9,9,0,0,0,8.8-7.29,14.6,14.6,0,0,0,.33-3.45Z" />
    </g>
    <g id="Username-2" data-name="Username">
        <rect class="cls-4" x="582" y="668" width="1110" height="86" rx="15" />
        <path class="cls-5" d="M634.07,712.14H616.29V726h19.88v7.09H607.66V685.88h27.47V693H616.29v12.14h17.78Z" />
        <path class="cls-5" d="M643.56,683.36h8.63v49.71h-8.63Z" />
        <path class="cls-5"
            d="M680.72,733.07l-.59-3.8h-.21a12.44,12.44,0,0,1-10,4.57c-6.91,0-10.74-4.94-10.74-10.14,0-8.6,7.66-13,20.21-12.9v-.57c0-2.24-.89-6-6.92-5.94a18.21,18.21,0,0,0-9.16,2.54l-1.71-5.59a24.72,24.72,0,0,1,12.35-3c10.94,0,14.06,6.89,14.06,14.37v12.27a50.62,50.62,0,0,0,.53,8.21Zm-1.14-16.69c-6.08-.08-11.9,1.2-11.9,6.39a4.56,4.56,0,0,0,4.92,4.91,7,7,0,0,0,6.74-4.72,6.32,6.32,0,0,0,.24-1.87Z" />
        <path class="cls-5"
            d="M697.1,709.94c0-4.56-.09-7.92-.28-11h7.47l.31,6.47h.25c1.68-4.8,5.65-7.24,9.33-7.24a8.43,8.43,0,0,1,2,.18v8.12a12.07,12.07,0,0,0-2.53-.24A7.59,7.59,0,0,0,706,712.8a13.82,13.82,0,0,0-.22,2.59v17.68H697.1Z" />
        <path class="cls-5"
            d="M740.57,733.07l-.59-3.8h-.21a12.44,12.44,0,0,1-10,4.57c-6.92,0-10.75-4.94-10.75-10.14,0-8.6,7.67-13,20.22-12.9v-.57c0-2.24-.89-6-6.92-5.94a18.21,18.21,0,0,0-9.16,2.54l-1.71-5.59a24.69,24.69,0,0,1,12.35-3c10.93,0,14,6.89,14,14.37v12.27a51.78,51.78,0,0,0,.53,8.21Zm-1.14-16.69c-6.08-.08-11.9,1.2-11.9,6.39a4.56,4.56,0,0,0,4.92,4.91,7,7,0,0,0,6.74-4.72,6.67,6.67,0,0,0,.24-1.87Z" />
        <path class="cls-5"
            d="M758.81,733.07,760.62,720h-5.74v-5.43h6.63l1.22-8.88h-6V700.3h6.78l1.79-12.74h5.26l-1.77,12.74h6.82l1.79-12.74h5.28l-1.77,12.74h5.67v5.41h-6.49l-1.19,8.88h5.89V720H778l-1.77,13.07H770.9L772.71,720h-6.77l-1.77,13.07Zm14.79-18.48,1.19-8.88H768l-1.18,8.88Z" />
        <path class="cls-5" d="M805.64,695.35h-.14l-8.31,4.18-1.5-6.5,11.11-5.47H814v45.51h-8.34Z" />
        <path class="cls-5" d="M843.16,695.35H843l-8.31,4.18-1.5-6.5,11.11-5.47h7.18v45.51h-8.34Z" />
        <path class="cls-5"
            d="M894.88,693.68a27,27,0,0,0-4.38.22c-9.56,1.11-14.14,6.94-15.26,13.26h.19a13.16,13.16,0,0,1,10.25-4.37c7.84,0,13.94,5.59,13.94,14.79,0,8.72-6.37,16.26-16,16.26-11,0-17.16-8.38-17.16-19.64,0-8.75,3.16-15.86,7.9-20.39,4.18-3.95,9.7-6.21,16.19-6.72a27.6,27.6,0,0,1,4.36-.18Zm-4,24.38c0-5.26-2.9-9-7.92-9a8.35,8.35,0,0,0-7.45,4.73,5.71,5.71,0,0,0-.55,2.7c.15,6,3,10.93,8.56,10.93C888,727.41,890.87,723.53,890.87,718.06Z" />
        <path class="cls-5"
            d="M904.72,733.07v-5.23l5.4-5c10.7-9.9,15.75-15.36,15.81-21.37,0-4.12-2.19-7.66-8.14-7.66-4,0-7.44,2-9.71,3.79l-2.52-6.12a22.7,22.7,0,0,1,14-4.67c10.08,0,15,6.35,15,13.79,0,8-5.75,14.43-13.7,21.78l-3.94,3.45V726h18.64v7.12Z" />
        <path class="cls-5"
            d="M972.78,684.58c-4.47,6.66-7.85,15.88-7.85,28.49,0,12.4,3.47,21.54,7.85,28.28h-6.24c-4-5.6-8.52-14.74-8.52-28.31s4.47-22.82,8.52-28.46Z" />
        <path class="cls-5"
            d="M996.74,733.07V721.5H976.13v-5.61l18.58-28.33h10.17V715h5.86v6.53h-5.86v11.57Zm0-18.1V702.59c0-2.57.11-5.19.27-7.88l-.25,0c-1.44,2.86-2.61,5.18-4,7.69l-8.33,12.45,0,.14Z" />
        <path class="cls-5"
            d="M1044.24,694.71h-17.51l-1.33,9.09a25.85,25.85,0,0,1,3.29-.19,20.32,20.32,0,0,1,11,2.91c3.46,2.18,6,6.05,6,11.56,0,8.67-7.17,15.76-18.36,15.76a26,26,0,0,1-12.08-2.68l1.77-6.52a23,23,0,0,0,10,2.4c5,0,9.86-2.88,9.84-8.29,0-5.2-3.85-8.67-12.92-8.67a43.71,43.71,0,0,0-6.22.44l2.95-23h23.58Z" />
        <path class="cls-5"
            d="M1081.76,694.71h-17.51l-1.33,9.09a25.85,25.85,0,0,1,3.29-.19,20.32,20.32,0,0,1,11,2.91c3.46,2.18,6,6.05,6,11.56,0,8.67-7.17,15.76-18.36,15.76a26,26,0,0,1-12.08-2.68l1.77-6.52a23,23,0,0,0,10,2.4c5,0,9.86-2.88,9.84-8.29,0-5.2-3.85-8.67-12.92-8.67a43.71,43.71,0,0,0-6.22.44l3-23h23.58Z" />
        <path class="cls-5" d="M1103.84,695.35h-.14l-8.32,4.18-1.5-6.5,11.11-5.47h7.18v45.51h-8.33Z" />
        <path class="cls-5"
            d="M1155.56,693.68a27.18,27.18,0,0,0-4.39.22c-9.55,1.11-14.14,6.94-15.26,13.26h.19a13.18,13.18,0,0,1,10.25-4.37c7.85,0,14,5.59,14,14.79,0,8.72-6.37,16.26-16,16.26-11,0-17.17-8.38-17.17-19.64,0-8.75,3.16-15.86,7.9-20.39,4.18-3.95,9.7-6.21,16.19-6.72a27.72,27.72,0,0,1,4.37-.18Zm-4,24.38c0-5.26-2.9-9-7.93-9a8.36,8.36,0,0,0-7.45,4.73,5.83,5.83,0,0,0-.55,2.7c.16,6,3,10.93,8.56,10.93C1148.64,727.41,1151.55,723.53,1151.55,718.06Z" />
        <path class="cls-5"
            d="M1193.08,693.68a27.18,27.18,0,0,0-4.39.22c-9.55,1.11-14.14,6.94-15.26,13.26h.19a13.18,13.18,0,0,1,10.25-4.37c7.85,0,14,5.59,14,14.79,0,8.72-6.37,16.26-16,16.26-11,0-17.17-8.38-17.17-19.64,0-8.75,3.16-15.86,7.9-20.39,4.18-3.95,9.7-6.21,16.19-6.72a27.64,27.64,0,0,1,4.36-.18Zm-4,24.38c0-5.26-2.9-9-7.93-9a8.36,8.36,0,0,0-7.45,4.73,5.83,5.83,0,0,0-.55,2.7c.16,6,3,10.93,8.56,10.93C1186.16,727.41,1189.07,723.53,1189.07,718.06Z" />
        <path class="cls-5"
            d="M1202.92,733.07v-5.23l5.39-5c10.71-9.9,15.75-15.36,15.81-21.37,0-4.12-2.18-7.66-8.13-7.66-4,0-7.44,2-9.71,3.79l-2.53-6.12a22.73,22.73,0,0,1,14-4.67c10.09,0,15,6.35,15,13.79,0,8-5.75,14.43-13.71,21.78l-3.94,3.45V726h18.65v7.12Z" />
        <path class="cls-5" d="M1271.69,687.56v5.51l-19.24,40h-9.06l19.18-38.25v-.14h-21.49v-7.12Z" />
        <path class="cls-5"
            d="M1278,733.07v-5.23l5.39-5c10.7-9.9,15.75-15.36,15.81-21.37,0-4.12-2.18-7.66-8.13-7.66-4,0-7.44,2-9.71,3.79l-2.53-6.12a22.73,22.73,0,0,1,14-4.67c10.09,0,15,6.35,15,13.79,0,8-5.75,14.43-13.71,21.78l-3.94,3.45V726h18.65v7.12Z" />
        <path class="cls-5"
            d="M1317.18,724.17a23,23,0,0,0,10.37,2.79c6.57,0,9.23-3.7,9.21-7.29,0-5.36-5.09-7.69-10.35-7.7h-3.93v-6.29h3.84c4,0,9-1.8,9-6.33,0-3.14-2.26-5.7-7.28-5.7a18.48,18.48,0,0,0-9.31,2.85l-2-6.23c2.59-1.76,7.65-3.48,13.1-3.48,9.41,0,14.19,5.2,14.19,11.14,0,4.75-2.8,8.64-8.35,10.63v.14c5.52,1,10,5.19,10,11.35,0,7.68-6.46,13.79-17.7,13.79-5.55,0-10.29-1.55-12.74-3.15Z" />
        <path class="cls-5"
            d="M1354.7,724.17a23,23,0,0,0,10.37,2.79c6.57,0,9.23-3.7,9.21-7.29,0-5.36-5.1-7.69-10.35-7.7H1360v-6.29h3.84c4,0,9-1.8,9-6.33,0-3.14-2.25-5.7-7.27-5.7a18.48,18.48,0,0,0-9.31,2.85l-2-6.23c2.59-1.76,7.65-3.48,13.1-3.48,9.4,0,14.19,5.2,14.19,11.14,0,4.75-2.8,8.64-8.35,10.63v.14c5.52,1,10,5.19,10,11.35,0,7.68-6.46,13.79-17.71,13.79-5.54,0-10.28-1.55-12.73-3.15Z" />
        <path class="cls-5"
            d="M1394,726.89a24.09,24.09,0,0,0,4.77-.12,17.11,17.11,0,0,0,9.23-3.5,16.38,16.38,0,0,0,5.84-10.09l-.17,0c-2.27,2.54-5.54,4-9.88,4-7.91,0-13.83-5.71-13.83-14.08a16.13,16.13,0,0,1,16.44-16.28c10.6,0,16.23,8.33,16.23,19.42,0,9.72-3.17,16.65-7.92,21.14a24.93,24.93,0,0,1-15.53,6.21,30.67,30.67,0,0,1-5.18.16Zm4.54-24.34c0,4.7,2.72,8.35,7.49,8.35a8.32,8.32,0,0,0,7.3-3.79,4.93,4.93,0,0,0,.52-2.48c0-6.17-2.29-11.43-7.86-11.43C1401.61,693.2,1398.49,697.05,1398.51,702.55Z" />
        <path class="cls-5" d="M1441.51,695.35h-.14l-8.31,4.18-1.5-6.5,11.11-5.47h7.18v45.51h-8.34Z" />
        <path class="cls-5"
            d="M1464.93,721.35c0-5.62,3.27-9.5,8.5-11.8v-.19c-4.72-2.31-6.9-6.11-6.9-10.09,0-7.47,6.57-12.48,15.18-12.48,9.82,0,14.25,5.87,14.25,11.46,0,3.9-2,7.89-7,10.31v.19c5,2,8.72,5.82,8.72,11.52,0,8.12-6.86,13.57-16.61,13.57C1470.44,733.84,1464.93,727.73,1464.93,721.35Zm24-.37c0-4.64-3.38-7.15-8.45-8.55-4.3,1.21-6.73,4.19-6.73,7.94s2.84,7.41,7.66,7.41C1485.92,727.78,1488.9,724.88,1488.9,721Zm-14.2-22.1c0,3.75,3,6,7.43,7.2,3.1-1,5.65-3.48,5.65-6.91,0-3.17-1.86-6.44-6.52-6.44C1477,692.73,1474.7,695.59,1474.7,698.88Z" />
        <path class="cls-5" d="M1516.55,695.35h-.14l-8.31,4.18-1.5-6.5,11.11-5.47h7.18v45.51h-8.34Z" />
        <path class="cls-5"
            d="M1569.51,694.71H1552l-1.32,9.09a25.79,25.79,0,0,1,3.28-.19,20.32,20.32,0,0,1,11,2.91c3.47,2.18,6,6.05,6,11.56,0,8.67-7.17,15.76-18.36,15.76a26.05,26.05,0,0,1-12.08-2.68l1.77-6.52a23,23,0,0,0,10,2.4c5,0,9.86-2.88,9.84-8.29,0-5.2-3.84-8.67-12.92-8.67a43.44,43.44,0,0,0-6.21.44l3-23h23.57Z" />
        <path class="cls-5"
            d="M1577.49,721.35c0-5.62,3.27-9.5,8.5-11.8v-.19c-4.71-2.31-6.89-6.11-6.89-10.09,0-7.47,6.57-12.48,15.18-12.48,9.82,0,14.25,5.87,14.25,11.46,0,3.9-2,7.89-7,10.31v.19c5,2,8.72,5.82,8.72,11.52,0,8.12-6.86,13.57-16.61,13.57C1583,733.84,1577.49,727.73,1577.49,721.35Zm24-.37c0-4.64-3.38-7.15-8.44-8.55-4.3,1.21-6.73,4.19-6.73,7.94s2.84,7.41,7.65,7.41C1598.48,727.78,1601.45,724.88,1601.45,721Zm-14.19-22.1c0,3.75,3,6,7.43,7.2,3.1-1,5.65-3.48,5.65-6.91,0-3.17-1.86-6.44-6.52-6.44C1589.53,692.73,1587.26,695.59,1587.26,698.88Z" />
        <path class="cls-5"
            d="M1619.09,726.89a24.11,24.11,0,0,0,4.77-.12,17.11,17.11,0,0,0,9.22-3.5,16.39,16.39,0,0,0,5.85-10.09l-.18,0c-2.27,2.54-5.53,4-9.87,4-7.92,0-13.83-5.71-13.83-14.08a16.12,16.12,0,0,1,16.43-16.28c10.61,0,16.24,8.33,16.24,19.42,0,9.72-3.17,16.65-7.92,21.14a25,25,0,0,1-15.53,6.21,30.67,30.67,0,0,1-5.18.16Zm4.53-24.34c0,4.7,2.73,8.35,7.5,8.35a8.33,8.33,0,0,0,7.3-3.79,5.05,5.05,0,0,0,.51-2.48c0-6.17-2.28-11.43-7.85-11.43C1626.73,693.2,1623.6,697.05,1623.62,702.55Z" />
        <path class="cls-5"
            d="M1652.08,741.35c4.38-6.68,7.85-16,7.85-28.44s-3.43-21.61-7.85-28.33h6.24c4,5.54,8.51,14.65,8.51,28.36s-4.46,22.71-8.51,28.41Z" />
    </g>
    <g id="Created-2" data-name="Created">
        <rect class="cls-4" x="323" y="871" width="1161" height="85" rx="15" />
        <path class="cls-5"
            d="M443,935.22c-2,1-6.53,2.14-12.24,2.14-15,0-24.09-9.4-24.09-23.77,0-15.52,10.84-24.89,25.26-24.89,5.68,0,9.69,1.15,11.43,2.09l-1.87,6.87a22.41,22.41,0,0,0-9.2-1.85c-9.62,0-16.54,6-16.54,17.35,0,10.4,6.06,17,16.42,17a25.27,25.27,0,0,0,9.41-1.71Z" />
        <path class="cls-5"
            d="M449.73,913.5c0-4.57-.1-7.92-.28-11h7.46l.32,6.48h.24c1.68-4.8,5.65-7.25,9.33-7.25a7.93,7.93,0,0,1,2,.19v8.11a11.9,11.9,0,0,0-2.52-.24,7.59,7.59,0,0,0-7.73,6.52,14.75,14.75,0,0,0-.22,2.6v17.67h-8.62Z" />
        <path class="cls-5"
            d="M480.09,922c.23,6.18,5,8.88,10.53,8.88a25.84,25.84,0,0,0,9.4-1.58l1.28,5.93a30.81,30.81,0,0,1-11.91,2.17c-11.07,0-17.55-6.84-17.55-17.28,0-9.41,5.71-18.31,16.67-18.31s14.68,9.11,14.68,16.57a18.39,18.39,0,0,1-.3,3.62Zm15-6c0-3.16-1.34-8.31-7.11-8.31-5.3,0-7.51,4.82-7.89,8.31Z" />
        <path class="cls-5"
            d="M529.32,936.62l-.59-3.8h-.21a12.46,12.46,0,0,1-10,4.57c-6.92,0-10.75-4.94-10.75-10.14,0-8.6,7.66-13,20.22-12.9v-.56c0-2.24-.89-6-6.92-5.95a18.18,18.18,0,0,0-9.17,2.55l-1.7-5.6a24.66,24.66,0,0,1,12.35-3c10.93,0,14,6.89,14,14.37v12.27a50.54,50.54,0,0,0,.53,8.21Zm-1.15-16.69c-6.08-.08-11.89,1.2-11.89,6.39a4.55,4.55,0,0,0,4.91,4.91,7,7,0,0,0,6.74-4.72,6.32,6.32,0,0,0,.24-1.87Z" />
        <path class="cls-5"
            d="M555.14,892.78v9.76h8.2V909h-8.2v15c0,4.17,1.11,6.29,4.41,6.29a12.88,12.88,0,0,0,3.35-.38l.17,6.56a19.12,19.12,0,0,1-6.27.89,10,10,0,0,1-7.41-2.81c-1.85-2-2.69-5.1-2.69-9.56V909h-4.87v-6.42h4.87v-7.72Z" />
        <path class="cls-5"
            d="M575.5,922c.23,6.18,5,8.88,10.52,8.88a25.86,25.86,0,0,0,9.41-1.58l1.28,5.93a30.81,30.81,0,0,1-11.91,2.17c-11.07,0-17.55-6.84-17.55-17.28,0-9.41,5.71-18.31,16.67-18.31s14.68,9.11,14.68,16.57a18.39,18.39,0,0,1-.3,3.62Zm15-6c0-3.16-1.34-8.31-7.11-8.31-5.3,0-7.51,4.82-7.89,8.31Z" />
        <path class="cls-5"
            d="M637,886.92v40.14c0,3.5.13,7.25.28,9.56h-7.67l-.39-5.39H629c-2,3.81-6.15,6.16-11.07,6.16-8.14,0-14.58-6.94-14.58-17.42,0-11.42,7.08-18.2,15.28-18.2,4.66,0,8,1.92,9.55,4.44h.14V886.92Zm-8.61,29.82a12.28,12.28,0,0,0-.19-2.25,7.58,7.58,0,0,0-7.41-6c-5.56,0-8.63,4.89-8.63,11.21s3.1,10.84,8.53,10.84a7.64,7.64,0,0,0,7.44-6.13,10.54,10.54,0,0,0,.26-2.52Z" />
        <path class="cls-5"
            d="M645.17,908.35a5.21,5.21,0,0,1,5.31-5.52c3.15,0,5.25,2.27,5.28,5.52a5.3,5.3,0,1,1-10.59,0Zm0,23.57a5.21,5.21,0,0,1,5.31-5.52c3.15,0,5.25,2.26,5.28,5.52a5.3,5.3,0,1,1-10.59,0Z" />
        <path class="cls-5"
            d="M707.74,913.56c0,14.66-5.73,23.83-16.63,23.83-10.48,0-16.05-9.55-16.14-23.39,0-14.16,6-23.65,16.65-23.65C702.62,890.35,707.74,900.17,707.74,913.56Zm-24.13.42c0,11.1,3,16.84,7.77,16.84,5.11,0,7.71-6.16,7.71-17.07,0-10.6-2.49-16.8-7.7-16.8C686.83,897,683.6,902.61,683.61,914Z" />
        <path class="cls-5" d="M726.62,898.9h-.14l-8.32,4.18-1.5-6.5,11.11-5.46H735v45.5h-8.33Z" />
        <path class="cls-5" d="M748.21,939.42l17-50.75h6l-17.09,50.75Z" />
        <path class="cls-5"
            d="M806.37,913.56c0,14.66-5.73,23.83-16.64,23.83-10.47,0-16.05-9.55-16.14-23.39,0-14.16,6-23.65,16.66-23.65C801.25,890.35,806.37,900.17,806.37,913.56Zm-24.13.42c0,11.1,3,16.84,7.77,16.84,5.11,0,7.71-6.16,7.71-17.07,0-10.6-2.49-16.8-7.7-16.8C785.46,897,782.23,902.61,782.24,914Z" />
        <path class="cls-5"
            d="M811.76,936.62v-5.23l5.4-5C827.86,916.47,832.91,911,833,905c0-4.11-2.18-7.66-8.13-7.66-4,0-7.44,2-9.72,3.79L812.6,895a22.7,22.7,0,0,1,14-4.66c10.09,0,15,6.34,15,13.78,0,8-5.75,14.43-13.71,21.78L824,929.36v.14H842.6v7.12Z" />
        <path class="cls-5" d="M846.84,939.42l17-50.75h6l-17.08,50.75Z" />
        <path class="cls-5"
            d="M872.87,936.62v-5.23l5.4-5C889,916.47,894,911,894.08,905c0-4.11-2.19-7.66-8.13-7.66-4,0-7.45,2-9.72,3.79L873.71,895a22.7,22.7,0,0,1,14-4.66c10.09,0,15,6.34,15,13.78,0,8-5.74,14.43-13.7,21.78l-3.94,3.45v.14h18.65v7.12Z" />
        <path class="cls-5"
            d="M942.51,913.56c0,14.66-5.72,23.83-16.63,23.83-10.47,0-16-9.55-16.14-23.39,0-14.16,6-23.65,16.65-23.65C937.4,890.35,942.51,900.17,942.51,913.56Zm-24.12.42c0,11.1,3,16.84,7.77,16.84,5.11,0,7.71-6.16,7.71-17.07,0-10.6-2.49-16.8-7.7-16.8C921.6,897,918.38,902.61,918.39,914Z" />
        <path class="cls-5"
            d="M947.91,936.62v-5.23l5.4-5C964,916.47,969.06,911,969.12,905c0-4.11-2.19-7.66-8.13-7.66-4,0-7.45,2-9.72,3.79L948.75,895a22.7,22.7,0,0,1,14-4.66c10.08,0,15,6.34,15,13.78,0,8-5.75,14.43-13.7,21.78l-3.94,3.45v.14h18.64v7.12Z" />
        <path class="cls-5"
            d="M1017.55,913.56c0,14.66-5.72,23.83-16.63,23.83-10.47,0-16-9.55-16.14-23.39,0-14.16,6-23.65,16.65-23.65C1012.44,890.35,1017.55,900.17,1017.55,913.56Zm-24.12.42c0,11.1,3,16.84,7.77,16.84,5.11,0,7.71-6.16,7.71-17.07,0-10.6-2.49-16.8-7.7-16.8C996.64,897,993.42,902.61,993.43,914Z" />
        <path class="cls-5" d="M1020.5,945.1a111.13,111.13,0,0,0,4.69-18.48l9-.7a91.79,91.79,0,0,1-7.86,18.63Z" />
        <path class="cls-5" d="M1085.21,891.12v5.51l-19.24,40h-9.06l19.18-38.25v-.14h-21.48v-7.11Z" />
        <path class="cls-5"
            d="M1092,908.35a5.21,5.21,0,0,1,5.31-5.52c3.15,0,5.25,2.27,5.28,5.52a5.3,5.3,0,1,1-10.59,0Zm0,23.57a5.21,5.21,0,0,1,5.31-5.52c3.15,0,5.25,2.26,5.28,5.52a5.3,5.3,0,1,1-10.59,0Z" />
        <path class="cls-5"
            d="M1136.92,898.26h-17.51l-1.33,9.1a24.08,24.08,0,0,1,3.29-.2,20.24,20.24,0,0,1,11,2.92c3.47,2.17,5.95,6,5.95,11.55,0,8.67-7.17,15.76-18.36,15.76a26,26,0,0,1-12.08-2.68l1.77-6.52a22.82,22.82,0,0,0,10,2.41c5,0,9.86-2.89,9.84-8.3,0-5.2-3.85-8.66-12.92-8.66a42.28,42.28,0,0,0-6.22.44l2.95-23h23.58Z" />
        <path class="cls-5"
            d="M1174.44,898.26h-17.51l-1.33,9.1a24,24,0,0,1,3.29-.2,20.24,20.24,0,0,1,11,2.92c3.47,2.17,5.95,6,5.95,11.55,0,8.67-7.17,15.76-18.36,15.76a26,26,0,0,1-12.08-2.68l1.77-6.52a22.82,22.82,0,0,0,10,2.41c5,0,9.86-2.89,9.84-8.3,0-5.2-3.85-8.66-12.92-8.66a42.28,42.28,0,0,0-6.22.44l2.95-23h23.58Z" />
        <path class="cls-5"
            d="M1199.43,890a78,78,0,0,1,13.2-1c6.3,0,10.89,1.32,13.9,3.86a13.28,13.28,0,0,1,4.62,10.45c0,4.46-1.4,8.15-4,10.68-3.47,3.44-8.81,5.08-14.92,5.08a20.94,20.94,0,0,1-4.22-.33v17.81h-8.56Zm8.56,22a16.92,16.92,0,0,0,4.22.4c6.44,0,10.38-3.21,10.38-8.74,0-5.2-3.64-8-9.61-8a25.05,25.05,0,0,0-5,.41Z" />
        <path class="cls-5"
            d="M1277.51,917.37c-.29-6.09-.6-13.42-.57-19.85h-.19c-1.56,5.79-3.53,12.15-5.57,18.12l-6.93,20.42h-6.63l-6.25-20.14c-1.85-6-3.54-12.46-4.77-18.4h-.16c-.2,6.18-.48,13.72-.85,20.14l-1,19h-8l3.14-47.18H1251l6.14,18.95c1.7,5.57,3.21,11.17,4.34,16.43h.21c1.27-5.16,2.89-10.92,4.71-16.47l6.55-18.91h11.18l2.71,47.18h-8.4Z" />
        <path class="cls-5"
            d="M1324.17,888.13c-4.46,6.66-7.84,15.88-7.84,28.5,0,12.39,3.47,21.53,7.84,28.27h-6.23c-4-5.6-8.52-14.74-8.52-28.31s4.47-22.82,8.52-28.46Z" />
        <path class="cls-5"
            d="M1331.1,890a78,78,0,0,1,13.2-1c6.29,0,10.89,1.32,13.89,3.86a13.25,13.25,0,0,1,4.62,10.45c0,4.46-1.39,8.15-4,10.68-3.46,3.44-8.8,5.08-14.91,5.08a20.94,20.94,0,0,1-4.22-.33v17.81h-8.56Zm8.56,22a16.87,16.87,0,0,0,4.22.4c6.44,0,10.37-3.21,10.37-8.74,0-5.2-3.64-8-9.6-8a25.05,25.05,0,0,0-5,.41Z" />
        <path class="cls-5"
            d="M1370.07,927.22a23.91,23.91,0,0,0,11.4,3c5.5,0,8.58-2.59,8.58-6.44,0-3.57-2.39-5.67-8.36-7.83-7.8-2.77-12.77-7-12.77-13.71,0-7.73,6.46-13.55,16.7-13.55a25.16,25.16,0,0,1,11.31,2.33l-2.07,7a20.29,20.29,0,0,0-9.42-2.24c-5.47,0-7.8,2.91-7.8,5.68,0,3.62,2.73,5.32,9,7.73,8.2,3.13,12.14,7.24,12.14,14,0,7.59-5.72,14.18-17.89,14.18-5,0-10.18-1.42-12.76-3Z" />
        <path class="cls-5" d="M1415.62,896.68h-13.47v-7.24h35.7v7.24h-13.6v39.94h-8.63Z" />
        <path class="cls-5"
            d="M1443.42,944.9c4.37-6.67,7.84-15.95,7.84-28.44s-3.42-21.61-7.84-28.33h6.23c4,5.55,8.52,14.65,8.52,28.37s-4.47,22.7-8.52,28.4Z" />
        <rect class="cls-6" x="346" y="896" width="36" height="36" rx="15" />
    </g>
    <g id="Field-2" data-name="Field">
        <rect class="cls-4" x="323" y="992" width="401" height="85" rx="15" />
        <path class="cls-5"
            d="M448.93,1038.37c-.29-6.09-.6-13.42-.57-19.85h-.19c-1.56,5.79-3.53,12.15-5.57,18.12l-6.92,20.42h-6.63l-6.26-20.14c-1.85-6.05-3.53-12.46-4.77-18.4h-.16c-.2,6.18-.48,13.72-.84,20.14l-1,19h-8l3.14-47.18H422.4l6.14,19c1.7,5.57,3.21,11.17,4.34,16.43h.21c1.27-5.16,2.89-10.92,4.72-16.47l6.54-18.91h11.18l2.71,47.18h-8.4Z" />
        <path class="cls-5"
            d="M473.09,1043c.23,6.18,5,8.88,10.52,8.88a25.86,25.86,0,0,0,9.41-1.58l1.28,5.93a30.83,30.83,0,0,1-11.92,2.17c-11.06,0-17.54-6.84-17.54-17.28,0-9.41,5.7-18.31,16.67-18.31s14.68,9.11,14.68,16.57a18.39,18.39,0,0,1-.3,3.62Zm15-6c0-3.16-1.34-8.31-7.11-8.31-5.3,0-7.51,4.82-7.9,8.31Z" />
        <path class="cls-5"
            d="M503.14,1033.67c0-3.93-.12-7.18-.28-10.13h7.36l.4,5h.2a11.73,11.73,0,0,1,10.49-5.77,9.8,9.8,0,0,1,9.46,6.28h.14a14,14,0,0,1,4.16-4.28,11.84,11.84,0,0,1,6.93-2c5.64,0,11.38,3.86,11.38,14.79v20.06H545v-18.85c0-5.68-2-9-6.08-9a6.46,6.46,0,0,0-6,4.53,9.6,9.6,0,0,0-.44,2.88v20.45h-8.4v-19.71c0-4.8-1.92-8.15-5.88-8.15-3.23,0-5.39,2.53-6.2,4.86a8.71,8.71,0,0,0-.43,2.85v20.15h-8.41Z" />
        <path class="cls-5"
            d="M562.21,1057.62c.16-2.29.28-6.06.28-9.56v-40.14h8.62v20.31h.14c2.09-3.33,5.81-5.46,10.88-5.46,8.31,0,14.27,6.89,14.21,17.27,0,12.26-7.76,18.35-15.48,18.35-4.4,0-8.28-1.68-10.74-5.9H570l-.38,5.13Zm8.9-14.1a8.77,8.77,0,0,0,.22,2,7.84,7.84,0,0,0,7.6,6c5.4,0,8.67-4.3,8.67-11.18,0-6-2.89-10.93-8.58-10.93a8,8,0,0,0-7.63,6.3,9.51,9.51,0,0,0-.28,2.23Z" />
        <path class="cls-5"
            d="M609.66,1043c.23,6.18,5,8.88,10.52,8.88a25.9,25.9,0,0,0,9.41-1.58l1.27,5.93a30.74,30.74,0,0,1-11.91,2.17c-11.06,0-17.54-6.84-17.54-17.28,0-9.41,5.7-18.31,16.66-18.31s14.69,9.11,14.69,16.57a18.39,18.39,0,0,1-.3,3.62Zm15-6c0-3.16-1.33-8.31-7.1-8.31-5.31,0-7.51,4.82-7.9,8.31Z" />
        <path class="cls-5"
            d="M639.7,1034.5c0-4.57-.09-7.92-.28-11h7.47l.32,6.48h.24c1.68-4.81,5.65-7.25,9.33-7.25a7.93,7.93,0,0,1,2,.19v8.11a12.07,12.07,0,0,0-2.53-.24,7.59,7.59,0,0,0-7.72,6.52,13.86,13.86,0,0,0-.22,2.6v17.67H639.7Z" />
        <path class="cls-5"
            d="M664.21,1049.69a18.9,18.9,0,0,0,8.7,2.49c3.79,0,5.48-1.59,5.48-3.82s-1.4-3.48-5.59-5c-6.67-2.29-9.45-5.92-9.42-10,0-6,5-10.66,12.93-10.66a19.74,19.74,0,0,1,9,2l-1.71,6a15.48,15.48,0,0,0-7.21-2c-3.06,0-4.77,1.52-4.77,3.61s1.64,3.21,6,4.78c6.2,2.19,9.06,5.35,9.09,10.38,0,6.21-4.84,10.7-13.84,10.7a22.07,22.07,0,0,1-10.38-2.39Z" />
        <path class="cls-5"
            d="M692.77,1029.35a5.2,5.2,0,0,1,5.31-5.52c3.15,0,5.24,2.27,5.27,5.52a5.29,5.29,0,1,1-10.58,0Zm0,23.57a5.2,5.2,0,0,1,5.31-5.52c3.15,0,5.24,2.26,5.27,5.52a5.29,5.29,0,1,1-10.58,0Z" />
        <rect class="cls-6" x="346" y="1017" width="36" height="36" rx="15" />
    </g>
    <g id="Frozen">
        <rect class="cls-7" x="589" y="495.78" width="238.76" height="88.22" rx="15" />
        <path class="cls-5"
            d="M636.83,567.79a29.82,29.82,0,0,1-14.4,3.22c-13.29,0-24.54-9.68-24.54-25.27,0-16.64,11.58-31.06,29.57-31.06,14.11,0,23.52,9.89,23.52,23.36,0,12.14-6.79,19.27-14.36,19.27-3.24,0-6.23-2.13-6-7.11h-.25c-2.87,4.78-6.59,7.11-11.47,7.11-4.69,0-8.72-3.8-8.72-10.17a19.13,19.13,0,0,1,19.16-19.21,21.42,21.42,0,0,1,8.7,1.7l-2.75,14.66c-1.2,6.16-.29,9,2.42,9.07,4.16.12,8.76-5.4,8.76-14.77,0-11.77-7.06-20.17-19.65-20.17-13.19,0-24.26,10.44-24.26,26.88,0,13.47,8.83,21.86,20.78,21.86a25.32,25.32,0,0,0,12.25-2.88Zm-4.39-34.95a12.23,12.23,0,0,0-4.06-.63c-7.14,0-12.92,6.75-12.92,14.61,0,3.58,1.82,6.14,5.37,6.14,4.68,0,9-6,9.88-11Z" />
        <path class="cls-5" d="M688.45,537H667.3v19.71H691v5.86H660.22V508h29.49v5.87H667.3v17.28h21.15Z" />
        <path class="cls-5" d="M699.75,505.13h7.08v57.46h-7.08Z" />
        <path class="cls-5"
            d="M740.55,562.59l-.63-4.94h-.21a14.54,14.54,0,0,1-12,5.83c-7.91,0-12-5.61-12-11.23,0-9.48,8.4-14.69,23.52-14.58v-.83c0-3.18-.89-9.07-8.91-9a19,19,0,0,0-10.19,2.92L718.58,526a24.53,24.53,0,0,1,12.92-3.44c12,0,14.88,8.18,14.88,16v14.65a60.93,60.93,0,0,0,.59,9.36Zm-1.11-20c-7.7-.17-16.52,1.22-16.52,8.79,0,4.67,3.08,6.81,6.65,6.81a9.81,9.81,0,0,0,9.54-6.55,7.6,7.6,0,0,0,.33-2.24Z" />
        <path class="cls-5"
            d="M757.85,535.64c0-4.62-.12-8.56-.33-12.19h6.24l.27,7.68h.26c1.82-5.25,6.14-8.57,10.9-8.57a8.2,8.2,0,0,1,2,.2v6.7a11.57,11.57,0,0,0-2.43-.21c-5,0-8.56,3.78-9.52,9.11a18.24,18.24,0,0,0-.29,3.32v20.91h-7.08Z" />
        <path class="cls-5"
            d="M805.62,562.59l-.62-4.94h-.22a14.54,14.54,0,0,1-12,5.83c-7.91,0-12-5.61-12-11.23,0-9.48,8.41-14.69,23.53-14.58v-.83c0-3.18-.9-9.07-8.92-9a19,19,0,0,0-10.19,2.92L783.65,526a24.56,24.56,0,0,1,12.92-3.44c12,0,14.88,8.18,14.88,16v14.65a60.93,60.93,0,0,0,.59,9.36Zm-1.1-20c-7.71-.17-16.53,1.22-16.53,8.79,0,4.67,3.08,6.81,6.65,6.81a9.81,9.81,0,0,0,9.54-6.55,7.31,7.31,0,0,0,.34-2.24Z" />
        <rect class="cls-4" x="582" y="1114" width="390" height="85" rx="15" />
        <path class="cls-5" d="M677.14,1139.68H663.67v-7.24h35.69v7.24h-13.6v39.94h-8.62Z" />
        <path class="cls-5"
            d="M731.52,1162.24c0,12.53-8.79,18.15-17.51,18.15-9.61,0-17-6.64-17-17.56,0-11.18,7.36-18.06,17.63-18.06S731.52,1151.91,731.52,1162.24Zm-25.7.38c0,6.55,3.27,11.51,8.47,11.51,4.94,0,8.37-4.77,8.37-11.63,0-5.35-2.37-11.47-8.31-11.47S705.82,1156.93,705.82,1162.62Z" />
        <path class="cls-5"
            d="M748.48,1135.78v9.76h8.2V1152h-8.2v15c0,4.17,1.11,6.29,4.41,6.29a12.88,12.88,0,0,0,3.35-.38l.17,6.56a19.12,19.12,0,0,1-6.27.89,10,10,0,0,1-7.41-2.81c-1.85-2-2.69-5.1-2.69-9.56v-16h-4.87v-6.42H740v-7.72Z" />
        <path class="cls-5"
            d="M782.37,1179.62l-.59-3.8h-.21a12.46,12.46,0,0,1-10.05,4.57c-6.91,0-10.74-4.94-10.74-10.14,0-8.6,7.66-13,20.22-12.9v-.56c0-2.24-.89-6-6.93-6a18.14,18.14,0,0,0-9.16,2.55l-1.71-5.6a24.73,24.73,0,0,1,12.36-3c10.93,0,14.05,6.89,14.05,14.37v12.27a50.54,50.54,0,0,0,.53,8.21Zm-1.15-16.69c-6.08-.08-11.89,1.2-11.89,6.39a4.55,4.55,0,0,0,4.91,4.91,7,7,0,0,0,6.74-4.72,6.32,6.32,0,0,0,.24-1.87Z" />
        <path class="cls-5" d="M798.75,1129.92h8.63v49.7h-8.63Z" />
        <path class="cls-5"
            d="M815.69,1151.35a5.21,5.21,0,0,1,5.31-5.52c3.15,0,5.25,2.27,5.28,5.52a5.3,5.3,0,1,1-10.59,0Zm0,23.57a5.21,5.21,0,0,1,5.31-5.52c3.15,0,5.25,2.26,5.28,5.52a5.3,5.3,0,1,1-10.59,0Z" />
        <path class="cls-5"
            d="M846.14,1179.62v-5.23l5.39-5c10.7-9.9,15.75-15.36,15.81-21.37,0-4.11-2.18-7.66-8.13-7.66-4,0-7.44,2-9.71,3.79L847,1138a22.72,22.72,0,0,1,14-4.66c10.09,0,15,6.34,15,13.78,0,8-5.75,14.43-13.71,21.78l-3.94,3.45v.14H877v7.12Z" />
        <path class="cls-5" d="M897.14,1141.9H897l-8.32,4.18-1.5-6.5,11.11-5.46h7.18v45.5h-8.33Z" />
        <path class="cls-5"
            d="M921.17,1179.62v-5.23l5.4-5c10.7-9.9,15.75-15.36,15.81-21.37,0-4.11-2.18-7.66-8.13-7.66-4,0-7.44,2-9.71,3.79L922,1138a22.7,22.7,0,0,1,14-4.66c10.09,0,15,6.34,15,13.78,0,8-5.75,14.43-13.71,21.78l-3.94,3.45v.14H952v7.12Z" />
        <rect class="cls-6" x="605" y="1139" width="36" height="36" rx="15" />
        <rect class="cls-4" x="582" y="1230" width="491" height="85" rx="15" />
        <path class="cls-5" d="M676.7,1248.44v18.87h19.94v-18.87h8.62v47.18h-8.62V1274.8H676.7v20.82h-8.62v-47.18Z" />
        <path class="cls-5"
            d="M745.17,1285.41c0,4,.13,7.44.28,10.21h-7.53l-.41-5.15h-.2a12.37,12.37,0,0,1-10.92,5.92c-6.21,0-11.87-3.73-11.87-14.87v-20h8.63v18.54c0,5.66,1.79,9.29,6.35,9.29a7.15,7.15,0,0,0,6.58-4.6,7.45,7.45,0,0,0,.47-2.67v-20.56h8.62Z" />
        <path class="cls-5"
            d="M754.51,1271.67c0-3.93-.12-7.18-.28-10.13h7.36l.4,5h.2a11.73,11.73,0,0,1,10.49-5.77,9.8,9.8,0,0,1,9.46,6.28h.14a13.89,13.89,0,0,1,4.17-4.28,11.79,11.79,0,0,1,6.92-2c5.64,0,11.38,3.86,11.38,14.79v20.06h-8.41v-18.85c0-5.68-2-9-6.08-9a6.48,6.48,0,0,0-6,4.53,9.92,9.92,0,0,0-.44,2.88v20.45h-8.4v-19.71c0-4.8-1.92-8.15-5.88-8.15-3.23,0-5.39,2.53-6.2,4.86a8.71,8.71,0,0,0-.43,2.85v20.15h-8.41Z" />
        <path class="cls-5"
            d="M833,1295.62l-.59-3.8h-.2a12.46,12.46,0,0,1-10,4.57c-6.91,0-10.74-4.94-10.74-10.14,0-8.6,7.66-13,20.21-12.9v-.56c0-2.24-.88-6-6.92-6a18.14,18.14,0,0,0-9.16,2.55l-1.71-5.6a24.73,24.73,0,0,1,12.36-3c10.93,0,14,6.89,14,14.37v12.27a50.54,50.54,0,0,0,.53,8.21Zm-1.14-16.69c-6.08-.08-11.89,1.2-11.89,6.39a4.55,4.55,0,0,0,4.91,4.91,7,7,0,0,0,6.74-4.72,6.32,6.32,0,0,0,.24-1.87Z" />
        <path class="cls-5"
            d="M849.43,1271.67c0-3.93-.12-7.18-.28-10.13h7.53l.43,5.12h.2a12.4,12.4,0,0,1,10.86-5.89c5.94,0,12.11,3.83,12.11,14.61v20.24h-8.62v-19.23c0-4.89-1.8-8.61-6.5-8.61a7.16,7.16,0,0,0-6.71,5,8.62,8.62,0,0,0-.39,2.74v20h-8.63Z" />
        <path class="cls-5"
            d="M889.06,1287.69a18.86,18.86,0,0,0,8.69,2.49c3.79,0,5.49-1.59,5.49-3.82s-1.41-3.48-5.6-5c-6.67-2.29-9.45-5.92-9.42-10,0-6,5-10.66,12.93-10.66a19.74,19.74,0,0,1,9,2l-1.71,6a15.47,15.47,0,0,0-7.2-2c-3.07,0-4.78,1.52-4.78,3.61s1.65,3.21,6,4.78c6.21,2.19,9.07,5.35,9.1,10.38,0,6.21-4.84,10.7-13.84,10.7a22.09,22.09,0,0,1-10.39-2.39Z" />
        <path class="cls-5"
            d="M917.61,1267.35a5.2,5.2,0,0,1,5.31-5.52c3.15,0,5.25,2.27,5.28,5.52a5.3,5.3,0,1,1-10.59,0Zm0,23.57a5.2,5.2,0,0,1,5.31-5.52c3.15,0,5.25,2.26,5.28,5.52a5.3,5.3,0,1,1-10.59,0Z" />
        <path class="cls-5"
            d="M948.05,1295.62v-5.23l5.4-5c10.7-9.9,15.75-15.36,15.81-21.37,0-4.11-2.18-7.66-8.13-7.66-4,0-7.44,2-9.71,3.79l-2.53-6.12a22.7,22.7,0,0,1,14-4.66c10.09,0,15,6.34,15,13.78,0,8-5.75,14.43-13.71,21.78l-3.94,3.45v.14h18.65v7.12Z" />
        <path class="cls-5"
            d="M1017.7,1272.56c0,14.65-5.73,23.83-16.64,23.83-10.47,0-16-9.55-16.14-23.39,0-14.16,6-23.65,16.66-23.65C1012.58,1249.35,1017.7,1259.17,1017.7,1272.56Zm-24.13.42c0,11.1,3,16.84,7.77,16.84,5.11,0,7.71-6.16,7.71-17.07,0-10.6-2.49-16.8-7.7-16.8C996.78,1256,993.56,1261.61,993.57,1273Z" />
        <path class="cls-5"
            d="M1042,1295.62v-11.57h-20.6v-5.6l18.58-28.33h10.17v27.41H1056v6.52h-5.86v11.57Zm0-18.09v-12.39c0-2.57.12-5.19.28-7.87l-.25,0c-1.44,2.86-2.61,5.18-4,7.7l-8.32,12.45,0,.14Z" />
        <rect class="cls-6" x="605" y="1255" width="36" height="36" rx="15" />
        <rect class="cls-4" x="588" y="1347" width="300" height="85" rx="15" />
        <path class="cls-5"
            d="M674.08,1366.08a72.25,72.25,0,0,1,12.58-1c6.33,0,10.29.82,13.5,3a10.07,10.07,0,0,1,4.87,8.88c0,4.34-2.71,8.29-7.85,10.17v.18c5,1.27,9.55,5.19,9.55,11.69a12.42,12.42,0,0,1-4.52,9.74c-3.36,2.9-8.89,4.36-17.53,4.36a81,81,0,0,1-10.6-.62Zm8.55,18.64h4.42c6,0,9.3-2.82,9.3-6.81,0-4.43-3.36-6.47-8.79-6.47a23.75,23.75,0,0,0-4.93.38Zm0,21.64a27.87,27.87,0,0,0,4.56.24c5.51,0,10.47-2.07,10.47-7.89,0-5.49-4.82-7.74-10.74-7.74h-4.29Z" />
        <path class="cls-5"
            d="M746.83,1395.24c0,12.53-8.79,18.15-17.51,18.15-9.61,0-17.05-6.64-17.05-17.56,0-11.18,7.36-18.06,17.63-18.06S746.83,1384.91,746.83,1395.24Zm-25.7.38c0,6.55,3.27,11.51,8.47,11.51,4.94,0,8.37-4.77,8.37-11.63,0-5.35-2.37-11.47-8.31-11.47S721.13,1389.93,721.13,1395.62Z" />
        <path class="cls-5"
            d="M763.79,1368.78v9.76H772V1385h-8.2v15c0,4.17,1.11,6.29,4.41,6.29a12.94,12.94,0,0,0,3.35-.38l.17,6.56a19.12,19.12,0,0,1-6.27.89,10,10,0,0,1-7.41-2.81c-1.85-2-2.69-5.1-2.69-9.56v-16h-4.87v-6.42h4.87v-7.72Z" />
        <path class="cls-5"
            d="M778.09,1404.69a18.86,18.86,0,0,0,8.69,2.49c3.79,0,5.49-1.59,5.49-3.82s-1.41-3.48-5.6-5c-6.67-2.29-9.45-5.92-9.42-10,0-6,5-10.66,12.93-10.66a19.74,19.74,0,0,1,9,2l-1.7,6a15.56,15.56,0,0,0-7.21-2c-3.07,0-4.78,1.52-4.78,3.61s1.65,3.21,6,4.78c6.21,2.19,9.07,5.35,9.1,10.38,0,6.21-4.84,10.7-13.84,10.7a22.09,22.09,0,0,1-10.39-2.39Z" />
        <path class="cls-5"
            d="M806.64,1384.35a5.2,5.2,0,0,1,5.31-5.52c3.15,0,5.25,2.27,5.28,5.52a5.3,5.3,0,1,1-10.59,0Zm0,23.57a5.2,5.2,0,0,1,5.31-5.52c3.15,0,5.25,2.26,5.28,5.52a5.3,5.3,0,1,1-10.59,0Z" />
        <path class="cls-5"
            d="M836.46,1400.9c0-5.62,3.27-9.5,8.51-11.8v-.19c-4.72-2.31-6.9-6.11-6.9-10.08,0-7.47,6.57-12.48,15.18-12.48,9.83,0,14.25,5.87,14.25,11.45,0,3.9-2,7.89-7,10.31v.2c5,1.94,8.72,5.81,8.72,11.51,0,8.13-6.86,13.57-16.6,13.57C842,1413.39,836.46,1407.28,836.46,1400.9Zm24-.36c0-4.65-3.38-7.16-8.45-8.56-4.3,1.21-6.72,4.19-6.72,7.94s2.83,7.41,7.65,7.41C857.45,1407.33,860.43,1404.43,860.43,1400.54Zm-14.2-22.1c0,3.74,3.06,6,7.43,7.19,3.1-1,5.65-3.48,5.65-6.91,0-3.16-1.86-6.43-6.52-6.43C848.5,1372.29,846.23,1375.14,846.23,1378.44Z" />
        <rect class="cls-6" x="611" y="1372" width="36" height="36" rx="15" />
    </g>
    <g id="Timestmap">
        <g id="Time_Label" data-name="Time Label">
            <path class="cls-5" d="M596.62,1605h-7.7v-4.14h20.4V1605h-7.77v22.82h-4.93Z" />
            <path class="cls-5"
                d="M627.69,1617.9c0,7.16-5,10.37-10,10.37-5.49,0-9.74-3.79-9.74-10,0-6.39,4.2-10.32,10.07-10.32S627.69,1612,627.69,1617.9Zm-14.68.21c0,3.75,1.87,6.58,4.84,6.58,2.82,0,4.78-2.72,4.78-6.64,0-3.06-1.35-6.56-4.75-6.56S613,1614.87,613,1618.11Z" />
            <path class="cls-5"
                d="M649.77,1599.43v22.94c0,2,.07,4.14.16,5.46h-4.38l-.22-3.08h-.09a7,7,0,0,1-6.32,3.52c-4.65,0-8.33-4-8.33-10,0-6.53,4-10.4,8.72-10.4,2.67,0,4.59,1.1,5.46,2.54h.08v-11Zm-4.92,17a6.31,6.31,0,0,0-.11-1.29,4.33,4.33,0,0,0-4.23-3.45c-3.18,0-4.93,2.79-4.93,6.4s1.77,6.2,4.87,6.2a4.37,4.37,0,0,0,4.25-3.51,5.92,5.92,0,0,0,.15-1.43Z" />
            <path class="cls-5"
                d="M666,1627.83l-.34-2.17h-.12a7.14,7.14,0,0,1-5.74,2.61,5.76,5.76,0,0,1-6.13-5.79c0-4.92,4.37-7.4,11.54-7.38v-.32c0-1.28-.5-3.4-4-3.39a10.31,10.31,0,0,0-5.23,1.45l-1-3.19a14,14,0,0,1,7.06-1.73c6.24,0,8,3.93,8,8.21v7a28.67,28.67,0,0,0,.3,4.69Zm-.66-9.54c-3.47,0-6.79.69-6.79,3.65a2.6,2.6,0,0,0,2.8,2.81,4,4,0,0,0,3.86-2.7,3.92,3.92,0,0,0,.13-1.07Z" />
            <path class="cls-5"
                d="M678.07,1608.36l3.51,10.43c.39,1.21.81,2.7,1.1,3.78h.11c.3-1.09.67-2.56,1-3.82l3-10.39h5.25l-4.88,13.28c-2.67,7.27-4.47,10.5-6.77,12.52a10.15,10.15,0,0,1-5.16,2.49l-1.11-4.14a8.92,8.92,0,0,0,2.84-1.35,8.45,8.45,0,0,0,2.71-3.1,1.92,1.92,0,0,0,.3-.87,2.42,2.42,0,0,0-.25-1l-7.16-17.87Z" />
            <path class="cls-5"
                d="M714.23,1627.83l-.34-2.17h-.12a7.14,7.14,0,0,1-5.74,2.61,5.76,5.76,0,0,1-6.13-5.79c0-4.92,4.37-7.4,11.54-7.38v-.32c0-1.28-.5-3.4-4-3.39a10.31,10.31,0,0,0-5.23,1.45l-1-3.19a14,14,0,0,1,7.06-1.73c6.24,0,8,3.93,8,8.21v7a28.55,28.55,0,0,0,.31,4.69Zm-.66-9.54c-3.47,0-6.79.69-6.79,3.65a2.6,2.6,0,0,0,2.8,2.81,4,4,0,0,0,3.86-2.7,3.92,3.92,0,0,0,.13-1.07Z" />
            <path class="cls-5"
                d="M729,1602.78v5.58h4.68V1612H729v8.59c0,2.38.63,3.59,2.51,3.59a7.92,7.92,0,0,0,1.92-.21l.1,3.74a11,11,0,0,1-3.59.51,5.7,5.7,0,0,1-4.23-1.61c-1.06-1.12-1.54-2.91-1.54-5.46V1612h-2.78v-3.67h2.78V1604Z" />
            <path class="cls-5"
                d="M760.56,1605.33a15.18,15.18,0,0,0-2.5.12c-5.46.63-8.08,4-8.72,7.57h.11a7.53,7.53,0,0,1,5.86-2.49c4.48,0,8,3.19,8,8.45a9,9,0,0,1-9.17,9.29c-6.3,0-9.8-4.79-9.8-11.22a15.87,15.87,0,0,1,4.51-11.65,14.8,14.8,0,0,1,9.25-3.84,16.78,16.78,0,0,1,2.49-.1Zm-2.29,13.92c0-3-1.65-5.14-4.53-5.14a4.77,4.77,0,0,0-4.25,2.7,3.31,3.31,0,0,0-.32,1.54c.09,3.44,1.71,6.24,4.9,6.24C756.61,1624.59,758.27,1622.38,758.27,1619.25Z" />
            <path class="cls-5"
                d="M766.51,1611.68a3,3,0,1,1,6,0,3,3,0,1,1-6,0Zm0,13.46a3,3,0,1,1,3,3.13A3,3,0,0,1,766.51,1625.14Z" />
            <path class="cls-5" d="M783.33,1606.28h-.08l-4.75,2.39-.86-3.71,6.35-3.13h4.1v26h-4.76Z" />
            <path class="cls-5"
                d="M813.59,1605.91h-10l-.76,5.2a14.42,14.42,0,0,1,1.88-.11,11.51,11.51,0,0,1,6.29,1.66,7.45,7.45,0,0,1,3.4,6.6c0,5-4.09,9-10.49,9a14.91,14.91,0,0,1-6.9-1.53l1-3.73a13.14,13.14,0,0,0,5.73,1.38c2.87,0,5.63-1.65,5.62-4.74s-2.2-5-7.38-5a24.47,24.47,0,0,0-3.55.25l1.68-13.12h13.47Z" />
            <path class="cls-5"
                d="M833.28,1620.21l-2.3,7.62h-5.09l8.65-27h6.27l8.76,27h-5.28l-2.44-7.62Zm7.75-3.72-2.12-6.65c-.52-1.67-1-3.5-1.37-5.06h-.09c-.39,1.58-.8,3.44-1.28,5l-2.08,6.66Z" />
            <path class="cls-5"
                d="M876,1616.83c-.16-3.48-.34-7.67-.32-11.34h-.11c-.89,3.31-2,6.94-3.18,10.35l-4,11.67h-3.78L861,1616c-1-3.46-2-7.12-2.72-10.51h-.09c-.12,3.53-.28,7.84-.49,11.5l-.6,10.84h-4.59l1.8-27h6.47l3.51,10.83c1,3.18,1.83,6.38,2.48,9.38h.12c.72-2.94,1.65-6.23,2.69-9.4l3.74-10.81h6.39l1.55,27h-4.8Z" />
        </g>
    </g>
    <g id="Elements">
        <g id="Icon">
            <path class="cls-8"
                d="M1240.14,322.39l45.58,12.38a3.48,3.48,0,0,1,2.44,4.27l-15.82,58.27a3.49,3.49,0,0,1-4.27,2.45l-45.58-12.38a3.49,3.49,0,0,1-2.45-4.27l15.83-58.27A3.48,3.48,0,0,1,1240.14,322.39Z" />
            <path class="cls-9"
                d="M1546.06,405.48l45.58,12.37a3.49,3.49,0,0,1,2.45,4.27l-15.83,58.27a3.48,3.48,0,0,1-4.27,2.45l-45.57-12.38a3.48,3.48,0,0,1-2.45-4.27l15.82-58.27A3.48,3.48,0,0,1,1546.06,405.48Z" />
            <path class="cls-10"
                d="M1253.56,474.21l-31.81,45.48a3.48,3.48,0,0,0,1.94,5.36l139.81,38L1401,540.4l-20.15-41.24Z" />
            <path class="cls-11" d="M1503.27,542l4.43,55.33a3.48,3.48,0,0,1-4.38,3.64L1363.5,563l17.35-63.86Z" />
            <path class="cls-12" d="M1448.07,251.64a164.38,164.38,0,0,0-194.51,222.57l124.86,33.9,89.06-116.84Z" />
            <path class="cls-13" d="M1448.07,251.64l-69.65,256.47L1503.27,542a164.38,164.38,0,0,0-55.2-290.38Z" />
            <circle class="cls-14" cx="1259.18" cy="505.21" r="9.15" />
            <path class="cls-8"
                d="M1265.85,455.44l38.86-143.09,5.2-1.35a237.6,237.6,0,0,1,121.76,1l25.52,92.61L1384,487.53Z" />
            <path class="cls-9" d="M1384,487.53,1431.67,312a237.49,237.49,0,0,1,105.55,60.71l3.8,3.79-38.86,143.1Z" />
            <path class="cls-15" d="M1429.28,320.82a226.67,226.67,0,0,0-116.5-1L1277.64,449.2l108.75,29.54,82-66.27Z" />
            <path class="cls-16" d="M1386.39,478.74l108.76,29.53,35.13-129.37a226.65,226.65,0,0,0-101-58.08Z" />
            <path class="cls-17" d="M1339,343l4.67-7,38.23,30.09-2.16,7.95-48.2,6.62-.47-8.42,39.47-5Z" />
            <circle class="cls-13" cx="1457.67" cy="216.97" r="18.92" />
            <path class="cls-12" d="M1452.52,235.17a18.92,18.92,0,0,1,9.92-36.52" />
            <polygon class="cls-12"
                points="1447.54 253.58 1440.82 251.76 1451.71 211.68 1458.42 213.51 1456.79 233.56 1447.54 253.58" />
            <rect class="cls-13" x="1452.86" y="213.69" width="6.96" height="41.53"
                transform="translate(112.35 -373.49) rotate(15.19)" />
        </g>
        <g id="Event_Type" data-name="Event Type">
            <path class="cls-3"
                d="M100.28,214.86l-9.26,5a87.68,87.68,0,0,0-8.11,5q-3.3,2.31-3.43,2.78a4.42,4.42,0,0,0,.49,2.09,52.48,52.48,0,0,1,1.5,6A32.5,32.5,0,0,0,82.86,241a62.28,62.28,0,0,0,5.48-3.12,52.54,52.54,0,0,0,4.87-3.28,34.51,34.51,0,0,1,6.36-4.38c3.24-1.55,5.33-1.37,6.25.57a3.49,3.49,0,0,1,.06,3.59,11.88,11.88,0,0,1-3.71,3.16c-1.14.7-2.38,1.52-3.74,2.48-.73.5-1.64,1.09-2.75,1.77q-8.07,5.08-9.34,6.38h0a1.4,1.4,0,0,0-.45,1.09,36,36,0,0,0,1.25,5,46,46,0,0,0,2,6,1.39,1.39,0,0,0,2,.46c1-.48,3.45-2,7.39-4.55s6.36-4.19,7.27-4.87a38.24,38.24,0,0,1,5.09-3.54c2.79-.89,4.67-.3,5.66,1.76a2.89,2.89,0,0,1,.11,2.6,27.85,27.85,0,0,1-7.71,5.82q-4.11,2.26-9.73,5.95a54,54,0,0,1-9.56,6,5.68,5.68,0,0,1-4.12.67,5.69,5.69,0,0,1-2.91-2.68l-.58-1a9.34,9.34,0,0,1-.38-2.14q-.59-4.38-5.06-18.3T71.38,231a1.13,1.13,0,0,0-.31-.15,6.11,6.11,0,0,1-1.29-.84,5,5,0,0,1-1.49-1.81,3,3,0,0,1-.31-.95,2.53,2.53,0,0,1,.71-1.93,5.28,5.28,0,0,1,1.94-1.73,26.66,26.66,0,0,1,3-1.22q2.56-1.23,15.76-9.83c2.93-1.91,4.46-2.89,4.6-3l.42-.24q5.35-3.06,7.26.91a3.38,3.38,0,0,1-.12,2.32A4.77,4.77,0,0,1,100.28,214.86Z" />
            <path class="cls-3"
                d="M131.25,246.63q-.94-2-6.64-7.58-11.33-10.91-14-16.54-2.43-5.06,1.55-7t6.1,2.76q1.41,3,2.15,4.14a51.09,51.09,0,0,0,3.13,4.07,61.45,61.45,0,0,0,4.24,4.69c.74.74,1.66,1.71,2.77,2.92a11.4,11.4,0,0,0,1.53,1.54c0-.24.08-1.25.15-3,0-1.07.3-4.22.85-9.45A119.27,119.27,0,0,1,135,210.4q1.09-5,2.1-6.43a6.26,6.26,0,0,1,2.54-2.2,3.9,3.9,0,0,1,3.14-.22,3.94,3.94,0,0,1,2.26,2.06q.85,1.78-.91,4.76T141,219.56a166.5,166.5,0,0,0-2,20q-.28,6.69-2.53,7.77Q134.56,248.26,131.25,246.63Z" />
            <path class="cls-3"
                d="M182.55,209.37q1.55,3.21-1.72,10.24a20.56,20.56,0,0,1-10,10.29c-3.48,1.67-6.73,1.89-9.78.65s-5.5-3.8-7.37-7.7q-4.14-8.62-1.65-19.11t9.41-13.8a8.13,8.13,0,0,1,11.19,3.73q2.57,5.37-.25,12.69a31,31,0,0,1-10,13,1.17,1.17,0,0,0-.4,1.55,4.47,4.47,0,0,0,2.67,2.19,5.15,5.15,0,0,0,4.14-.34q6.19-3,9.24-12.27a3.58,3.58,0,0,1,1.68-2.33C181,207.6,181.89,208,182.55,209.37Zm-23.29,4.46a20.68,20.68,0,0,0,6.59-8.28c1.46-3.3,1.77-5.81,1-7.54a2.91,2.91,0,0,0-1.39-1.44,2,2,0,0,0-1.8,0q-2.69,1.29-4.06,6.8A22.79,22.79,0,0,0,159.26,213.83Z" />
            <path class="cls-3"
                d="M216.48,200.6q-2.8-2.06-7.12-9.32-4.46-7.56-6.8-6.44t-3.74,11.89q-1.51,10.83-.9,15.35a4.56,4.56,0,0,1-.1,2.44,2.4,2.4,0,0,1-1.13,1.49c-3.12,1.49-5.37.82-6.74-2a58.89,58.89,0,0,1-2.24-7,102.49,102.49,0,0,0-6.6-16.85,5.82,5.82,0,0,1-.22-3.7,3.91,3.91,0,0,1,1.89-2.94A4.29,4.29,0,0,1,186,183c.93.29,2,1.72,3.24,4.29q1.4,2.92,3.68,12.18-.83-18.86,7.41-22.81,7.14-3.42,13.77,7.23,6.73,10.88,8.34,10.11a6,6,0,0,0,1.48-1.09,6.79,6.79,0,0,1,1.58-1.22q1.49-.71,2.31,1t-.43,4.32a8.35,8.35,0,0,1-4.27,4.23,5.88,5.88,0,0,1-6.61-.66Z" />
            <path class="cls-3"
                d="M235.06,166.45q-.28.13,1.55,7.71a68.7,68.7,0,0,0,2.53,9,8.92,8.92,0,0,0,2.23,3.27,2,2,0,0,0,2.25.15,10.31,10.31,0,0,0,3-2.19,19.07,19.07,0,0,0,2.88-4.7,5.14,5.14,0,0,1,2.08-2.62,2.17,2.17,0,0,1,1.67-.18,1.73,1.73,0,0,1,1.11.93q1.31,2.7-1.43,8.24a16.34,16.34,0,0,1-7.59,7.87c-2.72,1.3-5.17,1.5-7.37.58s-4-2.88-5.45-5.88q-2-4.16-4.85-18.1-1.87,1.15-2.64,1.53l-.65.31a6,6,0,0,1-3.33.46,3.59,3.59,0,0,1-2.88-2.26c-.83-1.73-.26-3.06,1.69-4l6.48-3.41q-.5-4.35-2-11.09c-.63-2.78.08-4.66,2.11-5.63a3.76,3.76,0,0,1,3.15-.24,3.67,3.67,0,0,1,2.06,1.83q.22.49,1.94,10.78,9.39-5.55,10.34-6a3.77,3.77,0,0,1,2.39-.55c.5.15,1,.67,1.4,1.58q1.32,2.75-3,5.71Z" />
            <path class="cls-3"
                d="M295.94,123.07a3.25,3.25,0,0,0,.17,1.63q.33,1.23,3.84,11.2a162,162,0,0,0,6.23,15.62,31.25,31.25,0,0,0,3.06,5,3.18,3.18,0,0,1,.63.91,5.43,5.43,0,0,1,.46,3.45,3.27,3.27,0,0,1-1.84,2.52,5.78,5.78,0,0,1-3.06.23,5,5,0,0,1-3.49-2.51,54.86,54.86,0,0,1-3.31-6.11,160.54,160.54,0,0,1-6.29-16.28c-2.51-7.33-3.72-11.12-3.62-11.34q-.87.42-6.68,3.77c-3.91,2.25-6.18,3.54-6.84,3.85q-3.18,1.53-4.8,1.3a3.2,3.2,0,0,1-2.47-2,3,3,0,0,1,.16-3q.92-1.46,6.24-4a140.17,140.17,0,0,0,16.85-9.53,116.38,116.38,0,0,1,13.87-8.47q5.55-2.66,7.38-1.92a4.29,4.29,0,0,1,2.45,2q1.44,3-1.22,4.26c-.57.27-1.53.65-2.86,1.14s-2.88,1.19-4.6,2Q298.4,120.53,295.94,123.07Z" />
            <path class="cls-3"
                d="M350,119.76a149.72,149.72,0,0,1,5.23,15.36,66,66,0,0,1,2.46,14.54q.33,6.89-1.47,10.31a11.91,11.91,0,0,1-5.64,5.26,22.61,22.61,0,0,1-8.67,2.23h0a20.77,20.77,0,0,1-7.43-.91q-3.53-1.12-4.27-2.7a3.83,3.83,0,0,1-.38-2.65,2.61,2.61,0,0,1,1.48-1.78,2.35,2.35,0,0,1,2.11.05q6.38,3.19,13.9-.41,3-1.45,2.83-9.2a52.56,52.56,0,0,0-3.77-17q-5.93,12.09-11.07,14.55a6.84,6.84,0,0,1-6.54-.12,11.64,11.64,0,0,1-5-5.45,55.35,55.35,0,0,1-3.45-11.67q-1.67-7.93-1.27-10.23a5,5,0,0,1,3.14-3.61,2.81,2.81,0,0,1,2.89.19,5.7,5.7,0,0,1,2.15,2.43,38.7,38.7,0,0,1,.28,6.27q.07,7.09,2.08,11.29a7.82,7.82,0,0,0,2.18,3c.76.56,1.35.74,1.78.53a10.5,10.5,0,0,0,3.17-2.62,25.89,25.89,0,0,0,3.47-5.47,22.89,22.89,0,0,0,2.08-5.11,9.94,9.94,0,0,0-.09-3.58,50.41,50.41,0,0,0-3-8.31,39.87,39.87,0,0,1-1.8-4.67,3.41,3.41,0,0,1,.28-2.22,3.91,3.91,0,0,1,2-1.92,4.41,4.41,0,0,1,3.3-.52q1.26.47,2.79,3.66Z" />
            <path class="cls-3"
                d="M372.27,128.73a67.44,67.44,0,0,0,2.09,7l4.33,12.82a8.31,8.31,0,0,1,.53,4.79,3.8,3.8,0,0,1-2.06,2.39A4.54,4.54,0,0,1,374,156a3.32,3.32,0,0,1-2.35-1.7,28.29,28.29,0,0,1-2-6.13,189.94,189.94,0,0,0-13.23-40.47l-.3-.62a44.16,44.16,0,0,1-2.4-5.61,4.59,4.59,0,0,1,2.76-5.59c2.24-1.07,4.18.1,5.82,3.54A59.32,59.32,0,0,1,365,106.9l.71,2.28a39.89,39.89,0,0,1,3.69-13.73q3-6.2,6.8-8a8.81,8.81,0,0,1,7.06-.35,9.42,9.42,0,0,1,5.39,5q4.77,10,1,21.81T378.24,129.4Q374.67,131.11,372.27,128.73ZM378.35,95q-3.77,1.8-6.24,12t-.47,14.41a2.73,2.73,0,0,0,2,1.41,4.28,4.28,0,0,0,2.89-.34q3.92-1.87,6-10.46t-.62-14.31A5.65,5.65,0,0,0,380,95.24,1.76,1.76,0,0,0,378.35,95Z" />
            <path class="cls-3"
                d="M429.35,91q1.54,3.21-1.72,10.24a20.64,20.64,0,0,1-10,10.3,11.71,11.71,0,0,1-9.77.65c-3-1.24-5.5-3.8-7.37-7.71q-4.14-8.62-1.66-19.1t9.42-13.81a8.13,8.13,0,0,1,11.19,3.73Q422,80.68,419.15,88a30.91,30.91,0,0,1-10,13,1.18,1.18,0,0,0-.39,1.55,4.42,4.42,0,0,0,2.66,2.19,5.19,5.19,0,0,0,4.14-.33q6.19-3,9.24-12.28a3.65,3.65,0,0,1,1.69-2.33C427.74,89.24,428.69,89.63,429.35,91Zm-23.29,4.46a20.7,20.7,0,0,0,6.58-8.27c1.46-3.31,1.78-5.82.95-7.55a2.91,2.91,0,0,0-1.39-1.44,2,2,0,0,0-1.79,0q-2.69,1.29-4.06,6.8A22.52,22.52,0,0,0,406.06,95.47Z" />
            <path class="cls-18" d="M279.69,385.77C246.84,390.53,190,382.3,181.5,272" />
            <path class="cls-3"
                d="M303,379.5c-12.05-1.25-27.49-4.71-37.85-9.91l11.4,16.71-1.92,20.14C281.19,396.88,293.05,386.41,303,379.5Z" />
        </g>
        <g id="User_PFP" data-name="User PFP">
            <path class="cls-3"
                d="M1592.94,252a21.18,21.18,0,0,1-8.07-3.59,15.58,15.58,0,0,1-6.33-8.87,27,27,0,0,1-.75-12.11,49.86,49.86,0,0,1,2.28-8.33l2.07-6.07q.48-1.55,1-3c.52-1.51,1-3,1.42-4.38a14,14,0,0,1,2.54-5.32A4,4,0,0,1,1591,199c.81.13,1.54.89,2.18,2.3a6.16,6.16,0,0,1,.8,3.12q-.1.71-2.79,7.17-.67,1.62-2.7,8a72.25,72.25,0,0,0-2.4,8.74q-1.36,8.61,1.93,12.21t5.89,4q8.57,1.35,12.43-1.79t6.07-11.31c.27-1,.56-1.93.86-2.81.59-2.26,1.12-4.42,1.61-6.49q2.7-11.79,4.7-14.55c1.35-1.84,3-2.61,4.85-2.32q3.51.56,2.79,5.12a69.89,69.89,0,0,1-2.9,9.85,79.15,79.15,0,0,0-2.42,8.51q-2.22,10.14-5.17,14.55t-9.28,7.18A25.69,25.69,0,0,1,1592.94,252Z" />
            <path class="cls-3"
                d="M1643.67,248.88q.15-1.84-5.1-5.37-6.43-4.44-8-7.16a8.33,8.33,0,0,1-1.1-5.55q.95-6,8.35-9.39t13.22-2.5q5.7.9,4.92,5.86a3.06,3.06,0,0,1-1.67,2.16,4,4,0,0,1-2.38.7,3.81,3.81,0,0,1-1.24-.68,3.73,3.73,0,0,0-1.38-.71,14,14,0,0,0-6.94,1c-2.62,1-4.07,2.36-4.36,4.16a3.62,3.62,0,0,0,.89,2.75,21.71,21.71,0,0,0,4.74,3.92q5.4,3.69,6.91,6.21a7.65,7.65,0,0,1,1.08,5.22q-.78,4.94-8,7.17a33.86,33.86,0,0,1-15.49.93q-6.11-1-5.41-5.39a3.64,3.64,0,0,1,1.72-2.57,4.27,4.27,0,0,1,3-.69,7,7,0,0,1,1.92.79,7.17,7.17,0,0,0,2.41.9,24.63,24.63,0,0,0,6.82,0C1641.11,250.35,1642.77,249.75,1643.67,248.88Z" />
            <path class="cls-3"
                d="M1687.67,252.71q-.56,3.51-7.23,7.46a20.68,20.68,0,0,1-14.11,2.77,11.67,11.67,0,0,1-8.41-5q-2.72-4.11-1.7-10.53,1.5-9.45,9.49-16.67t15.58-6a8.12,8.12,0,0,1,7.1,9.42q-.93,5.88-7.41,10.3a30.9,30.9,0,0,1-15.61,5.06,1.17,1.17,0,0,0-1.2,1.06,4.47,4.47,0,0,0,.94,3.32,5.2,5.2,0,0,0,3.61,2.07q6.78,1.07,14.57-4.86a3.61,3.61,0,0,1,2.71-1C1687.35,250.34,1687.91,251.21,1687.67,252.71ZM1666,243.16a20.75,20.75,0,0,0,10.12-3.07q4.62-2.84,5.07-5.67a3,3,0,0,0-.33-2,2,2,0,0,0-1.49-1q-2.92-.47-7.2,3.29A22.78,22.78,0,0,0,1666,243.16Z" />
            <path class="cls-3"
                d="M1702.53,249.8l.74-1a57.91,57.91,0,0,1,10.9-11.93q5.5-4.38,10-3.67a8.43,8.43,0,0,1,5.33,2.78,5.83,5.83,0,0,1,1.46,4.84,5.12,5.12,0,0,1-1.18,2.67,2.34,2.34,0,0,1-2.24.83A5.32,5.32,0,0,1,1724,242a3.53,3.53,0,0,0-1.75-1.42q-2.54-.39-9.72,6.53a36.74,36.74,0,0,0-10,16.56,6.28,6.28,0,0,1-2.28,3.71,5.12,5.12,0,0,1-3.65.58q-2.34-.36-2.89-3.17t.38-8.82q.39-2.46,1.19-6.63c.5-2.62,1.27-5.79,2.3-9.53.27-1,.47-1.74.6-2.29a25.21,25.21,0,0,1,1.41-4.43,4.9,4.9,0,0,1,2.17-2,5.15,5.15,0,0,1,3.31-.59,3.61,3.61,0,0,1,2.61,1.49,3.4,3.4,0,0,1,.58,2.44,30.17,30.17,0,0,1-2.56,6.35,28.88,28.88,0,0,0-1.56,4Z" />
            <path class="cls-3"
                d="M1768.23,261.66a121.24,121.24,0,0,0-2.82,12.42,5.43,5.43,0,0,1-1.64,3.14,3.69,3.69,0,0,1-3.27,1q-4.15-.66-3.39-5.48.42-2.67,4.81-17.72,3.54-12.18,3.92-14.57a10.64,10.64,0,0,0,.26-3.15,4.13,4.13,0,0,1-1.56-4.36q.43-2.83,9.93-3.5a71.62,71.62,0,0,1,16,.36q7.63,1.2,11.66,5.06a9.92,9.92,0,0,1,3.19,9.18q-1.21,7.71-10.44,12.22a54.2,54.2,0,0,1-21.49,5.06C1770.38,261.44,1768.66,261.56,1768.23,261.66Zm7-24.88-4.8,17.44a52.92,52.92,0,0,0,18-3.06q8-3,8.76-7.7.88-5.64-8-7A42.94,42.94,0,0,0,1775.24,236.78Z" />
            <path class="cls-3"
                d="M1847.22,246.62a3.56,3.56,0,0,1-2,.23,4.86,4.86,0,0,1-1.16-.32,16.37,16.37,0,0,0-2.87-.63,87.64,87.64,0,0,0-9.67-.9,32.09,32.09,0,0,0-7.6.25,60.42,60.42,0,0,0-5,14.88c.94,0,1.9,0,2.86.07,3.55.19,6.87.24,10,.15a37.06,37.06,0,0,1,6.18.29q5.13.81,4.57,4.39a3.13,3.13,0,0,1-1.27,1.58,6,6,0,0,1-2.39,1.23,21.33,21.33,0,0,1-4.4.24l-9.23-.31a68.88,68.88,0,0,0-7.9.06,1.16,1.16,0,0,0-.65.54,27,27,0,0,0-1.12,4q-.85,3.58-1.34,6.66l-.55,4.31q-.61,4-4.34,3.39a5.71,5.71,0,0,1-3.38-1.95,4.62,4.62,0,0,1-1.11-4,111.61,111.61,0,0,1,3-12.44q.12-.36,7.45-24.39a5.14,5.14,0,0,0,0-2,7.86,7.86,0,0,1-.14-2.41,3.74,3.74,0,0,1,1.84-2.33,4.17,4.17,0,0,1,2.86-.91,7.31,7.31,0,0,1,1.66.47,12.9,12.9,0,0,0,2.55.68c.88.14,4.54.34,11,.62q6.28.3,9.32.78a10.47,10.47,0,0,1,4.83,1.78c1.07.85,1.57,1.55,1.48,2.09a4.84,4.84,0,0,1-3.32,3.94Z" />
            <path class="cls-3"
                d="M1857.8,275.8a121.24,121.24,0,0,0-2.82,12.42,5.46,5.46,0,0,1-1.64,3.14,3.69,3.69,0,0,1-3.27,1q-4.15-.66-3.39-5.49.42-2.65,4.8-17.72,3.55-12.17,3.93-14.57a10.57,10.57,0,0,0,.26-3.14,4.15,4.15,0,0,1-1.57-4.36q.45-2.84,9.94-3.51a72.16,72.16,0,0,1,16,.37q7.63,1.2,11.66,5.05a9.94,9.94,0,0,1,3.19,9.19q-1.22,7.71-10.44,12.21a54,54,0,0,1-21.49,5.07C1860,275.58,1858.23,275.7,1857.8,275.8Zm7-24.88-4.8,17.44a52.92,52.92,0,0,0,18-3.06q8-3,8.75-7.7.9-5.64-8-7.05A42.68,42.68,0,0,0,1864.81,250.92Z" />
            <path class="cls-19" d="M1642.81,416.19c34.66-12.43,87.92-42.88,88.19-112.63" />
            <path class="cls-3"
                d="M1613.66,424c15.09,1.27,34.47,5.21,47.54,11.45l-14.66-20.6,1.92-25.21C1640.49,401.74,1625.92,415.12,1613.66,424Z" />
        </g>
        <g id="Arrow">
            <path class="cls-1" d="M1420.6,1347.52l253.6,104.8-18.4,55.2L1347,1376.32v-56.8l308.8-131.2,18.4,55.2Z" />
            <path class="cls-20" d="M1440.6,1339.52l253.6,104.8-18.4,55.2L1367,1368.32v-56.8l308.8-131.2,18.4,55.2Z" />
        </g>
        <g id="Event_Info" data-name="Event Info">
            <!-- <line class="cls-19" x1="424" y1="601.11" x2="418" y2="601.11" /> -->
            <line class="cls-21" x1="405.93" y1="601.11" x2="170.52" y2="601.11" />
            <polyline class="cls-19" points="164.48 601.11 158.48 601.11 158.48 607.11" />
            <line class="cls-22" x1="158.48" y1="619.14" x2="158.48" y2="1382.68" />
            <polyline class="cls-19" points="158.48 1388.69 158.48 1394.69 164.48 1394.69" />
            <line class="cls-21" x1="176.56" y1="1394.69" x2="411.96" y2="1394.69" />
            <!-- <line class="cls-19" x1="418" y1="1394.69" x2="424" y2="1394.69" /> -->
            <path class="cls-3"
                d="M80.16,1155.06l.55,10.53a87.2,87.2,0,0,0,1,9.46c.45,2.65.79,4.08,1,4.29a4.39,4.39,0,0,0,2.1.46,52.81,52.81,0,0,1,6,1.24,32.22,32.22,0,0,0,5.36,1c0-1.46-.15-3.55-.44-6.29a51.83,51.83,0,0,0-.86-5.81,34.55,34.55,0,0,1-1.19-7.62q0-5.4,3.21-5.4a3.49,3.49,0,0,1,3.26,1.5,12,12,0,0,1,1.25,4.72c.14,1.32.34,2.8.62,4.44.13.87.27,2,.41,3.25q1.1,9.47,1.71,11.18v0a1.34,1.34,0,0,0,.78.87,34.89,34.89,0,0,0,5.08,1,43.23,43.23,0,0,0,6.23.76,1.38,1.38,0,0,0,1.27-1.58q0-1.64-.91-8.63c-.6-4.65-1-7.54-1.24-8.66a38.79,38.79,0,0,1-1-6.12q.62-4.34,4-4.34a2.86,2.86,0,0,1,2.39,1,27.75,27.75,0,0,1,1.91,9.46c.19,3.13.57,6.91,1.17,11.35a54.22,54.22,0,0,1,1.26,11.21,4.66,4.66,0,0,1-4.85,5.47l-1.13.1a8.89,8.89,0,0,1-2.08-.58q-4.22-1.37-18.7-3.35t-16.13-2a1,1,0,0,0-.28.21,5.48,5.48,0,0,1-1.31.8,4.92,4.92,0,0,1-2.28.56,3,3,0,0,1-1-.13c-.48-.09-1-.59-1.43-1.47a5.29,5.29,0,0,1-.72-2.5,27.65,27.65,0,0,1,.2-3.25q0-2.83-2-18.45-.67-5.2-.68-5.44l0-.48q-.45-6.15,4-6.15a3.36,3.36,0,0,1,2,1.11A4.72,4.72,0,0,1,80.16,1155.06Z" />
            <path class="cls-3"
                d="M122.2,1140.88q-2.25,0-9.7,2.69-14.75,5.51-21,5.51-5.61,0-5.61-4.41t5.13-4.31c2.19,0,3.74,0,4.67-.15a46.9,46.9,0,0,0,5-1.06,60.07,60.07,0,0,0,6.07-1.8c1-.34,2.25-.75,3.83-1.23a12.22,12.22,0,0,0,2-.71q-.32-.21-2.67-1.44-1.44-.72-8.15-4.85a119.87,119.87,0,0,1-10.72-7.27c-2.66-2.08-4.29-3.64-4.88-4.66a6.34,6.34,0,0,1-.89-3.25,3.95,3.95,0,0,1,4-4.07q2,0,3.89,2.87t8.75,7.64a166.92,166.92,0,0,0,17.19,10.41q5.93,3.15,5.92,5.64Q125.11,1138.59,122.2,1140.88Z" />
            <path class="cls-3"
                d="M110.79,1078.5q3.55,0,8.49,6a20.67,20.67,0,0,1,4.94,13.5,11.7,11.7,0,0,1-3.64,9.09q-3.64,3.32-10.14,3.32-9.57,0-17.94-6.77t-8.37-14.46a8.12,8.12,0,0,1,8.2-8.48q5.94,0,11.33,5.71a30.85,30.85,0,0,1,7.43,14.63,1.17,1.17,0,0,0,1.23,1,4.45,4.45,0,0,0,3.13-1.46,5.18,5.18,0,0,0,1.49-3.88q0-6.87-7.08-13.63a3.63,3.63,0,0,1-1.36-2.53C108.5,1079.18,109.26,1078.5,110.79,1078.5Zm-6.05,22.93a20.75,20.75,0,0,0-4.62-9.52c-2.34-2.74-4.48-4.12-6.39-4.12a2.87,2.87,0,0,0-1.9.64,2,2,0,0,0-.77,1.62q0,3,4.38,6.6A22.74,22.74,0,0,0,104.74,1101.43Z" />
            <path class="cls-3"
                d="M117.55,1044.11q-3.08,1.65-11.48,2.39-8.75.76-8.75,3.35t9.11,8.52q9.1,6,13.45,7.45A4.43,4.43,0,0,1,122,1067a2.39,2.39,0,0,1,.86,1.66q0,5.19-4.76,5.19a56.64,56.64,0,0,1-7.31-1,103.53,103.53,0,0,0-18-1.33,5.74,5.74,0,0,1-3.43-1.41,3.85,3.85,0,0,1-1.83-3,4.3,4.3,0,0,1,1-3c.66-.71,2.42-1.06,5.26-1.06q3.26,0,12.58,2Q89,1057.51,89,1048.38q0-7.92,12.48-9.29,12.71-1.36,12.71-3.15a5.75,5.75,0,0,0-.34-1.81,6.39,6.39,0,0,1-.41-2c0-1.09.64-1.64,1.91-1.64s2.4.75,3.71,2.26a8.31,8.31,0,0,1,2,5.67,5.86,5.86,0,0,1-3.46,5.68Z" />
            <path class="cls-3"
                d="M94.79,1012.6c0,.2,2.54.85,7.62,1.93a70.43,70.43,0,0,0,9.23,1.62,9,9,0,0,0,3.91-.6,2.05,2.05,0,0,0,1.12-2,10.33,10.33,0,0,0-.67-3.67,19,19,0,0,0-3-4.64,5.15,5.15,0,0,1-1.47-3,2.25,2.25,0,0,1,.56-1.59,1.77,1.77,0,0,1,1.32-.6c2,0,4.28,1.62,6.82,4.85a16.38,16.38,0,0,1,3.81,10.26c0,3-.89,5.3-2.67,6.88s-4.33,2.38-7.65,2.38q-4.62,0-18.43-3.45c.16,1.45.24,2.47.24,3v.72a6,6,0,0,1-1,3.19,3.61,3.61,0,0,1-3.28,1.63c-1.92,0-2.88-1.09-2.88-3.25l-.27-7.32q-4.14-1.42-10.83-3c-2.78-.64-4.17-2.08-4.17-4.34a3.83,3.83,0,0,1,1.14-2.94,3.68,3.68,0,0,1,2.55-1.06q.54,0,10.56,2.91-1-10.87-1-11.93a3.75,3.75,0,0,1,.53-2.39,2.72,2.72,0,0,1,2-.58q3,0,3.86,5.16Z" />
            <path class="cls-3"
                d="M88.64,952.82a40.61,40.61,0,0,0,5,.95,45.15,45.15,0,0,1,5.1.69,80,80,0,0,0,10,1.13,72.38,72.38,0,0,0,8.88-.55c2.12-.27,3.67.16,4.63,1.3a5.31,5.31,0,0,1,1.46,3.42,3.56,3.56,0,0,1-2.1,3.45q-2.12,1-7.3,1-3.21,0-15.31-1.6l-13.37-1.88c-2-.39-3.78-.67-5.47-.86-2.48-.27-4-.61-4.59-1a7.15,7.15,0,0,1-1.85-2.13,5.06,5.06,0,0,1-1-2.33,3.37,3.37,0,0,1,1.6-3,7,7,0,0,1,3.93-1Z" />
            <path class="cls-3"
                d="M117.55,915.12q-3.08,1.64-11.48,2.39-8.75.75-8.75,3.35t9.11,8.51q9.1,6,13.45,7.45A4.53,4.53,0,0,1,122,938a2.39,2.39,0,0,1,.86,1.65q0,5.21-4.76,5.2a55.51,55.51,0,0,1-7.31-1,104.52,104.52,0,0,0-18-1.33,5.79,5.79,0,0,1-3.43-1.4,3.86,3.86,0,0,1-1.83-3,4.32,4.32,0,0,1,1-3.05c.66-.7,2.42-1.06,5.26-1.06q3.26,0,12.58,1.95Q89,928.52,89,919.39q0-7.93,12.48-9.3,12.71-1.37,12.71-3.14a5.7,5.7,0,0,0-.34-1.81,6.39,6.39,0,0,1-.41-1.95c0-1.09.64-1.64,1.91-1.64s2.4.75,3.71,2.25a8.35,8.35,0,0,1,2,5.68,5.86,5.86,0,0,1-3.46,5.67Z" />
            <path class="cls-3"
                d="M105.15,888.18l6.11.59q2.94.27,5.82.27a43.86,43.86,0,0,0,6-.48,3.66,3.66,0,0,1,2,1.71,5.34,5.34,0,0,1,.86,2.87c0,3.12-2,4.68-6,4.68a119.84,119.84,0,0,1-12.58-1.47,83,83,0,0,0-10.63-1c-.14,0-.3.13-.48.41-1,1.57-2,2.36-2.87,2.36q-1.77,0-3.86-2.64a4,4,0,0,0-2.31-1.55c-.88-.19-2.26-.47-4.15-.84q-10.9-1.85-15.5-5.72a12.34,12.34,0,0,1-4.6-9.86,8.3,8.3,0,0,1,2.27-5.9A7.42,7.42,0,0,1,71,869.18a15.81,15.81,0,0,1,6.23,1.38c2.16.93,3.23,2.14,3.23,3.64a2.38,2.38,0,0,1-.63,1.68,2.13,2.13,0,0,1-1.66.68l-3-.2q-5.33,0-5.33,2.22,0,2.77,7,5.18a37.54,37.54,0,0,0,11.85,2.41c.34,0,.51-.22.51-.65q0-7.08-.07-10c0-1.95.71-2.92,2.26-2.92s2.61,1.18,3.33,3.54a25.24,25.24,0,0,1,1.08,7.43,27.18,27.18,0,0,0,.44,3.42c3.37.54,6.35.94,8.92,1.19Z" />
            <path class="cls-3"
                d="M105.21,839.31A27.2,27.2,0,0,1,118.7,848q5.49,6.4,5.48,12.8a10.65,10.65,0,0,1-3.7,8.34,13.31,13.31,0,0,1-9.11,3.28q-8.82,0-17.37-6t-8.54-14.59a11.76,11.76,0,0,1,4.32-9.47,15.52,15.52,0,0,1,10.31-3.62,22.2,22.2,0,0,1,5.09.58Zm-10.8,17.77a22,22,0,0,0,6.77,4.68,20.9,20.9,0,0,0,9.33,2.29,9.44,9.44,0,0,0,4.69-1,3.09,3.09,0,0,0,1.84-2.75q0-4.25-5-8.82a16.34,16.34,0,0,0-11.28-4.58,10.43,10.43,0,0,0-5.8,1.49,4.7,4.7,0,0,0-2.27,4.15,6.79,6.79,0,0,0,1.74,4.55Z" />
        </g>
        <g id="Time_of_Log" data-name="Time of Log">
            <path class="cls-3"
                d="M1060.43,1869a3.09,3.09,0,0,0-.78,1.43q-.44,1.21-3.2,11.4a163.13,163.13,0,0,0-3.75,16.4,31.2,31.2,0,0,0-.3,5.83,3.18,3.18,0,0,1,0,1.11,5.51,5.51,0,0,1-1.58,3.11,3.3,3.3,0,0,1-3,1,5.72,5.72,0,0,1-2.64-1.54,4.94,4.94,0,0,1-1.45-4.06,54.89,54.89,0,0,1,.74-6.9,162.15,162.15,0,0,1,4.06-17q3.15-11.21,3.46-11.4-.94-.15-7.64-.68c-4.49-.37-7.09-.6-7.81-.72-2.32-.36-3.88-.92-4.69-1.65a3.16,3.16,0,0,1-.9-3,2.93,2.93,0,0,1,1.85-2.4q1.58-.69,7.41.23a141.18,141.18,0,0,0,19.28,1.73,116.5,116.5,0,0,1,16.23.9q6.07,1,7.17,2.6a4.36,4.36,0,0,1,.86,3.06q-.51,3.28-3.42,2.82c-.63-.1-1.63-.33-3-.68s-3.05-.66-4.94-1Q1063.89,1868.25,1060.43,1869Z" />
            <path class="cls-3"
                d="M1079.76,1890.06v0q2-6,2.19-6.85a7.59,7.59,0,0,1,1.75-4A3.52,3.52,0,0,1,1087,1878a5.46,5.46,0,0,1,3.4,1.65,3.18,3.18,0,0,1,.9,2.63,25.89,25.89,0,0,1-2.13,5.38l-.32.71a61.33,61.33,0,0,0-3.9,10.28c-.68,2.71-1.16,4.9-1.42,6.59a29,29,0,0,0-.16,5.62,7.32,7.32,0,0,1-.06,1q-.12.77-1.8,1.86a4.78,4.78,0,0,1-3.37.82q-4.45-.71-3.39-7.46a75.48,75.48,0,0,1,3.83-13.72C1079,1892.23,1079.41,1891.11,1079.76,1890.06Zm20.69-25.18a5.42,5.42,0,0,1-2.83,3.87,6.39,6.39,0,0,1-4,1.21,4.85,4.85,0,0,1-3.33-2.26,5,5,0,0,1-1-3.62,5.29,5.29,0,0,1,2.17-3.69,6.24,6.24,0,0,1,4.69-.8,5.22,5.22,0,0,1,3.46,1.91A4.3,4.3,0,0,1,1100.45,1864.88Z" />
            <path class="cls-3"
                d="M1102.91,1914.65a3.56,3.56,0,0,1-4.44,2.86q-4.41-.69-3.41-7.08A122.31,122.31,0,0,1,1099,1893a75.31,75.31,0,0,0,2.65-11.07,3,3,0,0,1,3.69-2.6q5.07.81,4.1,7a71.28,71.28,0,0,1-3.39,9.88,36.73,36.73,0,0,0-2.2,6.88q13-19.68,20.77-18.45a6.13,6.13,0,0,1,4.65,3.29q1.51,2.81.23,11.39-1.2,7.85-.43,8,.62.09,5.42-6.93,5.35-7.77,8.63-10a8.77,8.77,0,0,1,6.42-1.76,5.78,5.78,0,0,1,4.92,4.08q1.18,3.5.65,11.27a54.08,54.08,0,0,0-.09,9.39,6.1,6.1,0,0,0,2.31,4.59,2.63,2.63,0,0,1,1.3,2.7c-.15,1-.95,1.84-2.38,2.61a6.47,6.47,0,0,1-4.15.85,6,6,0,0,1-4.85-4.24q-1.41-3.71-.47-14a46.33,46.33,0,0,0,.24-6.66c-.11-1.12-.45-1.72-1-1.81s-1.34.62-2.54,2.08-3.34,4.4-6.42,8.83a43.18,43.18,0,0,1-6.71,8.21,6.35,6.35,0,0,1-5.15,1.82,6.11,6.11,0,0,1-3.66-2.31q-1.71-2-.21-12.59,1.32-9.45.27-9.61-1.42-.23-8.14,7.29A97.28,97.28,0,0,0,1102.91,1914.65Z" />
            <path class="cls-3"
                d="M1194.87,1919.3q-.55,3.51-7.23,7.46a20.61,20.61,0,0,1-14.11,2.77,11.67,11.67,0,0,1-8.41-5q-2.7-4.11-1.69-10.53,1.48-9.45,9.48-16.67t15.59-6a8.12,8.12,0,0,1,7.09,9.42q-.93,5.88-7.41,10.3a31,31,0,0,1-15.61,5.07,1.17,1.17,0,0,0-1.2,1.05,4.48,4.48,0,0,0,1,3.32,5.16,5.16,0,0,0,3.6,2.07q6.78,1.07,14.57-4.86a3.61,3.61,0,0,1,2.71-1C1194.55,1916.94,1195.11,1917.8,1194.87,1919.3Zm-21.71-9.55a20.72,20.72,0,0,0,10.12-3.07q4.62-2.84,5.07-5.67a2.93,2.93,0,0,0-.33-2,2,2,0,0,0-1.48-1q-2.94-.46-7.2,3.29A22.81,22.81,0,0,0,1173.16,1909.75Z" />
            <path class="cls-3"
                d="M1260.9,1924.09a27.3,27.3,0,0,1-10.69,12q-7.18,4.42-13.5,3.42a10.63,10.63,0,0,1-7.66-5,13.23,13.23,0,0,1-1.82-9.51q1.37-8.71,8.65-16.21t15.74-6.17a11.74,11.74,0,0,1,8.68,5.75,15.45,15.45,0,0,1,2,10.74,22.44,22.44,0,0,1-1.36,4.94ZM1245,1910.65a21.92,21.92,0,0,0-5.68,5.95,21,21,0,0,0-3.72,8.86,9.55,9.55,0,0,0,.3,4.79,3.12,3.12,0,0,0,2.43,2.25q4.19.66,9.49-3.59a16.33,16.33,0,0,0,6.29-10.42,10.48,10.48,0,0,0-.57-6,4.7,4.7,0,0,0-3.75-2.89,6.77,6.77,0,0,0-4.76,1Z" />
            <path class="cls-3"
                d="M1277.22,1926.59l-1.53,6c-.48,1.9-.88,3.8-1.18,5.69a44.13,44.13,0,0,0-.46,6,3.66,3.66,0,0,1-2,1.76,5.31,5.31,0,0,1-3,.39q-4.62-.72-3.7-6.6a123,123,0,0,1,3.42-12.19,83.59,83.59,0,0,0,2.67-10.35c0-.13-.09-.31-.33-.53q-2.1-1.86-1.89-3.21.29-1.76,3.21-3.4a4,4,0,0,0,1.89-2c.33-.83.82-2.16,1.48-4q3.53-10.48,8.07-14.42a12.36,12.36,0,0,1,10.46-3,8.32,8.32,0,0,1,5.47,3.16,7.42,7.42,0,0,1,1.5,5.93,15.65,15.65,0,0,1-2.34,6c-1.25,2-2.61,2.86-4.1,2.62a2.42,2.42,0,0,1-1.56-.88,2.17,2.17,0,0,1-.41-1.75l.66-2.9c.56-3.51.1-5.38-1.36-5.62q-2.73-.42-6.2,6.07a37.36,37.36,0,0,0-4.23,11.32c0,.34.14.54.57.61,4.65.73,8,1.23,9.88,1.49s2.78,1.15,2.54,2.68-1.58,2.4-4,2.74a25.6,25.6,0,0,1-7.51-.09,27.32,27.32,0,0,0-3.44-.1c-1.07,3.25-1.93,6.12-2.58,8.63Z" />
            <path class="cls-3"
                d="M1339.91,1895.52q3.64.57,3,4.56a17,17,0,0,1-1.13,3.85q-.84,2-4.42,10a92,92,0,0,0-4.59,12.79,101.48,101.48,0,0,0-2.63,11,97,97,0,0,0-1,10.3c-.06,1.08-.11,1.75-.15,2a4.74,4.74,0,0,1-2,3.24,4.62,4.62,0,0,1-3.48.94,3.46,3.46,0,0,1-3-2.79q-.63-2.42.24-7.92a168.81,168.81,0,0,1,7.2-27.48q5.31-15.64,7.55-18.26T1339.91,1895.52Z" />
            <path class="cls-3"
                d="M1372.79,1941.75a27.32,27.32,0,0,1-10.7,12q-7.18,4.43-13.5,3.42a10.65,10.65,0,0,1-7.66-5,13.28,13.28,0,0,1-1.82-9.51q1.38-8.72,8.65-16.21t15.75-6.17a11.79,11.79,0,0,1,8.68,5.75,15.56,15.56,0,0,1,2,10.74,22.46,22.46,0,0,1-1.37,4.94Zm-15.87-13.44a21.93,21.93,0,0,0-5.69,6,20.91,20.91,0,0,0-3.71,8.86,9.32,9.32,0,0,0,.3,4.79,3.1,3.1,0,0,0,2.43,2.25q4.18.66,9.49-3.59a16.29,16.29,0,0,0,6.28-10.42,10.4,10.4,0,0,0-.56-6,4.71,4.71,0,0,0-3.75-2.89,6.82,6.82,0,0,0-4.76,1Z" />
            <path class="cls-3"
                d="M1401.9,1953.3a32.69,32.69,0,0,1-9.82,5.56q-5.41,1.94-9,1.36a7.39,7.39,0,0,1-5.22-3,8.13,8.13,0,0,1-1.06-6.08q.82-5.24,5.8-11a37.39,37.39,0,0,1,12.77-9.42q7.79-3.63,13.43-2.74a8.81,8.81,0,0,1,5.1,2.54c.32.32.6.6.84.82a5.18,5.18,0,0,1,1.17,2.35,6.51,6.51,0,0,1,.3,2.59,23,23,0,0,1-1.93,3.88,37.5,37.5,0,0,0-3,6.72q-1,3.3-4.75,16.6-3.24,11.57-9.3,16.18t-12.4,3.61a22.24,22.24,0,0,1-12.21-6.51q-5.55-5.46-5.1-8.37a2.27,2.27,0,0,1,2.91-2.17q1,.16,3.67,2.59,6.9,6.29,12.4,7.15,4.18.66,7.85-4.14T1401.9,1953.3Zm3.77-18.65q-2.49-.39-7,2a32.82,32.82,0,0,0-8.77,6.87c-2.82,3-4.42,5.63-4.77,7.86-.18,1.17.15,1.82,1,2a13.71,13.71,0,0,0,9.2-2.17,30.07,30.07,0,0,0,8.22-7q3.38-4.17,3.75-6.54a2.85,2.85,0,0,0-.31-2A1.86,1.86,0,0,0,1405.67,1934.65Z" />
            <path class="cls-19" d="M749.75,1729.79c28.12,58.28,109.51,185.32,274.25,153.34" />
            <path class="cls-3"
                d="M738,1702c.78,15.12-.51,34.86-4.94,48.66l18.44-17.31,25.24-1.5C763.67,1725.59,748.45,1713,738,1702Z" />
        </g>
    </g>
</svg>