
<svg xmlns="http://www.w3.org/2000/svg" viewBox="0 0 2048 2048">
    <defs>
        <style>
            .cls-1 {
                fill: #43b581;
            }

            .cls-2 {
                fill: #606074;
            }

            .cls-3 {
                fill: #525264;
            }

            .cls-4 {
                fill: #c7c8c9;
            }

            .cls-5 {
                fill: #adadad;
            }

            .cls-6 {
                fill: #dadada;
            }

            .cls-7 {
                fill: silver;
            }

            .cls-8 {
                fill: #ff7fff;
            }

            .cls-9 {
                fill: #2e6fd6;
            }

            .cls-10 {
                fill: #2963b7;
            }

            .cls-11 {
                fill: #00ff85;
            }

            #Layer_14 .cls-1 {
                animation: up 7s infinite linear;
                opacity: 0;
            }

            #Layer_14 .cls-1:nth-child(2) {
                animation-delay: 4s;
            }


            #Layer_14 .cls-1:nth-child(3) {
                animation-delay: 3s;
            }

            @keyframes up {
                0% {
                    transform: translateY(150px);
                    opacity: 0;
                }

                20% {
                    transform: translateY(0px);
                    opacity: 1;
                    filter: saturate(1.5) drop-shadow(0px 0px 10px #00ff85);
                }

                40% {
                    transform: translateY(-150px);
                    opacity: 0;
                }

                100% {
                    opacity: 0;
                }
            }
        </style>
    </defs>
    <g id="Layer_14" data-name="Layer 14">
        <path class="cls-1"
            d="M1710.59,1175.6l-116.12-116.11a17.76,17.76,0,0,0-25,0L1453.38,1175.6a17.62,17.62,0,0,0,0,24.89l10.55,10.54a17.47,17.47,0,0,0,12.44,5.13A17.82,17.82,0,0,0,1489,1211l67.89-67.74v215.22a17.38,17.38,0,0,0,17.3,17.61h14.91c9.7,0,18.06-7.91,18.06-17.61v-216l68.28,68.5a17.43,17.43,0,0,0,24.7,0l10.51-10.54A17.61,17.61,0,0,0,1710.59,1175.6Z" />
        <path class="cls-1"
            d="M595.35,889.72,479.23,773.61a17.76,17.76,0,0,0-25,0L338.14,889.72a17.63,17.63,0,0,0,0,24.88l10.55,10.55a17.47,17.47,0,0,0,12.44,5.13,17.82,17.82,0,0,0,12.59-5.13l67.89-67.74v215.22a17.38,17.38,0,0,0,17.3,17.61h14.91c9.7,0,18.07-7.91,18.07-17.61v-216l68.27,68.5a17.43,17.43,0,0,0,24.7,0l10.52-10.55A17.61,17.61,0,0,0,595.35,889.72Z" />
        <path class="cls-1"
            d="M1359.59,275.6,1243.47,159.49a17.76,17.76,0,0,0-25,0L1102.38,275.6a17.62,17.62,0,0,0,0,24.89L1112.93,311a17.47,17.47,0,0,0,12.44,5.13A17.82,17.82,0,0,0,1138,311l67.89-67.74V458.51a17.38,17.38,0,0,0,17.3,17.61h14.91c9.7,0,18.06-7.91,18.06-17.61v-216L1324.4,311a17.43,17.43,0,0,0,24.7,0l10.51-10.54A17.61,17.61,0,0,0,1359.59,275.6Z" />
    </g>
    <g id="Layer_15" data-name="Layer 15">
        <path class="cls-2"
            d="M476.74,1249.26H618.66a10.45,10.45,0,0,1,10.45,10.46v181.44a10.45,10.45,0,0,1-10.45,10.45H476.74a10.45,10.45,0,0,1-10.46-10.45V1259.72A10.46,10.46,0,0,1,476.74,1249.26Z" />
        <path class="cls-3"
            d="M1429.34,1249.26h141.92a10.46,10.46,0,0,1,10.46,10.46v181.44a10.45,10.45,0,0,1-10.46,10.45H1429.34a10.45,10.45,0,0,1-10.45-10.45V1259.72A10.45,10.45,0,0,1,1429.34,1249.26Z" />
        <path class="cls-4" d="M635.23,1678.94l-56.44,157a10.45,10.45,0,0,0,9.84,14H1024l73.13-85.51L1024,1651.05Z" />
        <path class="cls-5" d="M1412.77,1678.94l56.44,157a10.45,10.45,0,0,1-9.84,14H1024V1651.05Z" />
        <path class="cls-6"
            d="M1024,880.31c-272.79,0-493.93,221.14-493.93,493.93a491.8,491.8,0,0,0,105.16,304.7H1024l155.39-394.89Z" />
        <path class="cls-7"
            d="M1024,880.31v798.63h388.77a491.78,491.78,0,0,0,105.16-304.7c0-272.79-221.14-493.93-493.93-493.93Z" />
        <circle class="cls-8" cx="675.92" cy="1764.42" r="27.5" />
        <path class="cls-2"
            d="M656.08,1614.85V1169.26l14-8c106.33-60.78,228.71-92.9,353.91-92.9l104.5,273.57L1024,1614.85Z" />
        <path class="cls-3" d="M1024,1614.85v-546.5c125.2,0,247.58,32.12,353.91,92.9l14,8v445.59Z" />
        <path class="cls-9" d="M1024,1095.73c-124.06,0-240,32.5-338.64,88.89v402.84H1024l104.5-226.72Z" />
        <path class="cls-10" d="M1024,1587.46h338.64V1184.62c-98.64-56.38-214.58-88.89-338.64-88.89Z" />
        <polygon class="cls-6"
            points="1024 886.36 1003.09 886.36 1003.09 761.57 1024 761.57 1030.2 826.02 1024 886.36" />
        <rect class="cls-7" x="1024" y="761.57" width="20.91" height="124.79" />
        <circle class="cls-7" cx="1024.87" cy="768.96" r="56.86" />
        <path class="cls-6" d="M1024.26,825.82a56.86,56.86,0,0,1,0-113.72" />
        <path class="cls-11" d="M862,1190l60.55,106.4-23.1,11.9L849,1220.1l-50.4,88.2-23.1-11.9L836.07,1190Z" />
        <path class="cls-11" d="M1212,1190l60.55,106.4-23.1,11.9-50.4-88.2-50.4,88.2-23.1-11.9,60.55-106.4Z" />
    </g>
</svg>